<svg xmlns="http://www.w3.org/2000/svg" xmlns:xlink="http://www.w3.org/1999/xlink" width="50" zoomAndPan="magnify" viewBox="0 0 37.5 21.083" height="28.111" preserveAspectRatio="xMidYMid meet" version="1.0"><defs><clipPath id="2cc46c0c11"><path d="M2.956 15.922h31.582v5.148H2.956Zm0 0" clip-rule="nonzero"/></clipPath><clipPath id="9f59ca647c"><path d="M7.138 0.005h23.206V14.678H7.138Zm0 0" clip-rule="nonzero"/></clipPath></defs><g clip-path="url(#2cc46c0c11)"><path fill="#000000" d="M23.303 19.744H14.19c-0.063 0 -0.103 -0.066 -0.074 -0.122l0.701 -1.35a0.083 0.083 0 0 1 0.074 -0.045h7.71c0.031 0 0.06 0.017 0.074 0.045l0.701 1.35c0.029 0.055 -0.011 0.122 -0.074 0.122m11.033 0.153L30.563 16.125a0.686 0.686 0 0 0 -0.486 -0.201H7.417c-0.182 0 -0.357 0.072 -0.486 0.201L3.157 19.898a0.687 0.687 0 0 0 -0.201 0.486c0 0.379 0.308 0.687 0.687 0.687h30.208c0.379 0 0.687 -0.308 0.687 -0.687 0 -0.182 -0.072 -0.357 -0.201 -0.486" fill-opacity="1" fill-rule="nonzero"/></g><g clip-path="url(#9f59ca647c)"><path fill="#000000" d="M29.232 0.013H8.262c-0.607 0 -1.103 0.496 -1.103 1.103v12.445c0 0.607 0.496 1.103 1.103 1.103h20.971c0.607 0 1.103 -0.496 1.103 -1.103V1.116c0 -0.607 -0.496 -1.103 -1.103 -1.103m-0.174 1.276v12.098h-20.623V1.289z" fill-opacity="1" fill-rule="nonzero"/></g></svg>