<svg xmlns="http://www.w3.org/2000/svg" xmlns:xlink="http://www.w3.org/1999/xlink" width="70" zoomAndPan="magnify" viewBox="0 0 52.5 29.517" height="39.356" preserveAspectRatio="xMidYMid meet" version="1.0"><defs><clipPath id="d874cabd3b"><path d="M24.802 12.965h20.857v16.122H24.802Zm0 0" clip-rule="nonzero"/></clipPath><clipPath id="156b36669a"><path d="M20.447 25.622h14.4v3.465H20.447Zm0 0" clip-rule="nonzero"/></clipPath><clipPath id="86176b4f33"><path d="M29.466 0.007h18.089V19.524H29.466Zm0 0" clip-rule="nonzero"/></clipPath><clipPath id="798f22952d"><path d="M7.475 15.168H25.981v13.477H7.475Zm0 0" clip-rule="nonzero"/></clipPath></defs><path fill="#e0ce51" d="m30.672 15.657 -0.003 -0.003c0.004 0.006 0.01 0.01 0.014 0.015 -0.004 -0.004 -0.007 -0.008 -0.011 -0.012m0 0" fill-opacity="1" fill-rule="nonzero"/><path fill="#e5b148" d="M36.426 18.302c-0.066 -0.075 -0.152 -0.144 -0.26 -0.203 -1.057 -0.789 -2.314 -1.214 -3.455 -1.86 -0.965 -0.584 -1.98 -1.072 -3.003 -1.543a18.755 18.755 0 0 0 -0.545 -0.243q-0.025 -0.017 -0.049 -0.033c-0.014 0 -0.027 -0.004 -0.041 -0.006 -0.026 -0.011 -0.051 -0.023 -0.077 -0.034 0.044 -0.329 0.033 -0.662 -0.073 -0.981 -0.342 -1.949 -2.851 -2.438 -4.152 -1.151 -0.256 0.163 -0.466 0.393 -0.642 0.645 -0.236 0.308 -0.47 0.64 -0.505 1.039 -0.004 0.377 -0.048 0.778 0.062 1.143 -1.282 0.766 -1.137 3.252 0.468 3.511 0.033 0.003 0.069 0.007 0.104 0.01 0.033 0.041 0.067 0.082 0.105 0.119 0.038 0.038 0.081 0.074 0.125 0.108 0.296 0.969 1.5 1.281 2.394 1.055 0.76 -0.179 1.333 -0.719 1.734 -1.366 0.195 0.07 0.389 0.141 0.581 0.219 2.045 0.831 5.175 2.222 5.175 2.222l3.379 0.103 -1.322 -2.752s0.137 -0.708 0 0Zm0 0" fill-opacity="1" fill-rule="nonzero"/><g clip-path="url(#d874cabd3b)"><path fill="#f1ca69" d="M34.831 18.302c0.137 -0.709 0.289 -1.414 0.449 -2.119 0.193 -0.872 0.359 -1.765 0.702 -2.594 0.296 -0.698 1.324 -0.777 1.749 -0.159 0.281 0.356 0.308 0.823 0.289 1.261 0.012 0.529 0.003 1.059 0.004 1.588 0.137 0.022 0.271 0.071 0.389 0.147 0.062 0.038 0.12 0.086 0.175 0.141 0.512 -0.542 1.49 -0.318 1.743 0.373 0.053 0.007 0.108 0.016 0.16 0.03 -0.071 -1.422 1.91 -1.643 2.124 -0.234 0.018 0.152 0.033 0.304 0.045 0.458 0.768 2.63 1.428 5.288 2.086 7.95 0.281 1.08 0.552 2.163 0.838 3.24 0.048 0.203 0.03 0.395 -0.037 0.566l-0.197 0.025c-0.126 0.016 -0.252 0.031 -0.378 0.044 0 0 -0.058 0.007 -0.086 0.008 -0.003 0 -0.371 0.029 -0.553 0.042h-0.041c-0.383 0.006 -2.072 -0.007 -2.422 -0.019 -0.659 -0.023 -1.317 -0.031 -1.976 -0.046 -0.279 -0.006 -0.559 -0.004 -0.838 -0.006 -0.23 0 -0.986 -0.004 -0.987 -0.004h-0.018c-0.397 0.016 -1.96 0.082 -1.971 0.082 -0.26 -0.005 -0.522 -0.011 -0.782 -0.018 -0.315 -0.007 -0.631 0.007 -0.946 0.012 -0.207 0.003 -0.414 0.003 -0.619 0.003 -0.044 -0.064 -0.081 -0.137 -0.114 -0.219 -0.148 -0.412 -0.018 -0.848 0.036 -1.266 0.144 -0.924 -5.655 -1.455 -6.223 -1.424 -0.459 0.007 -0.88 -0.176 -1.259 -0.424 -0.983 -0.648 -1.617 -1.929 -1.224 -3.087 0.414 -1.432 2.09 -2.452 3.525 -1.887 0.718 0.293 1.668 0.929 1.745 1.764 0.004 0.005 0.008 0.01 0.011 0.015 0.575 -0.174 4.597 -4.244 4.597 -4.244Zm0 0" fill-opacity="1" fill-rule="nonzero"/></g><g clip-path="url(#156b36669a)"><path fill="#495591" d="M34.054 29.087c-0.126 -0.005 -0.252 -0.011 -0.379 -0.016 -0.467 -0.021 -0.934 -0.047 -1.401 -0.073 -0.149 -0.008 -0.299 -0.018 -0.448 -0.022 -0.292 -0.01 -0.585 -0.018 -0.877 -0.027 -0.414 -0.012 -0.829 -0.015 -1.242 -0.021 -1.794 -0.104 -3.588 -0.215 -5.36 -0.523 -0.939 -0.141 -1.875 -0.318 -2.822 -0.402 -0.618 -0.075 -0.853 -0.925 -0.389 -1.325 -0.197 -0.018 -0.395 -0.058 -0.563 -0.166 -0.203 -0.12 -0.094 -0.44 0.133 -0.433 0.549 0.084 1.101 0.012 1.651 0.004 2.547 -0.085 5.097 -0.062 7.644 -0.158 1.05 -0.041 2.102 -0.078 3.148 -0.171 0.44 -0.034 0.878 -0.071 1.319 -0.101a1.322 1.322 0 0 1 0.364 -0.016c-0.025 0.41 -0.052 0.82 -0.077 1.229 -0.014 0.23 -0.022 0.462 -0.033 0.692 -0.015 0.332 -0.031 0.663 -0.046 0.996 -0.008 0.175 -0.016 0.351 -0.023 0.526 -0.137 0.001 -0.275 0.004 -0.412 0.005h-0.111c-0.026 0 -0.052 0 -0.077 -0.001Zm0 0" fill-opacity="1" fill-rule="nonzero"/></g><path fill="#f0e15e" d="M32.892 17.696s-0.012 -0.008 -0.018 -0.012c-0.005 -0.004 -0.011 -0.007 -0.016 -0.011 0.011 0.008 0.023 0.015 0.034 0.023m0 0" fill-opacity="1" fill-rule="nonzero"/><g clip-path="url(#86176b4f33)"><path fill="#f1ca69" d="M47.347 9.192c-0.103 -0.384 -0.249 -0.751 -0.415 -1.11 -0.004 -0.006 -0.008 -0.012 -0.012 -0.018 -0.037 -0.055 -0.071 -0.111 -0.107 -0.167 -0.07 -0.113 -0.127 -0.232 -0.186 -0.349 -0.055 -0.111 -0.1 -0.226 -0.149 -0.34q-0.033 -0.078 -0.066 -0.156c-0.012 -0.032 -0.026 -0.062 -0.037 -0.093 -0.014 -0.037 -0.03 -0.074 -0.025 -0.114 0 -0.01 0.004 -0.016 0.007 -0.025 -0.004 -0.041 0 -0.082 0.005 -0.122 0.004 -0.044 0.011 -0.088 0.012 -0.133v0.012c0 -0.104 0.008 -0.208 0.01 -0.312 0.004 -0.182 0.005 -0.365 0.007 -0.545 -0.003 -0.333 -0.036 -0.666 -0.06 -0.996 0 0.016 0.003 0.033 0.004 0.049 -0.011 -0.132 -0.018 -0.263 -0.025 -0.396v0.006c0 -0.007 0 -0.015 -0.001 -0.022 -0.005 -0.089 -0.007 -0.177 -0.009 -0.264 -0.003 -0.088 -0.01 -0.176 -0.008 -0.262 0 -0.186 -0.003 -0.373 0.001 -0.559 0.003 -0.092 0.006 -0.184 0.01 -0.275 -0.011 -0.196 -0.022 -0.392 -0.031 -0.587 -0.021 -0.292 -0.047 -0.582 -0.07 -0.874a12.35 12.35 0 0 0 -0.045 -0.444 0.769 0.769 0 0 0 -0.093 -0.036 12.965 12.965 0 0 1 -0.184 0.208c-0.127 0.14 -0.255 0.278 -0.382 0.418 -0.084 0.092 -0.18 0.173 -0.268 0.258a69.334 69.334 0 0 0 -0.368 0.354c-0.097 0.092 -0.203 0.178 -0.303 0.266 -0.233 0.206 -0.466 0.411 -0.698 0.618a28.799 28.799 0 0 0 -0.241 0.218c-0.389 0.459 -0.787 0.91 -1.17 1.375 -0.062 0.071 -0.12 0.147 -0.181 0.221 -0.572 -0.169 -1.851 -0.482 -1.894 -0.488 0.014 -0.044 0.171 -0.816 0.225 -1.105 0.063 -0.34 0.138 -0.677 0.21 -1.015 -0.003 0.015 -0.007 0.03 -0.01 0.045 0.107 -0.507 0.229 -1.01 0.353 -1.513 0.033 -0.166 0.068 -0.33 0.1 -0.496 0.027 -0.137 0.045 -0.277 0.064 -0.415 -0.03 0.023 -0.06 0.047 -0.092 0.07 -0.235 0.203 -0.461 0.415 -0.712 0.598 -0.123 0.089 -0.245 0.181 -0.367 0.273 -0.115 0.087 -0.223 0.182 -0.333 0.274 -0.253 0.212 -2.867 1.991 -3.1 2.253 -1.572 -0.096 -2.953 0.484 -4.162 1.505 -0.816 0.707 -1.541 1.55 -2.064 2.497 -0.763 1.514 -1.089 3.252 -0.939 4.94 0.052 1.135 0.471 2.179 1.037 3.144 0.001 0.003 0.003 0.004 0.005 0.007 0.027 0.032 0.055 0.062 0.082 0.093 0.008 0.01 0.018 0.019 0.026 0.029a0.026 0.026 0 0 0 0.007 0.006l0.001 0.001h0.001c0.074 0.082 0.419 0.455 0.519 0.558 0 0 -0.003 -0.003 -0.004 -0.004q0.006 0.006 0.012 0.012c0.03 0.03 0.06 0.062 0.09 0.093 0.162 0.156 0.322 0.316 0.49 0.467 0.115 0.104 0.23 0.208 0.346 0.311 0.223 0.202 0.467 0.382 0.715 0.551 0.04 0.026 0.081 0.053 0.12 0.078 0.272 0.125 0.548 0.244 0.819 0.373 0.366 0.173 0.733 0.34 1.102 0.506 0.081 0.03 0.163 0.06 0.244 0.09 0.092 0.034 0.183 0.072 0.275 0.101 0.204 0.064 0.409 0.127 0.613 0.193 0.449 0.144 3.044 0.499 3.351 0.459 0.374 -0.052 1.195 -0.066 1.564 -0.147 0.564 -0.126 1.561 0.027 4.089 -2.061 0.122 -0.101 0.922 -1.062 1.057 -1.299 0.143 -0.248 0.286 -0.496 0.425 -0.747 0.052 -0.1 0.108 -0.199 0.153 -0.301 0.044 -0.1 0.088 -0.2 0.133 -0.3 0.179 -0.462 0.352 -0.926 0.511 -1.395 0.018 -0.134 0.033 -0.269 0.048 -0.402 0.132 -1.207 0.308 -2.452 -0.033 -3.641Zm0 0" fill-opacity="1" fill-rule="nonzero"/></g><path fill="#ccbc2e" d="M22.221 14.168c0 0.008 -0.001 0.018 -0.003 0.026 0 -0.008 0.001 -0.016 0.003 -0.026m0 0" fill-opacity="1" fill-rule="nonzero"/><g clip-path="url(#798f22952d)"><path fill="#7f8adb" d="M25.772 27.87c-0.093 -0.373 -0.186 -0.744 -0.279 -1.117 -0.057 -0.229 -0.115 -0.459 -0.174 -0.689 -0.029 -0.118 -0.059 -0.236 -0.089 -0.354 -0.011 -0.044 -0.021 -0.088 -0.033 -0.132 -0.021 -0.071 -0.04 -0.142 -0.06 -0.214 0 0.001 0 0.004 0.001 0.006 -0.235 -0.825 -0.472 -1.649 -0.702 -2.475a154.707 154.707 0 0 0 -0.241 -0.862c-0.036 -0.13 -0.073 -0.259 -0.104 -0.389 -0.082 -0.344 -0.166 -0.688 -0.248 -1.033 0 -0.003 -0.001 -0.004 -0.003 -0.007 -0.149 -0.451 -0.3 -0.902 -0.444 -1.355q-0.107 -0.337 -0.214 -0.674a6.457 6.457 0 0 1 -0.079 -0.273c-0.059 -0.225 -0.119 -0.45 -0.178 -0.674 -0.037 -0.141 -0.081 -0.284 -0.112 -0.428 -0.057 -0.236 -0.111 -0.471 -0.167 -0.707 -0.034 -0.143 -0.067 -0.284 -0.101 -0.426 -0.012 -0.053 -0.026 -0.107 -0.037 -0.162 -0.026 -0.13 -0.052 -0.259 -0.078 -0.389 -0.036 -0.112 -0.07 -0.223 -0.105 -0.336 -0.152 -0.022 -0.324 0 -0.501 0.041 -0.498 0.084 -0.997 0.155 -1.497 0.227 -0.86 0.121 -1.828 0.173 -2.707 0.258 -1.12 0.092 -2.239 0.206 -3.35 0.389 -0.685 0.133 -1.368 0.274 -2.058 0.375 -0.837 0.127 -1.688 0.133 -2.518 0.304 -0.427 0.089 -0.848 0.211 -1.276 0.293 -0.319 0.067 -0.683 0.075 -0.945 0.292a25.878 25.878 0 0 1 0.11 0.352c0.294 0.798 0.613 1.584 0.927 2.373 0.063 0.159 0.131 0.317 0.19 0.478 0.09 0.247 0.182 0.495 0.272 0.741 0.148 0.404 0.296 0.808 0.442 1.213 0.136 0.376 0.266 0.754 0.397 1.131 0.125 0.353 0.242 0.71 0.372 1.062 0.274 0.74 0.538 1.484 0.819 2.221 0.074 0.178 0.148 0.358 0.222 0.536 0.059 0.141 0.112 0.284 0.167 0.425v0.003c0 0.001 0 0.003 0.001 0.004a0.01 0.01 0 0 0 -0.003 -0.005c0 -0.001 0 -0.003 -0.001 -0.004 0 0 -0.004 -0.011 -0.007 -0.017 0.059 0.15 0.114 0.299 0.169 0.45 0.019 0.036 0.038 0.071 0.06 0.105a1.794 1.794 0 0 1 0.122 -0.004c0.192 -0.001 0.385 -0.001 0.577 -0.003 0.109 0 0.22 0 0.33 -0.001 0.045 0 0.09 -0.001 0.137 0h-0.008c0.735 0.019 1.471 0.053 2.205 0.09 0.455 0.019 0.911 0.04 1.367 0.048 0.32 0.006 0.642 0.011 0.963 0.017 0.199 0.003 0.397 0 0.595 0 0.519 0 1.037 0 1.556 -0.001 0.214 0 0.427 -0.004 0.641 0 0.301 0.005 0.604 0.008 0.907 0.012 0.512 0.007 1.024 0.018 1.536 0.029 0.482 0.011 0.964 0.015 1.446 0.022h1.367c0.092 0 0.485 0.003 0.623 0 -0.03 -0.119 -0.178 -0.648 -0.208 -0.767Zm0 0" fill-opacity="1" fill-rule="nonzero"/></g><path fill="#5f65c7" d="M14.62 23.286s-0.011 0.007 -0.016 0.011c0 0 -0.001 0 -0.003 0.001 0.007 -0.004 0.012 -0.008 0.019 -0.012m0 0" fill-opacity="1" fill-rule="nonzero"/><path fill="#5f65c7" d="M14.84 23.141h0.001l-0.003 0.003h0.001Zm0 0" fill-opacity="1" fill-rule="nonzero"/><path fill="#495591" d="M17.695 23.5c-0.09 -0.097 -0.182 -0.193 -0.278 -0.286 -0.041 -0.04 -0.085 -0.075 -0.127 -0.114 -0.003 -0.003 -0.007 -0.006 -0.01 -0.008 -0.471 0.286 -0.944 0.573 -1.426 0.84a23.47 23.47 0 0 1 -0.322 0.174c-0.063 0.033 -0.127 0.067 -0.19 0.1 -0.062 0.033 -0.129 0.059 -0.193 0.087 -0.055 0.025 -0.109 0.048 -0.163 0.073 -0.068 0.03 -0.14 0.053 -0.21 0.079 -0.237 0.088 -0.474 0.167 -0.727 0.188 -0.025 0.001 -0.049 0.003 -0.073 0.003 -0.123 0 -0.246 -0.025 -0.36 -0.071 -0.063 -0.026 -0.132 -0.064 -0.178 -0.115a0.769 0.769 0 0 1 -0.127 -0.19c-0.057 -0.126 -0.038 -0.278 -0.022 -0.411 0.023 -0.177 0.077 -0.356 0.147 -0.521 0.13 -0.308 0.356 -0.572 0.607 -0.788 0.245 -0.212 0.543 -0.369 0.854 -0.463 0.234 -0.071 0.475 -0.104 0.716 -0.104 0.389 0 0.779 0.086 1.144 0.233 0.155 0.063 0.309 0.125 0.459 0.203a29.978 29.978 0 0 0 0.355 -0.244 33.206 33.206 0 0 1 0.556 -0.384c-0.011 0.008 -0.023 0.015 -0.034 0.023 0.296 -0.201 0.587 -0.411 0.907 -0.574 -0.012 0.007 -0.025 0.012 -0.037 0.019 0.092 -0.048 0.185 -0.096 0.281 -0.137 0.042 -0.018 0.086 -0.025 0.13 -0.025 -0.271 1.113 -0.496 2.265 -0.554 3.395 -0.288 -0.186 -0.997 -0.837 -1.122 -0.977Zm0 0" fill-opacity="1" fill-rule="nonzero"/><path fill="#7f8adb" d="M14.319 23.348c-0.276 -0.052 -0.179 -0.502 0.082 -0.482 0.179 0.005 0.225 0.219 0.164 0.359 -0.042 0.089 -0.152 0.138 -0.247 0.123m0 0" fill-opacity="1" fill-rule="nonzero"/><path fill="#ffd98d" d="M27.219 17.556c-1.141 0.977 -2.732 -0.343 -2.361 -1.734 0.208 -0.7 0.742 -1.3 1.397 -1.586 0.604 -0.232 1.267 0.286 1.483 0.881 0.163 0.404 0.193 0.866 0.044 1.257 -0.063 0.471 -0.208 0.891 -0.561 1.181Zm0 0" fill-opacity="1" fill-rule="nonzero"/><path fill="#80aea1" d="m16.615 5.116 1.726 3.775 1.438 -0.6 3.031 2.119 -2.607 -3.456 -1.141 0.396Zm0 0" fill-opacity="1" fill-rule="nonzero"/><path fill="#80aea1" d="m23.983 2.557 -1.238 3.645 1.46 0.548 0.824 3.403 0.375 -4.014 -1.104 -0.488Zm0 0" fill-opacity="1" fill-rule="nonzero"/><path fill="#c35b26" d="M40.443 10.816c-0.312 -0.123 -0.353 0.422 -0.515 0.592 -0.123 0.16 -0.352 0.149 -0.534 0.182 -0.237 0.025 -0.492 -0.027 -0.67 -0.193 -0.24 -0.216 -0.129 -0.582 -0.164 -0.867 -0.011 -0.203 0.114 -0.471 0.118 -0.674l0.64 -0.77 -1.237 -0.619 0.104 1.216c-0.008 0.093 -0.015 0.186 -0.019 0.28 -0.025 0.137 -0.051 0.273 -0.077 0.408 -0.084 0.289 -0.289 0.593 -0.575 0.706 -0.524 0.014 -1.227 -0.329 -1.152 -0.939 0.059 -0.23 -0.238 -0.319 -0.32 -0.082 -0.164 0.573 0.266 1.184 0.816 1.344 0.296 0.112 0.668 0.203 0.943 -0.005a1.896 1.896 0 0 0 0.353 -0.365c0.004 0.203 0.029 0.406 0.14 0.578 0.305 0.492 0.959 0.547 1.468 0.388 0.333 -0.073 0.535 -0.366 0.664 -0.66 0.078 -0.155 0.22 -0.396 0.018 -0.517Zm0 0" fill-opacity="1" fill-rule="nonzero"/><path fill="#dff6f5" d="M42.283 10.678c-0.052 0 -0.1 -0.034 -0.114 -0.086a0.119 0.119 0 0 1 0.082 -0.147l2.535 -0.706a0.119 0.119 0 0 1 0.147 0.082 0.119 0.119 0 0 1 -0.082 0.147l-2.535 0.706c-0.011 0.003 -0.022 0.004 -0.032 0.004Zm0 0" fill-opacity="1" fill-rule="nonzero"/><path fill="#dff6f5" d="M44.827 11.883c-0.011 0 -0.023 -0.001 -0.034 -0.006l-2.58 -0.792c-0.063 -0.019 -0.097 -0.085 -0.078 -0.148 0.019 -0.063 0.085 -0.099 0.148 -0.078l2.58 0.792a0.118 0.118 0 0 1 0.078 0.148c-0.015 0.051 -0.063 0.084 -0.114 0.084m0 0" fill-opacity="1" fill-rule="nonzero"/><path fill="#dff6f5" d="M43.692 13.332c-0.033 0 -0.064 -0.014 -0.089 -0.04l-1.646 -1.838a0.118 0.118 0 0 1 0.01 -0.167 0.118 0.118 0 0 1 0.167 0.01l1.646 1.838a0.118 0.118 0 0 1 -0.01 0.167c-0.023 0.021 -0.051 0.03 -0.079 0.03Zm0 0" fill-opacity="1" fill-rule="nonzero"/><path fill="#dff6f5" d="M32.501 10.791c-0.041 0 -0.081 -0.022 -0.103 -0.06 -0.033 -0.057 -0.012 -0.129 0.044 -0.162l2.286 -1.302c0.056 -0.033 0.129 -0.012 0.162 0.044a0.119 0.119 0 0 1 -0.044 0.162l-2.286 1.302a0.113 0.113 0 0 1 -0.059 0.015Zm0 0" fill-opacity="1" fill-rule="nonzero"/><path fill="#dff6f5" d="M34.721 9.079h-0.007l-2.695 -0.139c-0.066 -0.003 -0.115 -0.059 -0.112 -0.125 0.003 -0.066 0.056 -0.115 0.125 -0.112l2.695 0.138c0.066 0.003 0.115 0.059 0.112 0.125a0.119 0.119 0 0 1 -0.118 0.113m0 0" fill-opacity="1" fill-rule="nonzero"/><path fill="#dff6f5" d="M34.818 8.639a0.113 0.113 0 0 1 -0.066 -0.02l-2.045 -1.381a0.118 0.118 0 0 1 -0.031 -0.164 0.118 0.118 0 0 1 0.164 -0.031l2.045 1.381a0.118 0.118 0 0 1 0.031 0.164 0.118 0.118 0 0 1 -0.099 0.052m0 0" fill-opacity="1" fill-rule="nonzero"/><path fill="#ffffff" d="M35.083 5.793c0.718 -1.41 2.603 -1.17 3.271 0.084 0.238 0.378 0.268 0.67 0.26 1.126 -0.218 1.146 -1.442 1.814 -2.343 1.514 -0.581 -0.212 -1.105 -0.411 -1.328 -1.128 -0.211 -0.676 -0.14 -1.064 0.141 -1.597Zm0 0" fill-opacity="1" fill-rule="nonzero"/><path fill="#631f07" d="M35.825 6.21c0.394 -0.774 1.428 -0.643 1.795 0.045 0.13 0.208 0.147 0.367 0.143 0.618 -0.119 0.629 -0.791 0.996 -1.286 0.83 -0.319 -0.116 -0.607 -0.226 -0.728 -0.618 -0.115 -0.37 -0.077 -0.584 0.078 -0.876Zm0 0" fill-opacity="1" fill-rule="nonzero"/><path fill="#ffffff" d="M39.539 6.822c0.718 -1.41 2.603 -1.17 3.271 0.084 0.238 0.378 0.268 0.67 0.26 1.126 -0.218 1.146 -1.442 1.815 -2.343 1.514 -0.581 -0.212 -1.105 -0.411 -1.328 -1.128 -0.211 -0.676 -0.14 -1.064 0.141 -1.597Zm0 0" fill-opacity="1" fill-rule="nonzero"/><path fill="#631f07" d="M40.281 7.239c0.394 -0.774 1.428 -0.643 1.795 0.045 0.13 0.208 0.147 0.367 0.142 0.618 -0.119 0.629 -0.791 0.996 -1.286 0.831 -0.319 -0.116 -0.607 -0.226 -0.728 -0.618 -0.115 -0.37 -0.077 -0.584 0.078 -0.876Zm0 0" fill-opacity="1" fill-rule="nonzero"/><path fill="#c35b26" d="M43.243 5.246 45.535 2.806l-0.166 3.551Zm0 0" fill-opacity="1" fill-rule="nonzero"/><path fill="#c35b26" d="m37.806 3.657 2.506 -1.857 -0.708 2.432Zm0 0" fill-opacity="1" fill-rule="nonzero"/><path fill="#c35b26" d="M43.78 21.28c-0.277 0.001 -0.555 0.003 -0.831 -0.007 -0.182 -0.005 -0.363 -0.029 -0.541 -0.062 -0.168 -0.03 -0.337 -0.062 -0.507 -0.093a8.25 8.25 0 0 0 -1.456 -0.138c-0.241 -0.001 -0.483 -0.004 -0.724 -0.006 -0.319 0.012 -0.641 -0.048 -0.957 -0.009 -0.144 -0.022 -0.512 -0.012 -0.633 0.34 -0.129 0.251 0.257 0.507 0.549 0.598 0.315 0.085 0.649 0.051 0.971 0.086 0.374 0.027 0.749 0.051 1.123 0.072a4.786 4.786 0 0 0 0.875 -0.026c0.119 -0.015 0.24 -0.03 0.359 -0.046 0.507 -0.067 1.019 -0.081 1.528 -0.044 0.145 0.011 0.278 0.025 0.425 0.037l-0.181 -0.704Zm0 0" fill-opacity="1" fill-rule="nonzero"/><path fill="#c35b26" d="M44.643 24.715c-0.548 -0.014 -1.097 -0.094 -1.645 -0.108 -0.741 -0.03 -2.355 0.015 -2.453 0.023 -0.164 0.014 -0.327 0.029 -0.493 0.037 -0.168 0.023 -0.339 0.018 -0.481 -0.086 -0.316 -0.101 -0.411 -0.562 -0.23 -0.818 0.093 -0.133 0.245 -0.226 0.404 -0.259 0.246 0 0.493 0.018 0.738 0.047 0.14 0.018 2.516 0.234 3.937 0.275l0.22 0.891Zm0 0" fill-opacity="1" fill-rule="nonzero"/><path fill="#c35b26" d="M45.353 27.492c-0.974 -0.074 -1.95 -0.12 -2.923 -0.19 -0.755 0.051 -2.505 0.323 -2.636 0.293 -0.168 0.012 -0.571 -0.121 -0.656 -0.256 -0.212 -0.312 -0.296 -0.9 0.535 -0.976 0.153 -0.004 0.307 0.003 0.46 0.001 0.744 0.005 1.473 0.164 2.21 0.254 0.931 0.025 1.865 0.014 2.798 0.046l0.214 0.828Zm0 0" fill-opacity="1" fill-rule="nonzero"/><path fill="#d39c3c" d="M39.266 19.612c-2.366 0 -4.141 -0.725 -4.167 -0.736a0.158 0.158 0 0 1 -0.085 -0.207 0.157 0.157 0 0 1 0.207 -0.085c0.036 0.015 3.569 1.453 7.267 0.199 0.082 -0.027 0.173 0.016 0.2 0.099 0.027 0.082 -0.016 0.173 -0.099 0.2 -1.156 0.392 -2.295 0.529 -3.324 0.529Zm0 0" fill-opacity="1" fill-rule="nonzero"/></svg>