<svg xmlns="http://www.w3.org/2000/svg" xmlns:xlink="http://www.w3.org/1999/xlink" width="70" zoomAndPan="magnify" viewBox="0 0 52.5 29.517" height="39.356" preserveAspectRatio="xMidYMid meet" version="1.0"><defs><clipPath id="43e9abddfb"><path d="M27.672 0.007h0.154V1.23h-0.154Zm0 0" clip-rule="nonzero"/></clipPath><clipPath id="a5d5e37361"><path d="M36.179 15.732h6v6.406H36.179Zm0 0" clip-rule="nonzero"/></clipPath></defs><path fill="#000000" d="M22.313 6.75h10.587a0.996 0.996 0 0 1 0.995 0.996v14.845a0.997 0.997 0 0 1 -0.291 0.704 0.996 0.996 0 0 1 -0.704 0.292H22.314a0.995 0.995 0 0 1 -0.704 -0.292 0.995 0.995 0 0 1 -0.291 -0.704V7.746a0.994 0.994 0 0 1 0.291 -0.704 0.994 0.994 0 0 1 0.704 -0.292m0 0" fill-opacity="1" fill-rule="nonzero"/><path fill="#ffffff" d="M33.446 7.891a0.66 0.66 0 0 0 -0.196 -0.465 0.66 0.66 0 0 0 -0.468 -0.191l-3.719 0.004c-0.15 0.289 -0.143 0.296 -0.183 0.296l-2.242 0.01c-0.033 0.009 -0.032 -0.007 -0.225 -0.306l-3.981 -0.004a0.656 0.656 0 0 0 -0.253 0.049 0.661 0.661 0 0 0 -0.215 0.142 0.661 0.661 0 0 0 -0.144 0.213 0.656 0.656 0 0 0 -0.051 0.252v14.486a0.66 0.66 0 0 0 0.196 0.465 0.666 0.666 0 0 0 0.215 0.142c0.08 0.032 0.166 0.049 0.253 0.049h10.351a0.666 0.666 0 0 0 0.253 -0.049 0.661 0.661 0 0 0 0.411 -0.607Zm0 0" fill-opacity="1" fill-rule="evenodd"/><path fill="#000000" d="M30.578 12.403H24.636a1.404 1.404 0 0 1 -0.544 -0.103 1.404 1.404 0 0 1 -0.462 -0.304 1.414 1.414 0 0 1 -0.309 -0.459 1.409 1.409 0 0 1 -0.109 -0.543 1.411 1.411 0 0 1 0.418 -1.002 1.408 1.408 0 0 1 1.006 -0.407H30.578a1.409 1.409 0 0 1 0.544 0.103 1.414 1.414 0 0 1 0.462 0.304 1.409 1.409 0 0 1 0.309 0.459 1.409 1.409 0 0 1 0.109 0.543c0 0.186 -0.037 0.371 -0.109 0.543a1.409 1.409 0 0 1 -0.309 0.459 1.404 1.404 0 0 1 -0.462 0.304 1.404 1.404 0 0 1 -0.544 0.103m-5.942 -2.718a1.309 1.309 0 0 0 -1.295 1.309 1.309 1.309 0 0 0 1.295 1.309H30.578a1.308 1.308 0 0 0 0.916 -0.388 1.309 1.309 0 0 0 0.379 -0.921 1.308 1.308 0 0 0 -0.379 -0.921 1.308 1.308 0 0 0 -0.916 -0.388Zm0 0" fill-opacity="1" fill-rule="nonzero"/><path fill="#000000" d="M30.578 16.147H24.636a1.408 1.408 0 0 1 -1.006 -0.408 1.414 1.414 0 0 1 -0.309 -0.459 1.409 1.409 0 0 1 -0.109 -0.543c0 -0.186 0.037 -0.371 0.109 -0.543a1.409 1.409 0 0 1 0.309 -0.459 1.408 1.408 0 0 1 1.006 -0.408H30.578a1.409 1.409 0 0 1 0.544 0.103 1.409 1.409 0 0 1 0.462 0.305 1.404 1.404 0 0 1 0.309 0.459 1.409 1.409 0 0 1 0.109 0.543c0 0.186 -0.037 0.371 -0.109 0.543a1.409 1.409 0 0 1 -0.309 0.459 1.409 1.409 0 0 1 -0.462 0.305 1.409 1.409 0 0 1 -0.544 0.103M24.636 13.429a1.309 1.309 0 0 0 -1.295 1.309 1.309 1.309 0 0 0 1.295 1.309H30.578a1.308 1.308 0 0 0 0.916 -0.388 1.309 1.309 0 0 0 0 -1.841 1.308 1.308 0 0 0 -0.916 -0.388Zm0 0" fill-opacity="1" fill-rule="nonzero"/><path fill="#81f8f8" d="M27.527 17.896c1.238 0 2.243 0.338 2.243 0.755 0 0.417 -1.005 0.755 -2.243 0.755s-2.243 -0.338 -2.243 -0.755c0 -0.417 1.005 -0.755 2.243 -0.755m0 0" fill-opacity="1" fill-rule="evenodd"/><path fill="#000000" d="M27.527 19.456c-1.286 0 -2.294 -0.353 -2.294 -0.805s1.007 -0.805 2.294 -0.805c1.286 0 2.293 0.353 2.293 0.805 0 0.451 -1.006 0.805 -2.293 0.805m0 -1.509c-1.312 0 -2.193 0.364 -2.193 0.704s0.881 0.704 2.193 0.704 2.193 -0.364 2.193 -0.704 -0.881 -0.704 -2.193 -0.704m0 0" fill-opacity="1" fill-rule="nonzero"/><path fill="#000000" d="m25.487 11.34 -0.495 -0.339 0.495 -0.339a0.05 0.05 0 0 0 0.013 -0.07 0.049 0.049 0 0 0 -0.032 -0.021 0.05 0.05 0 0 0 -0.038 0.008l-0.478 0.327v-0.58a0.05 0.05 0 0 0 -0.05 -0.047 0.05 0.05 0 0 0 -0.05 0.047l0 0.579 -0.478 -0.327a0.051 0.051 0 0 0 -0.018 -0.008 0.051 0.051 0 0 0 -0.052 0.021 0.049 0.049 0 0 0 -0.008 0.018 0.051 0.051 0 0 0 0.007 0.038c0.004 0.005 0.008 0.01 0.014 0.014l0.495 0.339 -0.495 0.339a0.05 0.05 0 0 0 0.028 0.092c0.022 0 -0.013 0.02 0.506 -0.336v0.579a0.05 0.05 0 0 0 0.016 0.034 0.049 0.049 0 0 0 0.035 0.014c0.013 0 0.025 -0.005 0.035 -0.014a0.051 0.051 0 0 0 0.016 -0.034v-0.578c0.52 0.356 0.483 0.336 0.506 0.336a0.05 0.05 0 0 0 0.049 -0.035 0.05 0.05 0 0 0 -0.02 -0.057m0 0" fill-opacity="1" fill-rule="nonzero"/><path fill="#000000" d="m25.487 15.016 -0.495 -0.339 0.495 -0.339a0.05 0.05 0 0 0 0.013 -0.07 0.049 0.049 0 0 0 -0.032 -0.021 0.05 0.05 0 0 0 -0.038 0.008l-0.478 0.327v-0.58a0.05 0.05 0 0 0 -0.05 -0.047 0.05 0.05 0 0 0 -0.05 0.047l0 0.579 -0.478 -0.327a0.051 0.051 0 0 0 -0.07 0.013 0.05 0.05 0 0 0 0.013 0.07l0.495 0.339 -0.495 0.339a0.049 0.049 0 0 0 -0.019 0.025 0.051 0.051 0 0 0 0.018 0.057c0.009 0.006 0.019 0.01 0.03 0.01 0.022 0 -0.013 0.02 0.506 -0.336v0.579a0.051 0.051 0 0 0 0.05 0.048c0.013 0 0.025 -0.005 0.035 -0.014 0.009 -0.009 0.015 -0.021 0.016 -0.034v-0.579c0.52 0.356 0.483 0.336 0.506 0.336a0.05 0.05 0 0 0 0.029 -0.091m0 0" fill-opacity="1" fill-rule="nonzero"/><path fill="#000000" d="m27.237 11.34 -0.495 -0.339 0.495 -0.339a0.05 0.05 0 0 0 -0.019 -0.091 0.051 0.051 0 0 0 -0.038 0.008l-0.477 0.327v-0.58a0.05 0.05 0 0 0 -0.015 -0.035 0.05 0.05 0 0 0 -0.035 -0.015 0.05 0.05 0 0 0 -0.05 0.05l0 0.58 -0.478 -0.327a0.05 0.05 0 1 0 -0.057 0.083l0.495 0.339 -0.495 0.339a0.049 0.049 0 0 0 -0.019 0.025 0.049 0.049 0 0 0 0 0.031c0.003 0.01 0.009 0.019 0.018 0.025a0.051 0.051 0 0 0 0.03 0.01c0.022 0 -0.013 0.02 0.506 -0.336v0.579a0.05 0.05 0 0 0 0.05 0.05 0.05 0.05 0 0 0 0.036 -0.015 0.05 0.05 0 0 0 0.015 -0.036v-0.578c0.52 0.356 0.483 0.336 0.506 0.336a0.05 0.05 0 0 0 0.047 -0.035 0.05 0.05 0 0 0 -0.019 -0.056m0 0" fill-opacity="1" fill-rule="nonzero"/><path fill="#000000" d="m27.237 15.016 -0.495 -0.339 0.495 -0.339a0.05 0.05 0 0 0 0.013 -0.07 0.05 0.05 0 0 0 -0.07 -0.013l-0.478 0.327v-0.58a0.05 0.05 0 0 0 -0.015 -0.036 0.05 0.05 0 0 0 -0.036 -0.015 0.05 0.05 0 0 0 -0.05 0.05v0.579l-0.478 -0.327a0.051 0.051 0 0 0 -0.018 -0.008 0.051 0.051 0 0 0 -0.02 0 0.051 0.051 0 0 0 -0.032 0.021 0.046 0.046 0 0 0 -0.008 0.018 0.049 0.049 0 0 0 0.007 0.038q0.005 0.009 0.014 0.014l0.496 0.339 -0.496 0.339a0.05 0.05 0 0 0 -0.019 0.056c0.003 0.01 0.01 0.019 0.018 0.026a0.05 0.05 0 0 0 0.03 0.01c0.022 0 -0.013 0.02 0.506 -0.336v0.579c0 0.013 0.005 0.026 0.015 0.036 0.009 0.009 0.022 0.015 0.036 0.015a0.051 0.051 0 0 0 0.035 -0.015 0.051 0.051 0 0 0 0.015 -0.036v-0.579c0.52 0.356 0.483 0.336 0.506 0.336 0.01 0 0.021 -0.004 0.029 -0.01a0.049 0.049 0 0 0 0.018 -0.025 0.05 0.05 0 0 0 0 -0.031 0.049 0.049 0 0 0 -0.018 -0.025m0 0" fill-opacity="1" fill-rule="nonzero"/><path fill="#000000" d="m28.986 11.34 -0.495 -0.339 0.495 -0.339c0.005 -0.004 0.01 -0.009 0.014 -0.014a0.046 0.046 0 0 0 0.007 -0.018 0.051 0.051 0 0 0 0 -0.019 0.056 0.056 0 0 0 -0.008 -0.018 0.051 0.051 0 0 0 -0.014 -0.014 0.051 0.051 0 0 0 -0.018 -0.007 0.05 0.05 0 0 0 -0.038 0.008l-0.478 0.327v-0.58a0.051 0.051 0 0 0 -0.016 -0.034 0.05 0.05 0 0 0 -0.035 -0.014 0.05 0.05 0 0 0 -0.05 0.047v0.579l-0.478 -0.327a0.05 0.05 0 0 0 -0.038 -0.008 0.051 0.051 0 0 0 -0.018 0.007 0.051 0.051 0 0 0 -0.022 0.051c0.001 0.006 0.004 0.013 0.007 0.018 0.004 0.005 0.008 0.01 0.014 0.014l0.495 0.339 -0.495 0.339a0.05 0.05 0 0 0 0.028 0.092c0.022 0 -0.013 0.02 0.506 -0.336v0.579a0.05 0.05 0 0 0 0.016 0.034 0.049 0.049 0 0 0 0.035 0.014c0.013 0 0.025 -0.005 0.034 -0.014a0.05 0.05 0 0 0 0.016 -0.034v-0.578c0.52 0.356 0.483 0.336 0.506 0.336a0.05 0.05 0 0 0 0.049 -0.035 0.049 0.049 0 0 0 0 -0.032 0.051 0.051 0 0 0 -0.019 -0.025m0 0" fill-opacity="1" fill-rule="nonzero"/><path fill="#000000" d="m28.986 15.016 -0.495 -0.339 0.495 -0.339c0.005 -0.004 0.01 -0.009 0.014 -0.014a0.046 0.046 0 0 0 0.007 -0.018c0.001 -0.006 0.001 -0.013 0 -0.02a0.056 0.056 0 0 0 -0.008 -0.018 0.051 0.051 0 0 0 -0.052 -0.021 0.051 0.051 0 0 0 -0.018 0.008l-0.478 0.327v-0.58a0.051 0.051 0 0 0 -0.016 -0.034 0.05 0.05 0 0 0 -0.035 -0.014 0.05 0.05 0 0 0 -0.05 0.047v0.579l-0.478 -0.327a0.05 0.05 0 1 0 -0.057 0.083l0.495 0.339 -0.495 0.339a0.049 0.049 0 0 0 -0.019 0.025 0.051 0.051 0 0 0 0.018 0.057c0.009 0.006 0.019 0.01 0.03 0.01 0.022 0 -0.013 0.02 0.506 -0.336v0.579a0.051 0.051 0 0 0 0.05 0.048 0.051 0.051 0 0 0 0.05 -0.048v-0.579c0.52 0.356 0.483 0.336 0.506 0.336a0.051 0.051 0 0 0 0.047 -0.035 0.051 0.051 0 0 0 -0.018 -0.056m0 0" fill-opacity="1" fill-rule="nonzero"/><path fill="#000000" d="m30.736 11.34 -0.495 -0.339 0.495 -0.339a0.05 0.05 0 0 0 0.021 -0.032 0.051 0.051 0 0 0 -0.008 -0.038 0.051 0.051 0 0 0 -0.032 -0.021 0.051 0.051 0 0 0 -0.038 0.008l-0.478 0.327v-0.58a0.05 0.05 0 0 0 -0.086 -0.035 0.05 0.05 0 0 0 -0.015 0.035v0.579l-0.478 -0.327a0.05 0.05 0 0 0 -0.037 -0.008 0.05 0.05 0 0 0 -0.032 0.021 0.049 0.049 0 0 0 -0.008 0.038c0.002 0.013 0.01 0.025 0.021 0.032l0.496 0.339 -0.496 0.339c-0.009 0.006 -0.015 0.015 -0.019 0.025a0.048 0.048 0 0 0 0 0.031 0.05 0.05 0 0 0 0.048 0.035c0.022 0 -0.013 0.02 0.506 -0.336v0.579c0 0.013 0.005 0.026 0.015 0.036a0.051 0.051 0 0 0 0.036 0.015 0.051 0.051 0 0 0 0.036 -0.015 0.05 0.05 0 0 0 0.015 -0.036v-0.578c0.52 0.356 0.483 0.336 0.506 0.336a0.048 0.048 0 0 0 0.03 -0.01 0.05 0.05 0 0 0 0.018 -0.057 0.051 0.051 0 0 0 -0.019 -0.025m0 0" fill-opacity="1" fill-rule="nonzero"/><path fill="#000000" d="M30.75 15.404h-1.112a0.051 0.051 0 0 1 -0.034 -0.016 0.05 0.05 0 0 1 -0.014 -0.035c0 -0.013 0.005 -0.025 0.014 -0.034a0.051 0.051 0 0 1 0.034 -0.016h1.112a0.05 0.05 0 0 1 0.047 0.05 0.05 0.05 0 0 1 -0.047 0.05m0 0" fill-opacity="1" fill-rule="nonzero"/><path fill="#ffd997" d="M21.368 18.657c0.316 -0.41 0.444 -0.765 0.783 -0.711 0.343 0.055 0.704 0.638 0.41 1.355 -0.294 0.717 -0.356 0.678 -0.534 1.293a10.813 10.813 0 0 0 -0.276 1.411 10.111 10.111 0 0 1 1.127 1.532l1.914 0.015c0.656 1.452 -0.09 3.493 -0.09 3.493 0.176 1.75 0.17 1.722 0.18 1.751a7.064 7.064 0 0 1 -4.271 0.368s0.194 -1.144 0.206 -1.689c0.013 -0.545 -0.81 -2.817 -1.085 -3.427 -0.275 -0.61 -0.815 -1.519 -0.68 -2.292 0.135 -0.773 0.86 -1.781 0.86 -1.781s0.456 -0.725 0.753 -1.159c0.186 -0.266 0.42 -0.496 0.691 -0.675Zm0 0" fill-opacity="1" fill-rule="evenodd"/><path fill="#000000" d="M24.752 27.051c0.058 -0.165 0.717 -2.122 0.085 -3.52a0.049 0.049 0 0 0 -0.018 -0.021 0.051 0.051 0 0 0 -0.027 -0.008l-1.889 -0.015a10.382 10.382 0 0 0 -1.1 -1.498 10.659 10.659 0 0 1 0.272 -1.38c0.176 -0.61 0.237 -0.569 0.532 -1.289 0.304 -0.743 -0.069 -1.362 -0.449 -1.423 -0.339 -0.055 -0.49 0.257 -0.744 0.613l-0.009 -0.37a0.049 0.049 0 0 0 -0.007 -0.025 0.048 0.048 0 0 0 -0.019 -0.018 0.048 0.048 0 0 0 -0.026 -0.006c-0.009 0 -0.017 0.003 -0.025 0.007a2.608 2.608 0 0 0 -0.706 0.69c-0.295 0.429 -0.75 1.153 -0.753 1.158 -0.03 0.042 -0.733 1.027 -0.869 1.802 -0.116 0.66 0.242 1.401 0.53 1.996 0.44 0.911 1.247 3.205 1.234 3.73 -0.013 0.535 -0.204 1.67 -0.206 1.682 -0.001 0.013 0.002 0.026 0.01 0.036 0.008 0.01 0.019 0.017 0.032 0.019 0.013 0.002 0.026 -0.001 0.036 -0.008a0.05 0.05 0 0 0 0.021 -0.031c0.002 -0.011 0.194 -1.154 0.207 -1.696 0.013 -0.562 -0.829 -2.87 -1.09 -3.449 -0.286 -0.636 -0.808 -1.512 -0.676 -2.263 0.131 -0.75 0.844 -1.751 0.853 -1.763 0.005 -0.007 0.459 -0.729 0.752 -1.157a2.598 2.598 0 0 1 0.601 -0.61l0.01 0.407a4.474 4.474 0 0 0 -0.465 0.732c-0.19 0.353 -0.131 0.211 -0.307 0.563 -0.225 0.447 -0.315 0.631 -1.09 1.323a0.051 0.051 0 0 0 -0.016 0.034c-0.001 0.013 0.004 0.026 0.012 0.035a0.05 0.05 0 0 0 0.033 0.017 0.051 0.051 0 0 0 0.036 -0.011c0.25 -0.219 0.487 -0.452 0.71 -0.698a3.105 3.105 0 0 0 0.404 -0.655c0.175 -0.348 0.115 -0.205 0.306 -0.56a4.407 4.407 0 0 1 0.476 -0.744 0.51 0.51 0 0 0 0.149 0.275 0.51 0.51 0 0 0 0.281 0.136c0.295 0.031 0.582 -0.306 0.745 -0.555 0.153 0.657 -0.342 1.112 -0.613 2.048a10.966 10.966 0 0 0 -0.277 1.419 0.05 0.05 0 0 0 0.013 0.04c0.017 0.019 1.726 1.869 2.003 3.795q0.002 0.01 0.007 0.019c0.003 0.005 0.008 0.01 0.013 0.014a0.046 0.046 0 0 0 0.018 0.008 0.044 0.044 0 0 0 0.02 0.001c0.006 -0.001 0.013 -0.003 0.018 -0.006 0.006 -0.004 0.011 -0.008 0.015 -0.013a0.05 0.05 0 0 0 0.009 -0.037 6.359 6.359 0 0 0 -0.853 -2.232l1.795 0.014c0.616 1.414 -0.097 3.406 -0.105 3.426 -0.006 0.016 -0.004 0 0.173 1.773a0.049 0.049 0 0 0 0.018 0.034c0.01 0.008 0.023 0.013 0.037 0.011a0.051 0.051 0 0 0 0.034 -0.018 0.05 0.05 0 0 0 0.011 -0.037Zm-2.894 -8.063c-0.297 -0.032 -0.35 -0.344 -0.359 -0.423 0.242 -0.339 0.372 -0.613 0.644 -0.569a0.617 0.617 0 0 1 0.256 0.154 0.62 0.62 0 0 1 0.154 0.256c-0.064 0.106 -0.388 0.614 -0.695 0.582m0 0" fill-opacity="1" fill-rule="nonzero"/><path fill="#ffd997" d="M39.819 27.743c-0.535 1.533 -3.623 1.596 -3.623 1.596a3.961 3.961 0 0 0 -1.081 -0.7c-0.601 -0.243 -2.263 -1.288 -2.953 -2.028 -0.963 -1.032 -0.569 -1.374 -1.421 -3.165 -0.167 -0.35 -0.693 -1.469 -0.315 -1.781 0.378 -0.313 1.06 -0.353 1.912 1.627 0 0 -0.134 -0.881 -0.242 -1.382 -0.109 -0.5 -0.672 -1.485 -0.866 -2.16 -0.194 -0.676 -0.353 -0.818 -0.5 -1.313s-0.353 -1.512 -0.002 -1.941c0.351 -0.429 0.818 -0.187 1.014 0.403 0.197 0.589 0.416 1.492 0.705 1.853 0.513 0.638 0.733 1.589 1.049 1.957 0 0 0.587 -0.057 0.855 -0.092 0.268 -0.035 0.895 -0.195 1.332 0.261 0 0 0.715 0.214 0.933 0.543 0 0 0.276 0.054 0.576 0.628 0.299 0.575 2.038 5.078 2.627 5.694m0 0" fill-opacity="1" fill-rule="evenodd"/><path fill="#000000" d="M39.856 27.708c-0.58 -0.608 -2.317 -5.104 -2.618 -5.682 -0.263 -0.505 -0.515 -0.623 -0.589 -0.648 -0.222 -0.311 -0.838 -0.512 -0.937 -0.544 -0.408 -0.416 -0.968 -0.328 -1.271 -0.281 -0.197 0.031 -0.685 0.08 -0.921 0.103a2.808 2.808 0 0 1 -0.322 -0.6c-0.809 -1.948 -0.647 -0.69 -1.262 -2.711 -0.05 -0.164 -0.098 -0.322 -0.145 -0.462 -0.203 -0.607 -0.714 -0.892 -1.101 -0.419 -0.417 0.51 -0.079 1.745 -0.008 1.987 0.14 0.471 0.315 0.668 0.5 1.312 0.196 0.683 0.758 1.663 0.866 2.158 0.063 0.289 0.135 0.711 0.183 1.011 -0.415 -0.87 -0.832 -1.361 -1.241 -1.459a0.664 0.664 0 0 0 -0.316 0.004 0.671 0.671 0 0 0 -0.279 0.15c-0.277 0.229 -0.179 0.832 0.302 1.842 0.843 1.773 0.457 2.136 1.429 3.177 0.712 0.763 2.399 1.808 2.971 2.04a3.946 3.946 0 0 1 1.066 0.69 0.05 0.05 0 0 0 0.083 -0.038 0.051 0.051 0 0 0 -0.014 -0.035 3.966 3.966 0 0 0 -1.097 -0.71c-0.565 -0.229 -2.232 -1.262 -2.936 -2.015 -0.943 -1.01 -0.563 -1.368 -1.412 -3.152 -0.302 -0.634 -0.42 -1.045 -0.441 -1.31 0.136 0.248 0.377 0.585 0.647 0.505 0.408 -0.121 0.372 -0.555 0.206 -0.945 0.28 0.182 0.648 0.615 1.072 1.585a4.11 4.11 0 0 1 0.358 1.101c0.044 0.419 -0.028 0.577 -0.03 0.58a0.046 0.046 0 0 0 -0.005 0.019 0.051 0.051 0 0 0 0.002 0.02c0.002 0.006 0.005 0.012 0.009 0.017a0.051 0.051 0 0 0 0.016 0.012 0.046 0.046 0 0 0 0.019 0.006 0.051 0.051 0 0 0 0.02 -0.002 0.05 0.05 0 0 0 0.029 -0.025c0.004 -0.007 0.09 -0.178 0.041 -0.637a4.125 4.125 0 0 0 -0.34 -1.073c-0.013 -0.087 -0.139 -0.906 -0.242 -1.377a6.288 6.288 0 0 0 -0.411 -1.04c-0.615 -1.354 -0.372 -1.077 -0.749 -1.905a3.741 3.741 0 0 1 -0.207 -0.532c-0.188 -0.634 -0.305 -1.496 -0.027 -1.874 0.046 0.246 0.194 0.823 0.556 0.823 0.175 0 0.342 -0.114 0.41 -0.39 0.19 0.585 0.405 1.444 0.691 1.8 0.538 0.669 0.728 1.648 1.101 2.008 1.097 1.06 0.968 1.211 1.064 1.211a0.05 0.05 0 0 0 0.05 -0.048 0.051 0.051 0 0 0 -0.005 -0.025c-0.182 -0.361 -0.789 -0.968 -1.009 -1.181 0.259 -0.026 0.653 -0.066 0.846 -0.096 0.307 -0.048 0.819 -0.128 1.192 0.26 0.006 0.006 0.014 0.011 0.022 0.013 0.007 0.002 0.7 0.212 0.906 0.522 0.007 0.011 0.018 0.018 0.031 0.021 0.003 0 0.26 0.063 0.542 0.602 0.298 0.572 2.038 5.08 2.635 5.705 0.009 0.01 0.022 0.015 0.035 0.016a0.051 0.051 0 0 0 0.052 -0.049 0.051 0.051 0 0 0 -0.014 -0.036m-8.893 -5.184c-0.25 0.075 -0.52 -0.41 -0.61 -0.62a0.324 0.324 0 0 1 0.105 -0.2 0.559 0.559 0 0 1 0.281 -0.14 0.557 0.557 0 0 1 0.311 0.033c0.178 0.345 0.293 0.814 -0.087 0.927m0.346 -5.252c-0.292 0 -0.436 -0.566 -0.473 -0.818 0.302 -0.28 0.633 -0.056 0.806 0.327 -0.033 0.241 -0.082 0.491 -0.334 0.491m0 0" fill-opacity="1" fill-rule="nonzero"/><path fill="#000000" d="M17.41 26.618c-0.782 -0.744 -4.494 -4.817 -2.22 -10.836l0.65 0.216a0.051 0.051 0 0 0 0.021 0.002 0.051 0.051 0 0 0 0.02 -0.006c0.006 -0.004 0.011 -0.008 0.016 -0.014 0.004 -0.006 0.007 -0.012 0.009 -0.019l0.501 -2.176a0.051 0.051 0 0 0 -0.002 -0.029 0.051 0.051 0 0 0 -0.044 -0.033 0.051 0.051 0 0 0 -0.028 0.006 18.089 18.089 0 0 0 -2.289 1.544 0.05 0.05 0 0 0 -0.007 0.071c0.006 0.007 0.013 0.012 0.021 0.015l0.494 0.183c-1.457 4.654 -0.709 8.331 2.366 11.556 0.324 0.34 0.828 -0.162 0.493 -0.481m0 0" fill-opacity="1" fill-rule="nonzero"/><path fill="#000000" d="M41.846 12.363c-0.021 -0.035 -0.02 -0.025 -0.571 -0.018 -0.316 -4.867 -2.337 -8.028 -6.366 -9.929a0.349 0.349 0 0 0 -0.318 0.011 0.342 0.342 0 0 0 -0.179 0.318 0.342 0.342 0 0 0 0.062 0.179 0.338 0.338 0 0 0 0.148 0.119c0.991 0.427 5.927 2.876 5.971 9.31l-0.683 0.033a0.051 0.051 0 0 0 -0.036 0.018 0.051 0.051 0 0 0 -0.01 0.018 0.056 0.056 0 0 0 -0.001 0.021l0.316 2.211a0.05 0.05 0 0 0 0.036 0.041c0.009 0.003 0.019 0.003 0.029 0a0.049 0.049 0 0 0 0.024 -0.016 18.089 18.089 0 0 0 1.581 -2.265c0.004 -0.008 0.006 -0.016 0.006 -0.025a0.051 0.051 0 0 0 -0.007 -0.025m0 0" fill-opacity="1" fill-rule="nonzero"/><path fill="#ffffff" d="m24.84 4.004 -0.343 0.33a0.466 0.466 0 0 1 -0.255 -0.114 0.466 0.466 0 0 1 -0.144 -0.24l2.041 -2.094a0.584 0.584 0 0 1 0.27 0.116 0.581 0.581 0 0 1 0.179 0.233L25.76 3.083l0.248 0.283 -0.216 0.211 -0.271 -0.239 -0.148 0.163 0.417 0.478 -0.485 0.476Zm0 0" fill-opacity="1" fill-rule="evenodd"/><path fill="#000000" d="M26.634 2.214a0.632 0.632 0 0 0 -0.485 -0.378 0.048 0.048 0 0 0 -0.024 0.001 0.051 0.051 0 0 0 -0.021 0.013l-2.041 2.094a0.05 0.05 0 0 0 -0.012 0.049 0.514 0.514 0 0 0 0.159 0.264 0.515 0.515 0 0 0 0.281 0.127c0.034 0.005 0.023 0.005 0.35 -0.31l0.431 0.416c0.009 0.009 0.022 0.014 0.035 0.014 0.013 0 0.026 -0.005 0.035 -0.014l0.484 -0.476a0.05 0.05 0 0 0 0.015 -0.034 0.05 0.05 0 0 0 -0.012 -0.035l-0.387 -0.444 0.084 -0.093 0.234 0.207a0.05 0.05 0 0 0 0.034 0.012 0.049 0.049 0 0 0 0.034 -0.014l0.216 -0.211a0.05 0.05 0 0 0 0.015 -0.034 0.05 0.05 0 0 0 -0.012 -0.035l-0.217 -0.248 0.796 -0.816c0.007 -0.007 0.012 -0.016 0.014 -0.026a0.051 0.051 0 0 0 -0.004 -0.029M25.725 3.048a0.05 0.05 0 0 0 -0.002 0.068l0.216 0.246 -0.148 0.145 -0.236 -0.208a0.051 0.051 0 0 0 -0.036 -0.012 0.051 0.051 0 0 0 -0.034 0.016l-0.148 0.163a0.05 0.05 0 0 0 0 0.067l0.385 0.442 -0.416 0.408 -0.393 -0.38 0.296 -0.28a0.05 0.05 0 0 0 -0.033 -0.087 0.05 0.05 0 0 0 -0.036 0.014l-0.563 0.537a0.332 0.332 0 0 0 -0.103 -0.21 0.33 0.33 0 0 0 -0.217 -0.089l1.899 -1.949c0.08 0.015 0.155 0.049 0.22 0.098a0.52 0.52 0 0 1 0.152 0.186Zm0 0" fill-opacity="1" fill-rule="nonzero"/><path fill="#000000" d="M27.297 1.552c-0.037 0 0.025 0.067 -0.749 -1.012a0.05 0.05 0 0 1 -0.007 -0.037 0.05 0.05 0 0 1 0.057 -0.041c0.013 0.002 0.024 0.009 0.032 0.019l0.709 0.991c0.005 0.007 0.008 0.016 0.009 0.026a0.051 0.051 0 0 1 -0.006 0.027 0.051 0.051 0 0 1 -0.018 0.02 0.051 0.051 0 0 1 -0.026 0.007m0 0" fill-opacity="1" fill-rule="nonzero"/><path fill="#000000" d="M28.193 1.552a0.049 0.049 0 0 1 -0.027 -0.008 0.05 0.05 0 0 1 -0.018 -0.022 0.051 0.051 0 0 1 -0.004 -0.028c0.002 -0.009 0.006 -0.018 0.012 -0.026l1.041 -1.157a0.05 0.05 0 0 1 0.069 -0.002 0.05 0.05 0 0 1 0.016 0.034 0.05 0.05 0 0 1 -0.011 0.036c-1.066 1.186 -1.043 1.174 -1.079 1.174m0 0" fill-opacity="1" fill-rule="nonzero"/><g clip-path="url(#43e9abddfb)"><path fill="#000000" d="m27.695 1.13 -0.008 -1.074c0 -0.013 0.005 -0.026 0.015 -0.036a0.05 0.05 0 0 1 0.036 -0.015 0.05 0.05 0 0 1 0.05 0.05l0.007 1.074a0.05 0.05 0 0 1 -0.05 0.05 0.05 0.05 0 0 1 -0.05 -0.05m0 0" fill-opacity="1" fill-rule="nonzero"/></g><path fill="#ffffff" d="m28.976 2.31 1.111 0.922 -0.385 0.462 -1.056 -0.87Zm0 0" fill-opacity="1" fill-rule="evenodd"/><path fill="#000000" d="m30.095 3.174 -1.055 -0.875c-0.147 -0.198 -0.649 0.404 -0.454 0.565l1.037 0.86c-0.302 0.485 -0.355 0.972 -0.105 1.163 0.462 0.355 1.468 -0.542 1.628 -1.367 0.133 -0.686 -0.424 -0.875 -1.052 -0.347m0.587 0.488c-0.177 0.595 -1.017 1.202 -0.838 0.601 0.175 -0.592 1.016 -1.205 0.838 -0.601Zm-1.953 -0.81a0.748 0.748 0 0 0 0.325 -0.411l0.964 0.8a2.367 2.367 0 0 0 -0.341 0.398Zm0 0" fill-opacity="1" fill-rule="nonzero"/><path fill="#81f8f8" d="m40.321 20.445 -1.9 -1.993 -1.176 0.23 -0.989 -1.11 1.965 -1.768 1.022 1.136 -0.368 1.1 3.259 3.405c-0.018 0.316 -0.177 0.447 -0.437 0.443l-0.168 -0.176 -0.39 0.373 -0.337 -0.353 0.39 -0.373 -0.272 -0.285 -0.637 0.609 -0.601 -0.629Zm0 0" fill-opacity="1" fill-rule="evenodd"/><path fill="#000000" d="M37.255 18.38c-0.034 0 0.015 0.048 -0.657 -0.774a0.05 0.05 0 0 1 0.006 -0.069l1.045 -0.918a0.05 0.05 0 0 1 0.083 0.041c-0.001 0.013 -0.007 0.026 -0.016 0.034l-1.01 0.886 0.588 0.718c0.006 0.007 0.01 0.016 0.011 0.026 0.001 0.009 -0.001 0.019 -0.005 0.028a0.051 0.051 0 0 1 -0.019 0.021 0.05 0.05 0 0 1 -0.027 0.008m0 0" fill-opacity="1" fill-rule="nonzero"/><g clip-path="url(#a5d5e37361)"><path fill="#000000" d="m42.17 21.41 -3.238 -3.383c0.389 -1.162 0.376 -1.089 0.348 -1.12l-1.022 -1.136a0.044 0.044 0 0 0 -0.016 -0.012 0.049 0.049 0 0 0 -0.038 -0.002 0.046 0.046 0 0 0 -0.017 0.01l-1.965 1.767a0.051 0.051 0 0 0 -0.012 0.016 0.051 0.051 0 0 0 -0.005 0.019c0 0.007 0.001 0.013 0.003 0.019 0.003 0.006 0.006 0.012 0.01 0.017 1.065 1.197 0.994 1.134 1.036 1.126l1.149 -0.225 1.846 1.937 -0.601 0.575a0.046 0.046 0 0 0 -0.011 0.016 0.046 0.046 0 0 0 -0.004 0.019c0 0.007 0.001 0.013 0.003 0.019 0.002 0.006 0.006 0.012 0.01 0.017 0.655 0.684 0.606 0.644 0.636 0.644 0.029 0 -0.015 0.035 0.637 -0.588l0.202 0.212 -0.354 0.339c-0.005 0.004 -0.009 0.01 -0.011 0.016a0.05 0.05 0 0 0 -0.001 0.039c0.002 0.006 0.006 0.012 0.011 0.016 0.361 0.379 0.342 0.368 0.373 0.368 0.028 0 0.005 0.015 0.389 -0.352 0.151 0.159 0.137 0.155 0.181 0.155 0.293 0 0.457 -0.169 0.476 -0.49a0.049 0.049 0 0 0 -0.003 -0.021 0.046 0.046 0 0 0 -0.011 -0.017m-1.03 0.603 -0.267 -0.28 0.306 -0.293 0.267 0.28Zm-2.742 -3.608 -1.134 0.222 -0.936 -1.052 1.89 -1.7 0.969 1.077 -0.354 1.059Zm0.095 0.049 0.38 -0.344 0.149 0.156 -0.387 0.337Zm1.793 3.158 -0.531 -0.556 0.565 -0.54 0.531 0.557Zm1.433 0.225 -3.014 -3.161 0.387 -0.338 2.991 3.125c-0.02 0.252 -0.137 0.371 -0.364 0.374Zm0 0" fill-opacity="1" fill-rule="nonzero"/></g><path fill="#ffffff" d="m18.396 7.842 -0.646 -0.376s0.553 -1.103 0.634 -1.581c0.081 -0.479 -0.276 -0.696 -0.763 -0.838a0.521 0.521 0 0 0 -0.657 0.286l-0.508 1.071 -0.867 -0.362s0.637 -1.183 0.946 -1.505c0.846 -0.881 2.693 0.118 2.623 1.331 -0.043 0.74 -0.762 1.974 -0.762 1.974m0 0" fill-opacity="1" fill-rule="evenodd"/><path fill="#81f8f8" d="M15.091 6.584s1.62 -0.003 3.535 1.475l-1.171 2.54s-0.234 0.322 -0.839 0.259c-0.605 -0.063 -1.94 -0.58 -2.55 -1.126 -0.61 -0.547 1.024 -3.149 1.024 -3.149m0 0" fill-opacity="1" fill-rule="evenodd"/><path fill="#000000" d="M17.038 10.711a13.026 13.026 0 0 0 -2.94 -1.279 0.051 0.051 0 0 1 -0.029 -0.024 0.051 0.051 0 0 1 0.019 -0.067 0.051 0.051 0 0 1 0.037 -0.005 13.144 13.144 0 0 1 2.964 1.289c0.01 0.007 0.017 0.018 0.02 0.03a0.051 0.051 0 0 1 -0.034 0.059 0.05 0.05 0 0 1 -0.036 -0.003m0 0" fill-opacity="1" fill-rule="nonzero"/><path fill="#000000" d="M16.579 7.846a0.365 0.365 0 0 0 -0.24 -0.051 0.366 0.366 0 0 0 -0.219 0.112 0.366 0.366 0 0 0 -0.1 0.224 0.367 0.367 0 0 0 0.064 0.237l-0.294 0.693q-0.004 0.009 -0.004 0.019 0 0.01 0.004 0.019a0.049 0.049 0 0 0 0.011 0.016c0.005 0.005 0.01 0.009 0.016 0.011a1.537 1.537 0 0 0 0.282 0.116c0.01 0 0.019 -0.003 0.028 -0.008 0.008 -0.006 0.015 -0.013 0.018 -0.022l0.293 -0.689a0.367 0.367 0 0 0 0.2 -0.096 0.366 0.366 0 0 0 0.108 -0.193 0.367 0.367 0 0 0 -0.022 -0.22 0.366 0.366 0 0 0 -0.145 -0.168m0 0" fill-opacity="1" fill-rule="nonzero"/><path fill="#000000" d="M16.499 4.502c-0.31 0.324 -0.928 1.467 -0.954 1.516 -0.125 0.233 0.844 0.671 0.955 0.408l0.512 -1.075a0.466 0.466 0 0 1 0.246 -0.249 0.465 0.465 0 0 1 0.35 -0.008c0.575 0.168 0.792 0.401 0.728 0.781 -0.069 0.41 -0.501 1.305 -0.606 1.52 -1.481 -0.852 -2.622 -0.863 -2.638 -0.863a0.051 0.051 0 0 0 -0.024 0.006c-0.007 0.004 -0.014 0.01 -0.018 0.017 -0.067 0.108 -1.648 2.645 -1.015 3.213 0.636 0.571 1.981 1.076 2.577 1.139 0.46 0.048 0.781 -0.128 0.889 -0.288l1.171 -2.54a0.05 0.05 0 0 0 0.003 -0.034 0.049 0.049 0 0 0 -0.019 -0.028 11.991 11.991 0 0 0 -0.213 -0.159c0.066 -0.114 0.722 -1.267 0.764 -1.988 0.074 -1.263 -1.832 -2.281 -2.708 -1.369m2.065 3.572 -1.149 2.495c-0.009 0.012 -0.228 0.298 -0.793 0.239 -0.57 -0.059 -1.908 -0.565 -2.521 -1.114 -0.469 -0.42 0.562 -2.327 1.018 -3.06 0.219 0.009 1.715 0.117 3.446 1.44Zm0.544 -2.209c-0.039 0.675 -0.664 1.791 -0.746 1.936a8.455 8.455 0 0 0 -0.546 -0.354c0.102 -0.208 0.545 -1.12 0.618 -1.554 0.095 -0.559 -0.377 -0.772 -0.799 -0.895a0.575 0.575 0 0 0 -0.715 0.314l-0.456 0.961a1.153 1.153 0 0 0 -0.758 -0.336c0.175 -0.316 0.626 -1.113 0.867 -1.364 0.806 -0.839 2.605 0.114 2.536 1.293m0 0" fill-opacity="1" fill-rule="nonzero"/></svg>