<svg xmlns="http://www.w3.org/2000/svg" xmlns:xlink="http://www.w3.org/1999/xlink" width="50" zoomAndPan="magnify" viewBox="0 0 37.5 21.083" height="28.111" preserveAspectRatio="xMidYMid meet" version="1.0"><defs><clipPath id="d7ec988435"><path d="M3.551 0.073h30.41v20.937H3.551Zm0 0" clip-rule="nonzero"/></clipPath></defs><path fill="#000000" d="M19.044 12.419c-0.191 0 -0.379 -0.03 -0.567 -0.091l-8.688 -2.896c-0.157 0.409 -0.236 0.936 -0.236 1.706 0.567 0.328 1.119 0.988 1.119 2.125 0 0.697 -0.349 1.198 -0.648 1.531 1.289 1.495 4.835 2.57 9.02 2.57 5.273 0 9.547 -1.706 9.547 -3.807V9.336l-8.983 2.993a1.794 1.794 0 0 1 -0.564 0.091m0 0" fill-opacity="1" fill-rule="nonzero"/><g clip-path="url(#d7ec988435)"><path fill="#000000" d="M33.552 4.906 19.232 0.134c-0.124 -0.041 -0.254 -0.041 -0.377 0L4.535 4.906c-0.243 0.081 -0.408 0.309 -0.408 0.565 0 0.257 0.165 0.484 0.408 0.566l3.283 1.094c-0.755 0.876 -1.195 2.11 -1.356 4.119 -0.519 0.245 -0.886 0.766 -0.886 1.379 0 0.624 0.375 1.155 0.909 1.395 -0.467 4.062 -2.9 5.416 -2.9 5.763 0 0.177 1.884 1.193 2.332 1.193 0.692 0 2.353 -1.174 2.353 -3.709 0 -1.494 -0.135 -2.622 -0.277 -3.423 0.383 -0.278 0.649 -0.709 0.649 -1.219 0 -0.557 -0.311 -1.022 -0.757 -1.291 0.252 -3.315 1.277 -3.87 3.757 -4.898 0.248 -0.098 0.717 -0.288 0.988 -0.4a158.675 158.675 0 0 1 1.35 -0.549c1.364 -0.542 2.517 -0.977 3.396 -1.3 0.963 -0.344 1.395 -0.469 1.411 -0.474 0.369 -0.124 0.779 0.075 0.906 0.451 0.125 0.375 -0.075 0.78 -0.451 0.907 -0.029 0.01 -1.704 0.488 -6.063 2.289 -0.281 0.116 -0.548 0.221 -0.802 0.321 -0.517 0.204 -0.945 0.367 -1.304 0.532l7.782 2.592c0.062 0.019 0.124 0.03 0.189 0.03s0.127 -0.011 0.189 -0.031l14.32 -4.772c0.244 -0.081 0.408 -0.309 0.408 -0.566s-0.165 -0.484 -0.408 -0.565m0 0" fill-opacity="1" fill-rule="nonzero"/></g></svg>