<svg height="50" viewBox="0 0 50 50" width="50" xmlns="http://www.w3.org/2000/svg"><g id="E-learning_completed_course"><path d="M26.575 46.15a2.494 2.494 0 0 1 2.494 -2.493h19.439V23.143a0.993 0.993 0 0 0 -0.993 -0.993H30.08a3.504 3.504 0 0 0 -3.504 3.504z" fill="#ff2e6e"/><path d="M47.515 22.15h-12.819l0.301 2.779c1.965 5.421 7.541 9.376 13.512 9.613v-11.4a0.993 0.993 0 0 0 -0.993 -0.992" fill="#d3224c"/><path d="M46.867 47.916a2.495 2.495 0 0 1 1.641 -4.255v-0.003H29.07a2.494 2.494 0 1 0 0 4.989h19.439v-0.003a2.483 2.483 0 0 1 -1.641 -0.727" fill="#f9b323"/><path d="M48.508 43.657v4.981a2.494 2.494 0 0 1 0 -4.981" fill="#fdf0c3"/><path d="M48.508 43.657v4.981a2.494 2.494 0 0 1 0 -4.981" fill="#fdf0c3"/><path d="M48.532 44.145a0.486 0.486 0 0 0 0.448 -0.369c0.003 -0.012 0.007 -0.024 0.009 -0.036 0.002 -0.013 0.008 -0.068 0.008 -0.083V23.143a1.483 1.483 0 0 0 -1.481 -1.481H30.08a3.997 3.997 0 0 0 -3.993 3.993v20.497l0 0v0a2.981 2.981 0 0 0 2.982 2.982h19.439v-0.007a0.488 0.488 0 0 0 0.488 -0.488v-2.321a0.488 0.488 0 0 0 -0.977 0v1.741a2.006 2.006 0 0 1 0.512 -3.914zM30.08 22.638h17.436a0.505 0.505 0 0 1 0.505 0.505v20.026H29.07a2.971 2.971 0 0 0 -2.006 0.777V25.654a3.02 3.02 0 0 1 3.016 -3.016M27.651 47.57a1.992 1.992 0 0 1 -0.472 -0.754h12.869a0.498 0.498 0 1 0 0 -0.996H27.094a2.007 2.007 0 0 1 1.976 -1.674H46.42a2.985 2.985 0 0 0 0.008 4.012H29.07a1.992 1.992 0 0 1 -1.419 -0.587"/><path d="M15.034 36.575a2.494 2.494 0 0 1 2.494 -2.493h19.439V13.568a0.993 0.993 0 0 0 -0.993 -0.993H18.538a3.504 3.504 0 0 0 -3.504 3.504z" fill="#3d83df"/><path d="M35.974 12.576h-12.819v2.779h0.301c1.965 5.421 7.541 9.376 13.512 9.613v-11.4a0.993 0.993 0 0 0 -0.993 -0.992" fill="#3449b8"/><path fill="#3d83df" height="57.305" rx="5.542" width="33.087" x="312.444" y="157.238" d="M31.053 15.355H33.202A0.541 0.541 0 0 1 33.743 15.896V20.41A0.541 0.541 0 0 1 33.202 20.951H31.053A0.541 0.541 0 0 1 30.512 20.41V15.896A0.541 0.541 0 0 1 31.053 15.355z"/><path d="M36.967 34.083H17.528a2.494 2.494 0 1 0 0 4.988h19.439z" fill="#f9b323"/><path d="M36.967 39.068a2.494 2.494 0 0 1 0 -4.982z" fill="#f9b323"/><path d="M36.967 34.083v4.981a2.494 2.494 0 0 1 0 -4.981" fill="#fdf0c3"/><path fill="#a3dcf2" height="57.305" rx="5.542" width="105.189" x="189.347" y="157.238" d="M19.032 15.355H28.222A0.541 0.541 0 0 1 28.763 15.896V20.41A0.541 0.541 0 0 1 28.222 20.951H19.032A0.541 0.541 0 0 1 18.491 20.41V15.896A0.541 0.541 0 0 1 19.032 15.355z"/><path d="M28.763 15.897v4.514a0.541 0.541 0 0 1 -0.541 0.541h-0.947c-1.704 -1.543 -3.043 -3.455 -3.819 -5.596h4.766a0.541 0.541 0 0 1 0.541 0.541" fill="#3d83df"/><path d="M19.122 21.363h9.01a1.02 1.02 0 0 0 1.019 -1.019V15.919a1.02 1.02 0 0 0 -1.019 -1.019h-1.269a0.488 0.488 0 0 0 0 0.977h1.269a0.042 0.042 0 0 1 0.042 0.042v4.426a0.042 0.042 0 0 1 -0.042 0.042H19.122a0.042 0.042 0 0 1 -0.042 -0.042v-4.426a0.042 0.042 0 0 1 0.042 -0.042h5.882a0.488 0.488 0 0 0 0 -0.977h-5.882a1.02 1.02 0 0 0 -1.019 1.019v4.426a1.02 1.02 0 0 0 1.019 1.019"/><path d="M31.113 21.363h2.107a1.02 1.02 0 0 0 1.019 -1.019v-4.426a1.02 1.02 0 0 0 -1.019 -1.019h-2.107a1.02 1.02 0 0 0 -1.019 1.019v4.426a1.02 1.02 0 0 0 1.019 1.019m-0.042 -5.444a0.043 0.043 0 0 1 0.042 -0.042h2.107a0.042 0.042 0 0 1 0.042 0.042v4.425a0.042 0.042 0 0 1 -0.042 0.042h-2.107a0.042 0.042 0 0 1 -0.042 -0.042z"/><path d="M36.991 34.571a0.49 0.49 0 0 0 0.464 -0.448c0.001 -0.013 0.001 -0.026 0.001 -0.04V13.568a1.483 1.483 0 0 0 -1.481 -1.481H18.538a3.997 3.997 0 0 0 -3.993 3.993V36.562c0 0.005 0 0.01 0 0.016a2.982 2.982 0 0 0 2.983 2.982s19.306 -0.013 19.415 -0.008q0.012 0 0.023 0a0.488 0.488 0 0 0 0.488 -0.488v-2.321a0.488 0.488 0 0 0 -0.977 0v1.741a2.006 2.006 0 0 1 0.512 -3.914zm-18.452 -21.507h17.436a0.505 0.505 0 0 1 0.505 0.505V33.595h-18.95a2.973 2.973 0 0 0 -2.006 0.777V16.08a3.02 3.02 0 0 1 3.016 -3.016zm-2.429 24.932a2.002 2.002 0 0 1 -0.473 -0.754H28.555a0.498 0.498 0 1 0 0 -0.996H15.551a2.008 2.008 0 0 1 1.977 -1.674h17.35a2.984 2.984 0 0 0 0.008 4.012H17.529a1.997 1.997 0 0 1 -1.419 -0.587"/><path d="M1.491 27.679a2.494 2.494 0 0 1 2.494 -2.492h19.439V4.672a0.993 0.993 0 0 0 -0.993 -0.993H4.996a3.504 3.504 0 0 0 -3.504 3.504z" fill="#fadf7d"/><path d="M23.424 4.672v11.4A14.084 14.084 0 0 1 10.01 3.679h12.422a0.993 0.993 0 0 1 0.993 0.993" fill="#f9b323"/><path d="M21.783 29.445a2.495 2.495 0 0 1 1.641 -4.255v-0.003H3.985a2.494 2.494 0 1 0 0 4.988h19.439v-0.003a2.483 2.483 0 0 1 -1.641 -0.727" fill="#f9b323"/><path d="M23.424 25.187v4.981a2.494 2.494 0 0 1 0 -4.981" fill="#fdf0c3"/><path fill="#fff" height="57.305" rx="5.542" width="105.189" x="45.565" y="116.568" d="M4.991 11.384H14.181A0.541 0.541 0 0 1 14.722 11.925V16.439A0.541 0.541 0 0 1 14.181 16.98H4.991A0.541 0.541 0 0 1 4.45 16.439V11.925A0.541 0.541 0 0 1 4.991 11.384z"/><path d="M5.081 17.432h9.01a1.02 1.02 0 0 0 1.019 -1.019v-4.426a1.02 1.02 0 0 0 -1.019 -1.019h-1.269a0.488 0.488 0 1 0 0 0.977h1.269a0.042 0.042 0 0 1 0.042 0.042v4.426a0.042 0.042 0 0 1 -0.042 0.042H5.081a0.042 0.042 0 0 1 -0.042 -0.042v-4.426a0.042 0.042 0 0 1 0.042 -0.042h5.882a0.488 0.488 0 0 0 0 -0.977H5.081a1.02 1.02 0 0 0 -1.019 1.019v4.426a1.02 1.02 0 0 0 1.019 1.019"/><path fill="#fff" height="57.305" rx="5.542" width="33.087" x="169.055" y="116.568" d="M17.05 11.384H19.199A0.541 0.541 0 0 1 19.74 11.925V16.439A0.541 0.541 0 0 1 19.199 16.98H17.05A0.541 0.541 0 0 1 16.509 16.439V11.925A0.541 0.541 0 0 1 17.05 11.384z"/><path d="M19.741 11.925v3.504a13.936 13.936 0 0 1 -3.231 -1.498v-2.006a0.541 0.541 0 0 1 0.541 -0.541h2.149a0.541 0.541 0 0 1 0.541 0.541" fill="#fadf7d"/><path d="M17.071 17.432h2.107a1.02 1.02 0 0 0 1.019 -1.019v-4.426a1.02 1.02 0 0 0 -1.019 -1.019h-2.107a1.02 1.02 0 0 0 -1.019 1.019v4.426a1.02 1.02 0 0 0 1.019 1.019m-0.042 -5.445a0.043 0.043 0 0 1 0.042 -0.042h2.107a0.042 0.042 0 0 1 0.042 0.042v4.426a0.042 0.042 0 0 1 -0.042 0.042h-2.107a0.042 0.042 0 0 1 -0.042 -0.042z"/><path d="M20.103 21.444h-6.724a0.498 0.498 0 1 1 0 -0.996h6.724a0.498 0.498 0 0 1 0 0.996"/><path d="M20.103 19.615h-6.724a0.498 0.498 0 0 1 0 -0.996h6.724a0.498 0.498 0 0 1 0 0.996"/><path d="M23.424 27.36a0.488 0.488 0 0 0 -0.488 0.488v1.739a2.005 2.005 0 0 1 0.512 -3.912 0.487 0.487 0 0 0 0.463 -0.474l0.001 0a0.098 0.098 0 0 0 0.001 -0.015V4.672a1.482 1.482 0 0 0 -1.481 -1.48H4.995a3.997 3.997 0 0 0 -3.992 3.992v20.497A2.981 2.981 0 0 0 3.986 30.664h19.433v-0.008c0.002 0 0.004 0.001 0.006 0.001a0.488 0.488 0 0 0 0.488 -0.488v-2.32a0.488 0.488 0 0 0 -0.488 -0.488M4.995 4.168h17.436a0.505 0.505 0 0 1 0.505 0.504v20.026H3.986a2.971 2.971 0 0 0 -2.006 0.777V7.184a3.019 3.019 0 0 1 3.016 -3.016m-2.429 24.933a2.002 2.002 0 0 1 -0.472 -0.755h12.918a0.498 0.498 0 1 0 0 -0.996H2.009a2.008 2.008 0 0 1 1.976 -1.675h17.35a2.984 2.984 0 0 0 0.008 4.013H3.986a1.997 1.997 0 0 1 -1.419 -0.587z"/><path d="M7.57 2.512a0.584 0.584 0 0 1 0.584 0.584v4.824a0.379 0.379 0 0 1 -0.683 0.228l-0.568 -0.757a0.613 0.613 0 0 0 -0.968 -0.015l-0.672 0.838a0.38 0.38 0 0 1 -0.676 -0.237V3.096a0.584 0.584 0 0 1 0.584 -0.584z" fill="#ff2e6e"/><path d="M4.972 8.846a0.879 0.879 0 0 1 -0.293 -0.051 0.857 0.857 0 0 1 -0.579 -0.818V3.096a1.074 1.074 0 0 1 1.072 -1.072h2.398a1.074 1.074 0 0 1 1.072 1.072v4.824a0.868 0.868 0 0 1 -1.561 0.521l-0.568 -0.757a0.121 0.121 0 0 0 -0.098 -0.049 0.127 0.127 0 0 0 -0.099 0.046l-0.672 0.838a0.859 0.859 0 0 1 -0.672 0.326m0.2 -5.846a0.096 0.096 0 0 0 -0.096 0.096v4.571l0.478 -0.597a1.101 1.101 0 0 1 1.739 0.027l0.372 0.496V3.096a0.096 0.096 0 0 0 -0.096 -0.096z"/><path cx="231.009" cy="45.372" fill="#60c3e8" r="27.681" d="M25.263 4.431A2.703 2.703 0 0 1 22.559 7.134A2.703 2.703 0 0 1 19.856 4.431A2.703 2.703 0 0 1 25.263 4.431z"/><path d="M22.559 7.622a3.192 3.192 0 1 1 3.192 -3.192 3.195 3.195 0 0 1 -3.192 3.191m0 -5.407a2.215 2.215 0 1 0 2.215 2.215 2.217 2.217 0 0 0 -2.215 -2.215z"/><path d="M22.642 5.297a0.498 0.498 0 0 1 -0.357 -0.151l-0.981 -1.01a0.498 0.498 0 0 1 0.715 -0.694l0.614 0.632 2.806 -3.048a0.498 0.498 0 0 1 0.733 0.675L23.008 5.137a0.498 0.498 0 0 1 -0.36 0.161z"/></g></svg>