<svg xmlns="http://www.w3.org/2000/svg" xmlns:xlink="http://www.w3.org/1999/xlink" width="50" zoomAndPan="magnify" viewBox="0 0 37.5 21.083" height="28.111" preserveAspectRatio="xMidYMid meet" version="1.0"><defs><clipPath id="059422d873"><path d="M22.218 10.908h11.543v7.76H22.218Zm0 0" clip-rule="nonzero"/></clipPath><clipPath id="c1600cc875"><path d="M3.715 10.908H15.264v7.76H3.715Zm0 0" clip-rule="nonzero"/></clipPath><clipPath id="0f5a95d2cd"><path d="M10.102 11.933h17.277v9.146H10.102Zm0 0" clip-rule="nonzero"/></clipPath><clipPath id="bef3403cd9"><path d="M13.25 0.005h10.981V10.981H13.25Zm0 0" clip-rule="nonzero"/></clipPath></defs><path fill="#ffffff" d="M27.303 18.448h6.253c-0.745 -5.757 -3.622 -7.319 -7.059 -7.319 -1.501 0 -2.894 0.298 -4.051 1.112 2.418 0.957 4.025 3.013 4.857 6.207" fill-opacity="1" fill-rule="nonzero"/><g clip-path="url(#059422d873)"><path fill="#231f20" d="M27.303 18.448v0.201h6.253c0.058 0 0.112 -0.024 0.151 -0.068a0.199 0.199 0 0 0 0.048 -0.158c-0.188 -1.455 -0.511 -2.651 -0.95 -3.629 -0.656 -1.467 -1.576 -2.444 -2.664 -3.042 -1.087 -0.6 -2.333 -0.823 -3.644 -0.823 -0.763 0 -1.504 0.076 -2.205 0.258 -0.701 0.181 -1.362 0.469 -1.961 0.891a0.201 0.201 0 0 0 -0.084 0.188 0.201 0.201 0 0 0 0.126 0.163c1.177 0.466 2.151 1.195 2.938 2.202 0.787 1.006 1.387 2.292 1.798 3.869a0.201 0.201 0 0 0 0.194 0.15zl0.195 -0.051c-0.421 -1.617 -1.041 -2.956 -1.87 -4.015 -0.829 -1.06 -1.867 -1.837 -3.107 -2.328l-0.074 0.187 0.116 0.165c0.556 -0.392 1.17 -0.66 1.831 -0.831 0.66 -0.171 1.367 -0.245 2.104 -0.245 0.844 0 1.648 0.096 2.389 0.325 1.111 0.345 2.08 0.982 2.852 2.064 0.771 1.082 1.342 2.618 1.619 4.755l0.199 -0.026v-0.201H27.303zl0.195 -0.051z" fill-opacity="1" fill-rule="nonzero"/></g><path fill="#ffffff" d="M26.497 1.142c-1.11 0 -2.12 0.412 -2.896 1.087 0.635 0.931 1.007 2.055 1.007 3.264 0 1.246 -0.398 2.398 -1.068 3.344 0.784 0.708 1.819 1.142 2.958 1.142 2.439 0 4.418 -1.979 4.418 -4.418 0 -2.441 -1.979 -4.419 -4.418 -4.419" fill-opacity="1" fill-rule="nonzero"/><path fill="#231f20" d="M26.497 1.142v-0.201c-1.16 0 -2.218 0.431 -3.028 1.137 -0.077 0.067 -0.091 0.181 -0.034 0.265 0.614 0.899 0.972 1.982 0.972 3.15 0 1.203 -0.384 2.313 -1.032 3.228a0.201 0.201 0 0 0 0.029 0.265c0.818 0.74 1.902 1.194 3.092 1.194 2.55 0 4.619 -2.069 4.619 -4.619 0 -2.552 -2.069 -4.62 -4.619 -4.62v0.402c1.165 0 2.218 0.472 2.982 1.236 0.764 0.764 1.236 1.817 1.236 2.983 0 1.165 -0.472 2.218 -1.236 2.982 -0.764 0.764 -1.817 1.235 -2.982 1.236 -1.087 0 -2.074 -0.414 -2.823 -1.091l-0.135 0.149 0.164 0.116c0.693 -0.978 1.105 -2.172 1.105 -3.461 0 -1.251 -0.385 -2.415 -1.042 -3.377l-0.166 0.113 0.132 0.152c0.742 -0.645 1.705 -1.038 2.765 -1.038z" fill-opacity="1" fill-rule="nonzero"/><path fill="#ffffff" d="M10.174 18.448H3.921c0.745 -5.757 3.621 -7.319 7.059 -7.319 1.5 0 2.894 0.298 4.051 1.112 -2.418 0.957 -4.025 3.013 -4.857 6.207" fill-opacity="1" fill-rule="nonzero"/><g clip-path="url(#c1600cc875)"><path fill="#231f20" d="M10.174 18.448v-0.201H3.921v0.201l0.199 0.026c0.184 -1.424 0.5 -2.583 0.918 -3.516 0.628 -1.401 1.482 -2.297 2.491 -2.855 1.009 -0.557 2.184 -0.773 3.451 -0.773 0.737 0 1.444 0.073 2.104 0.245 0.66 0.171 1.275 0.439 1.831 0.831l0.115 -0.165 -0.074 -0.187c-1.241 0.491 -2.279 1.268 -3.107 2.328 -0.829 1.059 -1.449 2.398 -1.87 4.015zv-0.201zl0.194 0.051c0.411 -1.577 1.011 -2.863 1.798 -3.869 0.788 -1.006 1.762 -1.735 2.939 -2.202a0.202 0.202 0 0 0 0.126 -0.163 0.202 0.202 0 0 0 -0.084 -0.188c-0.6 -0.422 -1.261 -0.71 -1.962 -0.891 -0.701 -0.182 -1.441 -0.258 -2.205 -0.258 -0.875 0 -1.719 0.099 -2.508 0.343 -1.183 0.365 -2.24 1.061 -3.06 2.215 -0.821 1.153 -1.408 2.756 -1.69 4.937a0.199 0.199 0 0 0 0.048 0.158 0.199 0.199 0 0 0 0.151 0.068h6.253c0.092 0 0.171 -0.062 0.194 -0.15z" fill-opacity="1" fill-rule="nonzero"/></g><path fill="#ffffff" d="M10.98 1.142c1.11 0 2.12 0.412 2.896 1.087 -0.635 0.931 -1.007 2.055 -1.007 3.264 0 1.246 0.398 2.398 1.069 3.344 -0.783 0.708 -1.819 1.142 -2.957 1.142 -2.44 0 -4.419 -1.979 -4.419 -4.418 0 -2.441 1.979 -4.419 4.419 -4.419" fill-opacity="1" fill-rule="nonzero"/><path fill="#231f20" d="M10.98 1.142v0.201c1.059 0 2.022 0.393 2.764 1.038l0.132 -0.152 -0.166 -0.113c-0.657 0.962 -1.042 2.126 -1.042 3.377 0 1.289 0.412 2.482 1.105 3.461l0.164 -0.116 -0.135 -0.149c-0.749 0.676 -1.735 1.09 -2.823 1.091 -1.165 0 -2.218 -0.472 -2.982 -1.236 -0.764 -0.764 -1.236 -1.817 -1.236 -2.982 0 -1.166 0.472 -2.219 1.236 -2.983 0.764 -0.764 1.817 -1.236 2.982 -1.236V0.941c-2.551 0 -4.619 2.069 -4.62 4.62 0 2.551 2.069 4.619 4.62 4.619 1.19 0 2.274 -0.455 3.092 -1.194a0.201 0.201 0 0 0 0.029 -0.265c-0.648 -0.915 -1.032 -2.025 -1.032 -3.228 0 -1.168 0.359 -2.252 0.972 -3.15a0.201 0.201 0 0 0 -0.034 -0.265c-0.81 -0.705 -1.868 -1.137 -3.028 -1.137z" fill-opacity="1" fill-rule="nonzero"/><path fill="#ffffff" d="M27.164 20.875c-0.889 -6.872 -4.323 -8.736 -8.425 -8.736 -4.103 0 -7.537 1.864 -8.426 8.736z" fill-opacity="1" fill-rule="nonzero"/><g clip-path="url(#0f5a95d2cd)"><path fill="#231f20" d="m27.164 20.875 0.199 -0.026c-0.224 -1.733 -0.61 -3.157 -1.13 -4.32 -0.78 -1.745 -1.872 -2.903 -3.163 -3.613 -1.291 -0.712 -2.771 -0.977 -4.331 -0.977 -1.041 0 -2.045 0.118 -2.982 0.408 -1.405 0.433 -2.659 1.259 -3.633 2.629 -0.975 1.37 -1.674 3.275 -2.01 5.875a0.201 0.201 0 0 0 0.048 0.159 0.201 0.201 0 0 0 0.151 0.068h16.851a0.201 0.201 0 0 0 0.151 -0.068 0.201 0.201 0 0 0 0.048 -0.159zv-0.201H10.313v0.201l0.199 0.025c0.221 -1.703 0.598 -3.089 1.099 -4.207 0.753 -1.679 1.778 -2.757 2.99 -3.426 1.212 -0.669 2.621 -0.927 4.138 -0.927 1.01 0 1.974 0.115 2.863 0.389 1.333 0.413 2.498 1.179 3.424 2.478 0.925 1.299 1.609 3.138 1.94 5.693zv-0.201z" fill-opacity="1" fill-rule="nonzero"/></g><path fill="#ffffff" d="M24.012 5.493c0 2.913 -2.361 5.274 -5.273 5.274 -2.913 0 -5.274 -2.361 -5.274 -5.274 0 -2.913 2.361 -5.274 5.274 -5.274C21.65 0.219 24.012 2.58 24.012 5.493" fill-opacity="1" fill-rule="nonzero"/><g clip-path="url(#bef3403cd9)"><path fill="#231f20" d="M24.012 5.493h-0.201c0 1.402 -0.568 2.669 -1.486 3.587 -0.919 0.918 -2.186 1.486 -3.587 1.486 -1.402 0 -2.668 -0.568 -3.587 -1.486 -0.918 -0.919 -1.486 -2.186 -1.486 -3.587 0 -1.402 0.567 -2.669 1.486 -3.588 0.919 -0.918 2.185 -1.485 3.587 -1.486 1.401 0 2.668 0.567 3.587 1.486 0.918 0.919 1.486 2.185 1.486 3.587h0.402C24.213 2.469 21.761 0.018 18.738 0.018c-3.024 0 -5.475 2.451 -5.475 5.475 0 3.024 2.451 5.475 5.475 5.475 3.023 0 5.474 -2.451 5.474 -5.475z" fill-opacity="1" fill-rule="nonzero"/></g></svg>