<svg version="1.1" id="Capa_1" xmlns="http://www.w3.org/2000/svg" xmlns:xlink="http://www.w3.org/1999/xlink" x="0px" y="0px" viewBox="0 0 50 50" style="enable-background:new 0 0 460.8 460.8;" xml:space="preserve" width="50" height="50"><path style="fill:#FF4743;" d="M25.516 0.595c-7.421 0 -14.008 3.254 -18.492 8.413 -1.349 1.587 -2.54 3.333 -3.452 5.198l8.214 6.27c0.952 -2.897 2.778 -5.357 5.198 -7.143 2.381 -1.746 5.317 -2.778 8.532 -2.778 3.452 0 6.548 1.23 9.008 3.214l7.103 -7.103C37.302 2.897 31.746 0.595 25.516 0.595"/><path style="fill:#E3443A;" d="M7.024 12.659c-0.714 0.833 -1.389 1.746 -1.984 2.659l6.786 5.159c0.952 -2.897 2.778 -5.357 5.198 -7.143 2.381 -1.746 5.317 -2.778 8.532 -2.778 3.452 0 6.548 1.23 9.008 3.214l5.04 -5.04C35.635 5.913 30.833 4.246 25.556 4.246c-7.46 0 -14.048 3.254 -18.532 8.413"/><g><path style="fill:#F7B92B;" d="M11.071 25c0 -0.238 0 -0.437 0.04 -0.675 0.079 -1.349 0.317 -2.659 0.714 -3.849L3.611 14.206c-1.508 3.056 -2.381 6.508 -2.5 10.159v1.349c0.079 3.651 0.992 7.063 2.5 10.119l8.214 -6.31c-0.397 -1.23 -0.635 -2.5 -0.714 -3.849 -0.04 -0.238 -0.04 -0.437 -0.04 -0.675"/><path style="fill:#F7B92B;" d="m3.571 35.794 8.214 -6.31c-0.397 -1.23 -0.635 -2.5 -0.714 -3.849 0 -0.238 -0.04 -0.437 -0.04 -0.675s0 -0.437 0.04 -0.675c0.079 -1.349 0.317 -2.659 0.714 -3.849L3.571 14.167"/></g><path style="fill:#59C96E;" d="M33.651 37.302c-2.222 1.389 -5 2.143 -8.135 2.143 -1.825 0 -3.571 -0.357 -5.198 -0.952 -1.19 -0.476 -2.302 -1.071 -3.294 -1.825 -2.421 -1.746 -4.246 -4.246 -5.198 -7.103L3.611 35.833c0.913 1.865 2.103 3.611 3.452 5.198 4.484 5.159 11.071 8.413 18.492 8.413 2.222 0 4.444 -0.317 6.548 -0.873 3.492 -0.952 6.706 -2.738 9.365 -5.198z"/><path style="fill:#40A557;" d="M3.571 35.833c0.913 1.865 2.103 3.611 3.452 5.198 4.484 5.159 11.071 8.413 18.492 8.413 2.222 0 4.444 -0.317 6.548 -0.873 3.492 -0.952 6.706 -2.738 9.365 -5.198l-7.817 -6.032c-2.222 1.389 -4.96 2.143 -8.135 2.143 -1.825 0 -3.571 -0.357 -5.198 -0.952 -1.19 -0.476 -2.302 -1.071 -3.294 -1.825"/><path style="fill:#0097E2;" d="M48.294 20.556h-22.778v9.444H38.611c-0.675 3.214 -2.421 5.675 -5 7.302l7.817 6.032c2.143 -1.984 3.929 -4.444 5.198 -7.341 1.389 -3.175 2.222 -6.825 2.222 -10.992 0 -1.429 -0.198 -2.976 -0.556 -4.444"/><g><path style="fill:#4087ED;" d="M41.429 43.333c2.143 -1.984 3.929 -4.444 5.198 -7.341 1.389 -3.175 2.222 -6.825 2.222 -10.992 0 -1.429 -0.238 -2.976 -0.556 -4.444h-1.468"/><path style="fill:#4087ED;" points="235.154,224.183 235.154,236.617 235.154,276.48 355.84,276.48 	" d="M25.516 24.325L25.516 25.675L25.516 30L38.611 30"/></g><g><path style="fill:#33363A;" d="M3.571 36.389h-0.119c-0.159 -0.04 -0.317 -0.159 -0.397 -0.317 -1.587 -3.214 -2.46 -6.706 -2.54 -10.397v-1.349c0.079 -3.651 0.952 -7.143 2.54 -10.397 0.952 -1.905 2.143 -3.69 3.532 -5.317C11.349 3.135 18.254 0 25.516 0c6.111 0 11.825 2.143 16.508 6.23 0.119 0.119 0.198 0.278 0.198 0.437s-0.04 0.317 -0.159 0.437l-7.103 7.103c-0.198 0.198 -0.556 0.238 -0.794 0.04 -2.46 -2.024 -5.437 -3.095 -8.611 -3.095 -2.976 0 -5.794 0.913 -8.175 2.659 -2.341 1.706 -4.087 4.087 -5 6.825 -0.397 1.19 -0.635 2.421 -0.675 3.69v1.31c0.079 1.27 0.278 2.5 0.675 3.69 0.079 0.238 0 0.516 -0.198 0.675L3.968 36.31c-0.159 0.039 -0.278 0.079 -0.397 0.079m21.944 -35.198c-6.944 0 -13.492 2.976 -18.016 8.175 -1.349 1.548 -2.5 3.254 -3.373 5.079 -1.508 3.095 -2.341 6.389 -2.421 9.881v1.31c0.079 3.254 0.794 6.349 2.103 9.246l7.302 -5.595c-0.357 -1.151 -0.556 -2.381 -0.595 -3.611v-1.349c0.079 -1.389 0.317 -2.738 0.754 -4.008 0.992 -2.976 2.857 -5.556 5.437 -7.421s5.635 -2.857 8.849 -2.857c3.254 0 6.349 1.032 8.968 3.016l6.27 -6.27c-4.405 -3.69 -9.683 -5.595 -15.278 -5.595"/><path style="fill:#33363A;" d="M25.516 50c-7.302 0 -14.206 -3.135 -18.929 -8.611 -1.429 -1.627 -2.619 -3.413 -3.532 -5.317 -0.119 -0.238 -0.04 -0.556 0.159 -0.754l8.214 -6.27c0.159 -0.119 0.357 -0.159 0.556 -0.079 0.198 0.04 0.317 0.198 0.397 0.397 0.913 2.738 2.619 5.119 5 6.825 0.992 0.714 2.063 1.31 3.175 1.746 1.587 0.635 3.294 0.913 5 0.913 2.976 0 5.675 -0.714 7.817 -2.024 2.302 -1.429 3.849 -3.571 4.563 -6.19H25.556c-0.317 0 -0.595 -0.278 -0.595 -0.595v-9.444c0 -0.317 0.278 -0.595 0.595 -0.595h22.778c0.278 0 0.516 0.198 0.595 0.476 0.357 1.627 0.556 3.214 0.556 4.563 0 4.087 -0.754 7.857 -2.262 11.23 -1.27 2.897 -3.095 5.437 -5.357 7.54 -2.698 2.5 -5.992 4.325 -9.643 5.357 -2.143 0.556 -4.405 0.833 -6.706 0.833M4.325 35.992c0.873 1.667 1.905 3.214 3.135 4.643 4.524 5.198 11.111 8.214 18.056 8.214 2.183 0 4.325 -0.278 6.389 -0.873 3.452 -0.952 6.587 -2.698 9.127 -5.079 2.143 -1.984 3.849 -4.405 5.079 -7.143 1.429 -3.214 2.143 -6.825 2.143 -10.754 0 -1.151 -0.159 -2.46 -0.437 -3.849H26.111v8.254h12.5q0.298 0 0.476 0.238c0.119 0.119 0.159 0.317 0.119 0.476 -0.675 3.294 -2.5 5.952 -5.278 7.698 -2.302 1.468 -5.238 2.222 -8.452 2.222 -1.865 0 -3.69 -0.357 -5.397 -0.992 -1.23 -0.476 -2.381 -1.111 -3.452 -1.865 -2.341 -1.706 -4.087 -3.968 -5.119 -6.627z"/><path style="fill:#33363A;" d="M11.786 21.071q-0.178 0 -0.357 -0.119l-8.214 -6.27c-0.278 -0.198 -0.317 -0.556 -0.119 -0.833s0.556 -0.317 0.833 -0.119l8.214 6.27c0.278 0.198 0.317 0.556 0.119 0.833q-0.178 0.238 -0.476 0.238"/><path style="fill:#33363A;" d="M41.429 43.929q-0.179 0 -0.357 -0.119l-7.817 -6.032c-0.278 -0.198 -0.317 -0.556 -0.119 -0.833s0.595 -0.317 0.833 -0.119l7.817 6.032c0.278 0.198 0.317 0.556 0.119 0.833q-0.179 0.238 -0.476 0.238"/><path style="fill:#33363A;" d="M41.587 30.595H28.492c-0.317 0 -0.595 -0.278 -0.595 -0.595s0.278 -0.595 0.595 -0.595h13.095c0.317 0 0.595 0.278 0.595 0.595s-0.238 0.595 -0.595 0.595"/><path style="fill:#33363A;" d="M12.262 50H9.683c-0.317 0 -0.595 -0.278 -0.595 -0.595s0.278 -0.595 0.595 -0.595h2.579c0.317 0 0.595 0.278 0.595 0.595s-0.278 0.595 -0.595 0.595"/><path style="fill:#33363A;" d="M24.802 50h-7.46c-0.317 0 -0.595 -0.278 -0.595 -0.595s0.278 -0.595 0.595 -0.595h7.46c0.317 0 0.595 0.278 0.595 0.595s-0.238 0.595 -0.595 0.595"/><path style="fill:#33363A;" d="M15.079 50h-0.476c-0.317 0 -0.595 -0.278 -0.595 -0.595s0.278 -0.595 0.595 -0.595h0.476c0.317 0 0.595 0.278 0.595 0.595s-0.278 0.595 -0.595 0.595"/></g><g/><g/><g/><g/><g/><g/><g/><g/><g/><g/><g/><g/><g/><g/><g/></svg>