<svg xmlns="http://www.w3.org/2000/svg" xmlns:xlink="http://www.w3.org/1999/xlink" width="50" zoomAndPan="magnify" viewBox="0 0 37.5 21.083" height="28.111" preserveAspectRatio="xMidYMid meet" version="1.0"><defs><clipPath id="c55aed0195"><path d="M11.933 0.005h23.455v21.073H11.933Zm0 0" clip-rule="nonzero"/></clipPath></defs><path fill="#000000" d="M13.112 4.738h13.504v0.474H13.112Zm0 0" fill-opacity="1" fill-rule="nonzero"/><path fill="#000000" d="M13.112 7.106h13.504v0.474H13.112Zm0 0" fill-opacity="1" fill-rule="nonzero"/><path fill="#000000" d="M13.112 9.474h13.504v0.474H13.112Zm0 0" fill-opacity="1" fill-rule="nonzero"/><path fill="#000000" d="M13.112 16.577h13.504v0.474H13.112Zm0 0" fill-opacity="1" fill-rule="nonzero"/><g clip-path="url(#c55aed0195)"><path fill="#000000" d="M35.363 4.099 34.359 3.095l-1 1.004 -0.334 -0.334 -0.509 0.502 -0.341 -0.336 0.334 -0.334 -0.334 -0.336 -4.027 4.025 0.334 0.334 3.364 -3.353 0.329 0.334 -0.67 0.67 -3.703 3.706V1.428H26.616a1.537 1.537 0 0 0 -0.089 -0.422 1.574 1.574 0 0 0 -0.056 -0.133 1.535 1.535 0 0 0 -0.238 -0.36 1.574 1.574 0 0 0 -0.101 -0.103 1.537 1.537 0 0 0 -0.11 -0.093 1.53 1.53 0 0 0 -0.244 -0.154 1.611 1.611 0 0 0 -0.132 -0.059 1.537 1.537 0 0 0 -0.137 -0.047 1.574 1.574 0 0 0 -0.14 -0.034 1.552 1.552 0 0 0 -0.287 -0.027q-0.072 0 -0.144 0.007a1.537 1.537 0 0 0 -0.143 0.02 1.536 1.536 0 0 0 -0.409 0.139 1.501 1.501 0 0 0 -0.126 0.071 1.501 1.501 0 0 0 -0.118 0.083 1.537 1.537 0 0 0 -0.11 0.093q-0.053 0.049 -0.101 0.103 -0.048 0.054 -0.091 0.112a1.529 1.529 0 0 0 -0.246 0.518 1.507 1.507 0 0 0 -0.046 0.285h-0.49a1.537 1.537 0 0 0 -0.046 -0.285 1.537 1.537 0 0 0 -0.043 -0.138 1.501 1.501 0 0 0 -0.056 -0.133 1.537 1.537 0 0 0 -0.068 -0.127 1.537 1.537 0 0 0 -0.08 -0.12 1.574 1.574 0 0 0 -0.09 -0.112 1.574 1.574 0 0 0 -0.101 -0.103 1.539 1.539 0 0 0 -0.622 -0.353 1.574 1.574 0 0 0 -0.14 -0.034 1.552 1.552 0 0 0 -0.287 -0.027q-0.072 0 -0.144 0.007c-0.048 0.004 -0.096 0.011 -0.143 0.02a1.539 1.539 0 0 0 -0.863 0.49 1.556 1.556 0 0 0 -0.17 0.233 1.501 1.501 0 0 0 -0.068 0.127 1.501 1.501 0 0 0 -0.056 0.133 1.501 1.501 0 0 0 -0.043 0.138 1.501 1.501 0 0 0 -0.03 0.141 1.574 1.574 0 0 0 -0.017 0.143h-0.486a1.538 1.538 0 0 0 -0.047 -0.285 1.501 1.501 0 0 0 -0.043 -0.138 1.501 1.501 0 0 0 -0.056 -0.133 1.501 1.501 0 0 0 -0.068 -0.127 1.555 1.555 0 0 0 -0.17 -0.233 1.574 1.574 0 0 0 -0.101 -0.103 1.539 1.539 0 0 0 -0.622 -0.353 1.574 1.574 0 0 0 -0.14 -0.034 1.537 1.537 0 0 0 -0.143 -0.02 1.515 1.515 0 0 0 -0.288 0c-0.048 0.004 -0.095 0.011 -0.143 0.02a1.539 1.539 0 0 0 -0.863 0.49 1.574 1.574 0 0 0 -0.09 0.112 1.537 1.537 0 0 0 -0.08 0.12 1.537 1.537 0 0 0 -0.068 0.127 1.501 1.501 0 0 0 -0.056 0.133 1.537 1.537 0 0 0 -0.043 0.138 1.537 1.537 0 0 0 -0.046 0.285h-0.486a1.538 1.538 0 0 0 -0.047 -0.285 1.501 1.501 0 0 0 -0.043 -0.138 1.529 1.529 0 0 0 -0.203 -0.381 1.537 1.537 0 0 0 -0.091 -0.112 1.526 1.526 0 0 0 -0.329 -0.28 1.501 1.501 0 0 0 -0.126 -0.071A1.539 1.539 0 0 0 14.704 0.023a1.537 1.537 0 0 0 -0.143 -0.02 1.515 1.515 0 0 0 -0.288 0c-0.048 0.004 -0.095 0.011 -0.143 0.02a1.539 1.539 0 0 0 -0.863 0.49c-0.032 0.036 -0.062 0.073 -0.091 0.112a1.537 1.537 0 0 0 -0.08 0.12 1.537 1.537 0 0 0 -0.068 0.127 1.53 1.53 0 0 0 -0.129 0.412 1.574 1.574 0 0 0 -0.017 0.143h-0.948v17.758h0.474v0.947h0.474v0.947h13.978V20.134h0.474v-0.947h0.474V12.32l5.376 -5.375 1.507 -1.506 -0.334 -0.343Zm-10.296 -3.618a1.043 1.043 0 0 1 0.193 0.018q0.048 0.009 0.094 0.022a1.063 1.063 0 0 1 0.767 0.907h-2.109q0.005 -0.048 0.015 -0.096a1.061 1.061 0 0 1 0.2 -0.437q0.03 -0.038 0.063 -0.074 0.033 -0.036 0.069 -0.068a1.061 1.061 0 0 1 0.155 -0.116q0.041 -0.025 0.085 -0.047a1.061 1.061 0 0 1 0.275 -0.092 1.045 1.045 0 0 1 0.193 -0.018m-3.554 0a1.047 1.047 0 0 1 0.193 0.018q0.048 0.009 0.094 0.022a1.063 1.063 0 0 1 0.181 0.069q0.044 0.021 0.085 0.047 0.041 0.025 0.08 0.054a1.061 1.061 0 0 1 0.31 0.367q0.022 0.043 0.04 0.088a1.061 1.061 0 0 1 0.071 0.281H20.459a1.061 1.061 0 0 1 0.215 -0.533q0.03 -0.038 0.063 -0.074 0.033 -0.036 0.069 -0.068a1.061 1.061 0 0 1 0.155 -0.116q0.041 -0.025 0.085 -0.047a1.061 1.061 0 0 1 0.275 -0.092 1.044 1.044 0 0 1 0.193 -0.018m-3.554 0a1.047 1.047 0 0 1 0.193 0.018q0.048 0.009 0.094 0.022a1.051 1.051 0 0 1 0.181 0.07q0.044 0.021 0.085 0.047A1.061 1.061 0 0 1 18.903 1.059q0.022 0.043 0.04 0.088a1.061 1.061 0 0 1 0.071 0.281h-2.109q0.005 -0.048 0.015 -0.096a1.061 1.061 0 0 1 0.144 -0.358 1.054 1.054 0 0 1 0.118 -0.153q0.033 -0.036 0.069 -0.068a1.061 1.061 0 0 1 0.155 -0.116q0.041 -0.025 0.085 -0.047a1.061 1.061 0 0 1 0.275 -0.092 1.042 1.042 0 0 1 0.193 -0.018m-3.554 0a1.04 1.04 0 0 1 0.193 0.018q0.048 0.009 0.094 0.022a1.051 1.051 0 0 1 0.181 0.07q0.043 0.021 0.085 0.047a1.061 1.061 0 0 1 0.391 0.421q0.022 0.043 0.04 0.088a1.061 1.061 0 0 1 0.071 0.281h-2.099a1.061 1.061 0 0 1 0.11 -0.367 1.051 1.051 0 0 1 0.103 -0.163 1.087 1.087 0 0 1 0.13 -0.142 1.083 1.083 0 0 1 0.154 -0.116 1.051 1.051 0 0 1 0.172 -0.086q0.045 -0.018 0.091 -0.031a1.072 1.072 0 0 1 0.189 -0.037 1.025 1.025 0 0 1 0.096 -0.005m11.964 20.126H13.34v-0.474H26.37Zm0.474 -0.947H12.866v-0.474h13.978Zm0.474 -0.947H12.392V1.902h3.028a1.061 1.061 0 0 1 -0.058 0.138 1.065 1.065 0 0 1 -0.405 0.431 1.061 1.061 0 0 1 -0.276 0.115q-0.072 0.019 -0.147 0.027l0.052 0.474a1.537 1.537 0 0 0 0.233 -0.045 1.515 1.515 0 0 0 0.223 -0.08 1.534 1.534 0 0 0 0.396 -0.257 1.519 1.519 0 0 0 0.164 -0.171 1.532 1.532 0 0 0 0.24 -0.406 1.537 1.537 0 0 0 0.07 -0.226h3.061a1.061 1.061 0 0 1 -0.058 0.138 1.065 1.065 0 0 1 -0.405 0.431 1.061 1.061 0 0 1 -0.276 0.115q-0.072 0.019 -0.147 0.027l0.052 0.474a1.537 1.537 0 0 0 0.233 -0.045 1.515 1.515 0 0 0 0.223 -0.08 1.537 1.537 0 0 0 0.208 -0.113 1.529 1.529 0 0 0 0.352 -0.314 1.532 1.532 0 0 0 0.24 -0.406 1.537 1.537 0 0 0 0.071 -0.226h3.061a1.058 1.058 0 0 1 -0.136 0.266 1.061 1.061 0 0 1 -0.095 0.116 1.04 1.04 0 0 1 -0.11 0.102 1.061 1.061 0 0 1 -0.123 0.085 1.061 1.061 0 0 1 -0.134 0.067 1.066 1.066 0 0 1 -0.289 0.075l0.052 0.474a1.537 1.537 0 0 0 0.233 -0.045 1.519 1.519 0 0 0 0.223 -0.08 1.537 1.537 0 0 0 0.208 -0.113 1.537 1.537 0 0 0 0.188 -0.144 1.537 1.537 0 0 0 0.164 -0.171 1.541 1.541 0 0 0 0.311 -0.632h3.061a1.058 1.058 0 0 1 -0.136 0.266 1.061 1.061 0 0 1 -0.095 0.116 1.04 1.04 0 0 1 -0.11 0.102 1.061 1.061 0 0 1 -0.399 0.2c-0.048 0.013 -0.097 0.022 -0.147 0.027l0.052 0.474a1.537 1.537 0 0 0 0.233 -0.045 1.519 1.519 0 0 0 0.223 -0.08 1.537 1.537 0 0 0 0.208 -0.113 1.537 1.537 0 0 0 0.188 -0.144 1.537 1.537 0 0 0 0.164 -0.171 1.541 1.541 0 0 0 0.311 -0.632h0.753V9.45l-2.393 2.391H13.112v0.474h11.348l-0.815 0.831 -0.739 0.71 -0.038 0.341H13.112v0.474h9.713l-0.076 0.691 -0.455 0.457 0.334 0.334 0.443 -0.443 1.521 -0.168 0.711 -0.739 2.016 -2.015Zm-3.347 -5.238 0.336 -0.329 0.997 0.997 -0.334 0.334Zm0.67 1.328 -0.284 0.287 -1.13 0.125 0.133 -1.122 0.287 -0.284Zm0 -2.008 0.336 -0.336 1.004 1.004 -0.336 0.346Zm1.675 0.35 -1.012 -1.011 6.541 -6.53 0.502 0.502 0.502 0.502Zm6.87 -6.867 -0.502 -0.502 -0.509 -0.507 0.839 -0.838 1.005 1.004Zm0.502 -1.842 0.67 -0.67 0.334 0.334 -0.67 0.668Zm0 0" fill-opacity="1" fill-rule="nonzero"/></g></svg>