<svg xmlns="http://www.w3.org/2000/svg" width="250" viewBox="0 0 187.5 105.415" height="140.555" version="1.0"><defs><clipPath id="a"><path d="M51.03 0.025h39.015v55.795H51.03Zm0 0"/></clipPath></defs><path d="M134.09 26.515a3.03 3.03 0 0 0 -2.37 -5.58l-32.04 13.62h-12.17c-0.285 1.07 -0.685 2.1 -1.085 3.12 -1.27 3.24 -2.47 6.3 0.685 9.985 3.245 3.785 3.715 6.895 3.39 9.045q0.1 0.32 0.1 0.675v9.47a2.4 2.4 0 0 1 -2.385 2.385h-5.8l-1.795 30.975a4.68 4.68 0 1 0 9.35 0.54l1.995 -34.43h2.195l1.995 34.43a4.68 4.68 0 1 0 9.35 -0.54l-2.2 -37.955V39.6ZM95.05 43.175h5.175v1.64H95.05Zm0 0"/><g clip-path="url(#a)"><path d="M64.31 20.075a3 3 0 0 0 -1.66 0.36 3.025 3.025 0 0 0 -1.21 4.11l1 1.835 -1.2 4.06 1 0.295 0.905 -3.065 8.08 14.805a3 3 0 0 0 2.66 1.58q0.605 0 1.195 -0.25c1.975 -0.85 5.18 -2.05 7.735 -2.7v13.88h5.4c0.64 0 1.225 0.255 1.65 0.67 0.025 -1.895 -0.695 -4.435 -3.33 -7.505 -3.45 -4.025 -2.115 -7.445 -0.82 -10.755 0.365 -0.93 0.73 -1.875 1.005 -2.845h-0.975a5 5 0 0 0 -0.43 0.035c-2.96 0.105 -7.295 1.565 -10.06 2.615l-8.495 -15.565a3 3 0 0 0 -1.435 -1.32L71.22 0.405l-1 -0.295 -0.22 0.75c-1.445 0.19 -12.515 1.78 -18.97 6.2 10.08 -0.365 12.15 4.175 15.81 4.465Zm0 0"/></g><path d="M93.65 33.685q1.03 0 2.055 -0.21a0.65 0.65 0 0 0 0.7 0.21l1.925 -0.61 0.36 -0.115a0.833 0.833 0 0 0 0.24 -0.14 0.65 0.65 0 0 0 0.18 -0.67 0.65 0.65 0 0 0 -0.44 -0.425 0.667 0.667 0 0 0 -0.37 0.005l-2.285 0.725a0.65 0.65 0 0 0 -0.42 0.425 10 10 0 0 1 -1.94 0.2 9.75 9.75 0 0 1 -7.745 -3.875 9.5 9.5 0 0 1 -1.745 -3.73l-0.005 -0.02h0.215c-0.19 -2.77 3.915 -4.955 8.26 -5.93s8.995 -0.75 10 1.835c3.325 -1.58 5.305 -3.325 4.99 -4.72 -0.37 -1.64 -3.815 -2.37 -8.585 -2.075 -1.88 -3.435 -5.275 -5.43 -8.57 -4.69s-5.515 3.995 -5.745 7.9c-4.44 1.77 -7.245 3.9 -6.88 5.545 0.29 1.285 2.47 2.01 5.695 2.12l0.035 0.17a10.3 10.3 0 0 0 3.56 5.725 10 10 0 0 0 0.78 0.585 10.283 10.283 0 0 0 5.745 1.77m0 0"/><path d="M85.28 25.68a8.52 8.52 0 1 0 16.63 -3.73c-1.03 -4.595 -17.66 -0.86 -16.63 3.73m5.795 1.465s5.31 0.58 8.415 -1.755c0 0 -2.815 7.255 -8.415 1.755m-2.86 28.715h-6.44a1.517 1.517 0 0 0 -1.515 1.515v9.47a1.517 1.517 0 0 0 1.515 1.515h6.44a1.517 1.517 0 0 0 1.515 -1.515v-9.47a1.517 1.517 0 0 0 -1.515 -1.515m-2.46 10.77v-1.085h0.945v0.68a3.5 3.5 0 0 1 -0.945 0.405m-1.605 -1.085v1.085a3.5 3.5 0 0 1 -0.945 -0.405v-0.68Zm-0.945 -0.33v-0.945h0.945v0.945Zm-1.52 -1.75q0 -0.24 0.04 -0.475h1.15v0.945h-1.15a5 5 0 0 1 -0.04 -0.47m2.465 -1.75v0.945h-0.945v-0.945Zm-0.945 -0.33v-0.68a3 3 0 0 1 0.945 -0.405v1.085Zm3.495 0.33v0.945h-0.945v-0.945Zm-0.945 -0.33v-1.085a3.5 3.5 0 0 1 0.945 0.405v0.68Zm-1.275 1.605h0.945v0.945h-0.945Zm-0.33 0.945h-0.945v-0.945h0.945Zm1.605 -0.945h0.945v0.945h-0.945Zm-0.33 -0.33h-0.945v-0.945h0.945Zm-2.55 0h-1.085a3.5 3.5 0 0 1 0.405 -0.945h0.68Zm0 1.605v0.945h-0.68a3.5 3.5 0 0 1 -0.405 -0.945Zm1.605 0h0.945v0.945h-0.945Zm1.275 0h0.945v0.945h-0.945Zm1.275 1.275h0.44a3.333 3.333 0 0 1 -0.44 0.44Zm0.68 -0.33h-0.68v-0.945h1.085a3.5 3.5 0 0 1 -0.405 0.945m0.51 -1.75a5 5 0 0 1 -0.04 0.475h-1.15v-0.945h1.15a5 5 0 0 1 0.04 0.47m-0.105 -0.805h-1.085v-0.945h0.68a3.5 3.5 0 0 1 0.405 0.945m-0.645 -1.275h-0.44v-0.44a3.333 3.333 0 0 1 0.44 0.44m-2.045 -1.15v1.15h-0.945v-1.15a5 5 0 0 1 0.475 -0.04q0.24 0 0.47 0.04m-2.55 0.71v0.44h-0.44a3.333 3.333 0 0 1 0.44 -0.44m-0.44 4.6h0.44v0.44a3.333 3.333 0 0 1 -0.44 -0.44m2.05 1.15v-1.15h0.945v1.15a3 3 0 0 1 -0.945 0m0 0"/></svg>