<svg version="1.1" id="Layer_1" xmlns="http://www.w3.org/2000/svg" xmlns:xlink="http://www.w3.org/1999/xlink" x="0px" y="0px" viewBox="0 0 50 50" style="enable-background:new 0 0 512 512;" xml:space="preserve" width="50" height="50"><path style="fill:#CCCCCC;" points="369.908,95.601 450.087,153.838 450.087,95.601 " d="M36.124 9.336L43.954 15.023L43.954 9.336Z"/><path style="fill:#666666;" d="M36.124 9.336h8.731c0.305 0 0.554 -0.249 0.554 -0.554V6.88c0 -0.305 -0.249 -0.554 -0.554 -0.554H35.054c-0.305 0 -0.554 0.249 -0.554 0.554v1.277z"/><path style="fill:#FFEEDC;" d="M25 6.172 6.015 19.961v27.492c0 0.357 0.287 0.647 0.641 0.647h36.687c0.354 0 0.641 -0.29 0.641 -0.647V19.961z"/><path style="opacity:0.1;enable-background:new    ;" d="M9.183 47.453V17.66l-3.168 2.301v27.492c0 0.357 0.287 0.647 0.641 0.647h3.168c-0.354 0 -0.641 -0.29 -0.641 -0.647"/><path style="fill:#EA3939;" d="M30.117 27.963H19.883c-0.29 0 -0.527 0.237 -0.527 0.527v19.609h11.288V28.49c0 -0.29 -0.237 -0.527 -0.527 -0.527"/><path style="opacity:0.1;enable-background:new    ;" d="M23.078 27.963h-3.195c-0.29 0 -0.527 0.237 -0.527 0.527v19.609h3.195V28.49c0 -0.29 0.237 -0.527 0.527 -0.527"/><path style="fill:#FFF46C;" d="M15.469 36.594v-3.285h-5.682v3.285c0 0.281 0.23 0.51 0.51 0.51h4.661c0.281 0 0.51 -0.23 0.51 -0.51"/><path style="fill:#FFCC4D;" d="M15.469 33.308v-4.877c0 -0.281 -0.23 -0.51 -0.51 -0.51h-4.661c-0.281 0 -0.51 0.23 -0.51 0.51v4.877z"/><path style="opacity:0.1;enable-background:new    ;" d="M11.869 36.594v-8.162c0 -0.281 0.23 -0.51 0.51 -0.51h-2.082c-0.281 0 -0.51 0.23 -0.51 0.51v8.162c0 0.281 0.23 0.51 0.51 0.51h2.082c-0.281 0 -0.51 -0.23 -0.51 -0.51"/><path style="fill:#FFCC4D;" d="M40.213 33.308v-4.877c0 -0.281 -0.23 -0.51 -0.51 -0.51h-4.661c-0.281 0 -0.51 0.23 -0.51 0.51v4.877z"/><path style="fill:#FFF46C;" d="M40.213 36.594v-3.285h-5.682v3.285c0 0.281 0.23 0.51 0.51 0.51h4.661c0.281 0 0.51 -0.23 0.51 -0.51"/><path style="opacity:0.1;enable-background:new    ;" d="M36.666 36.594v-8.162c0 -0.281 0.23 -0.51 0.51 -0.51h-2.134c-0.281 0 -0.51 0.23 -0.51 0.51v8.162c0 0.281 0.23 0.51 0.51 0.51h2.134c-0.281 0 -0.51 -0.23 -0.51 -0.51"/><path style="fill:#EA3939;" d="M46.988 22.025a0.495 0.495 0 0 1 -0.292 -0.095L25 6.172 3.304 21.93c-0.218 0.158 -0.531 0.115 -0.694 -0.111L0.859 19.405a0.498 0.498 0 0 1 0.11 -0.695L23.395 2.422a2.712 2.712 0 0 1 1.605 -0.521 2.715 2.715 0 0 1 1.604 0.521L49.03 18.71a0.498 0.498 0 0 1 0.11 0.695l-1.75 2.415q-0.168 0.204 -0.402 0.205c-0.104 0 0.156 0 0 0"/><g style="opacity:0.1;"><path d="M3.972 19.405a0.498 0.498 0 0 1 0.11 -0.695L26.508 2.422c0.016 -0.012 0.033 -0.021 0.049 -0.033 -0.459 -0.319 -0.996 -0.489 -1.556 -0.489a2.712 2.712 0 0 0 -1.605 0.521L0.97 18.71a0.498 0.498 0 0 0 -0.11 0.695l1.75 2.415c0.163 0.225 0.476 0.268 0.694 0.111l1.637 -1.189z"/></g><g><path style="fill:#FFFFFF;" d="M28.878 22.515c0 0.281 -0.23 0.51 -0.51 0.51h-6.735c-0.281 0 -0.51 -0.23 -0.51 -0.51v-1.489c0 -0.281 0.23 -0.51 0.51 -0.51h6.735c0.281 0 0.51 0.23 0.51 0.51z"/><path style="fill:#FFFFFF;" d="M28.878 17.653c0 0.281 -0.23 0.51 -0.51 0.51h-6.735c-0.281 0 -0.51 -0.23 -0.51 -0.51v-1.489c0 -0.281 0.23 -0.51 0.51 -0.51h6.735c0.281 0 0.51 0.23 0.51 0.51z"/></g><path style="opacity:0.1;enable-background:new    ;" d="M23.163 22.515v-1.489c0 -0.281 0.23 -0.51 0.51 -0.51h-2.041c-0.281 0 -0.51 0.23 -0.51 0.51v1.489c0 0.281 0.23 0.51 0.51 0.51h2.041c-0.281 0 -0.51 -0.229 -0.51 -0.51"/><path style="opacity:0.1;enable-background:new    ;" d="M23.163 17.653v-1.489c0 -0.281 0.23 -0.51 0.51 -0.51h-2.041c-0.281 0 -0.51 0.23 -0.51 0.51v1.489c0 0.281 0.23 0.51 0.51 0.51h2.041c-0.281 0 -0.51 -0.23 -0.51 -0.51"/><path d="M9.022 28.431v8.162c0 0.703 0.572 1.275 1.276 1.275h4.661c0.703 0 1.276 -0.572 1.276 -1.275v-8.162c0 -0.703 -0.572 -1.275 -1.276 -1.275h-4.661c-0.703 0 -1.276 0.572 -1.276 1.275m1.531 7.907v-2.265h4.151v2.265zm4.151 -7.652v3.857h-4.151V28.687z"/><path d="M35.041 37.869h4.661c0.703 0 1.276 -0.572 1.276 -1.275V32.041a0.765 0.765 0 0 0 -0.765 -0.765 0.765 0.765 0 0 0 -0.765 0.765v0.502h-4.151V28.687h4.151v0.599a0.765 0.765 0 0 0 0.765 0.765 0.765 0.765 0 0 0 0.765 -0.765v-0.854c0 -0.703 -0.572 -1.275 -1.276 -1.275h-4.661c-0.703 0 -1.275 0.572 -1.275 1.275v8.162c0 0.703 0.572 1.275 1.275 1.275m4.406 -3.795v2.265h-4.151v-2.265z"/><path d="M28.207 35.434a0.765 0.765 0 0 0 -0.765 0.765v2.07a0.765 0.765 0 1 0 1.531 0v-2.07a0.765 0.765 0 0 0 -0.765 -0.765"/><path d="m49.48 18.091 -4.761 -3.458V10.102h0.135c0.728 0 1.32 -0.592 1.32 -1.32V6.88c0 -0.728 -0.592 -1.32 -1.32 -1.32h-5.262a0.765 0.765 0 0 0 0 1.531h5.051v1.479h-8.271l-1.107 -0.804v-0.675h1.47a0.765 0.765 0 0 0 0 -1.531h-1.681c-0.655 0 -1.199 0.481 -1.301 1.108l-6.7 -4.866a3.475 3.475 0 0 0 -2.053 -0.667 3.473 3.473 0 0 0 -2.055 0.668L0.52 18.091c-0.563 0.409 -0.688 1.2 -0.28 1.763l1.75 2.415c0.415 0.573 1.21 0.682 1.763 0.281l1.497 -1.087v25.99c0 0.779 0.631 1.412 1.407 1.412h36.687c0.776 0 1.407 -0.633 1.407 -1.412V21.462l1.497 1.087c0.553 0.401 1.348 0.292 1.763 -0.281l1.75 -2.415c0.408 -0.563 0.282 -1.354 -0.28 -1.763m-6.292 -7.99v3.42l-4.709 -3.42zm3.74 11.051L25.45 5.552a0.766 0.766 0 0 0 -0.9 0l-11.939 8.672a0.765 0.765 0 0 0 0.899 1.238L25 7.118l18.219 13.233V47.334H31.409v-3.354a0.765 0.765 0 0 0 -0.765 -0.765 0.765 0.765 0 0 0 -0.765 0.765V47.334h-9.757V28.729h9.757v12.19a0.765 0.765 0 0 0 0.765 0.765 0.765 0.765 0 0 0 0.765 -0.765V28.49c0 -0.713 -0.579 -1.292 -1.292 -1.292H19.883c-0.712 0 -1.292 0.58 -1.292 1.292v18.843H6.781V20.351l4.383 -3.183a0.765 0.765 0 1 0 -0.899 -1.238l-7.193 5.224 -1.436 -1.981L23.845 3.041a1.953 1.953 0 0 1 1.155 -0.375c0.417 0 0.816 0.13 1.154 0.375l22.21 16.131z"/><path d="M21.633 23.79h6.735c0.703 0 1.275 -0.572 1.275 -1.275v-1.489c0 -0.703 -0.572 -1.275 -1.275 -1.275h-6.735c-0.703 0 -1.275 0.572 -1.275 1.275v1.489c0 0.703 0.572 1.275 1.275 1.275m0.255 -2.509h6.225v0.979h-6.225z"/><path d="M21.633 18.928h6.735c0.703 0 1.275 -0.572 1.275 -1.276v-1.489c0 -0.704 -0.572 -1.276 -1.275 -1.276h-6.735c-0.703 0 -1.275 0.572 -1.275 1.276v1.489c0 0.703 0.572 1.276 1.275 1.276m0.255 -2.509h6.225v0.978h-6.225z"/><g/><g/><g/><g/><g/><g/><g/><g/><g/><g/><g/><g/><g/><g/><g/></svg>