<svg xmlns="http://www.w3.org/2000/svg" xmlns:xlink="http://www.w3.org/1999/xlink" width="70" zoomAndPan="magnify" viewBox="0 0 52.5 29.517" height="39.356" preserveAspectRatio="xMidYMid meet" version="1.0"><defs><clipPath id="ace78e0e66"><path d="M11.688 0.007h29.08v29.08H11.688Zm0 0" clip-rule="nonzero"/></clipPath></defs><g clip-path="url(#ace78e0e66)"><path fill="#000000" d="M26.22 29.081h-0.03l-0.023 0h-0.026l-0.021 0 -0.028 0 -0.021 0 -0.023 0 -0.023 0 -0.023 0 -0.023 -0.001 -0.023 0 -0.023 0 -0.023 -0.001 -0.014 0c-0.014 0 -0.028 -0.001 -0.042 -0.001l-0.005 0c-0.016 0 -0.03 -0.001 -0.047 -0.001v0c-4.471 -0.131 -8.438 -2.285 -11.015 -5.576 -0.002 -0.002 -0.005 -0.004 -0.005 -0.007 -1.494 -1.906 -2.52 -4.194 -2.91 -6.692v-0.001c-0.005 -0.037 -0.012 -0.074 -0.016 -0.112l-0.002 -0.012 -0.002 -0.012c-0.005 -0.029 -0.007 -0.059 -0.012 -0.089l-0.002 -0.013 -0.002 -0.019 -0.002 -0.015c-0.002 -0.022 -0.007 -0.044 -0.009 -0.066l-0.002 -0.014 -0.002 -0.019 -0.002 -0.019 -0.002 -0.017c-0.002 -0.015 -0.002 -0.029 -0.005 -0.044l-0.002 -0.015 -0.002 -0.019 -0.002 -0.019 -0.002 -0.016c-0.002 -0.014 -0.002 -0.029 -0.005 -0.044l-0.002 -0.016 -0.005 -0.038 -0.002 -0.016c0 -0.014 -0.002 -0.029 -0.002 -0.043l-0.005 -0.024 -0.002 -0.023 -0.002 -0.028 -0.002 -0.018 -0.002 -0.022 -0.002 -0.023 -0.002 -0.023 -0.002 -0.029 -0.002 -0.017v-0.024l-0.002 -0.021 -0.002 -0.023 -0.002 -0.023 -0.002 -0.027 -0.002 -0.019 -0.002 -0.023v-0.023l-0.002 -0.023 -0.002 -0.028 -0.002 -0.019 -0.002 -0.022v-0.023l-0.002 -0.023 -0.002 -0.029v-0.018l-0.002 -0.022 -0.002 -0.023v-0.023l-0.002 -0.023 -0.002 -0.027v-0.021l-0.002 -0.021v-0.023l-0.002 -0.023v-0.028l-0.002 -0.019v-0.023l-0.002 -0.023V15.22l-0.002 -0.029v-0.019l-0.002 -0.022v-0.047l-0.002 -0.023v-0.05l-0.002 -0.02v-0.047l-0.002 -0.027v-0.066l-0.002 -0.023v-0.117l-0.002 -0.03v-0.322l0.002 -0.023v-0.117l0.002 -0.023v-0.07l0.002 -0.023v-0.051l0.002 -0.019v-0.046l0.002 -0.023v-0.048l0.002 -0.022v-0.023l0.002 -0.023v-0.023l0.002 -0.025v-0.025l0.002 -0.02v-0.023l0.002 -0.023v-0.028l0.002 -0.019 0.002 -0.023v-0.023l0.002 -0.023v-0.029l0.002 -0.019 0.002 -0.022v-0.023l0.005 -0.046v-0.025l0.002 -0.022 0.005 -0.046 0.002 -0.023v-0.027l0.002 -0.019 0.002 -0.022 0.005 -0.046 0.002 -0.028 0.002 -0.019 0.002 -0.022v-0.023l0.002 -0.023 0.005 -0.029v-0.018l0.002 -0.024 0.002 -0.02 0.002 -0.023 0.002 -0.023 0.005 -0.027 0.002 -0.019 0.002 -0.023 0.005 -0.046 0.002 -0.028 0.002 -0.018 0.002 -0.022 0.002 -0.022 0.005 -0.023 0.002 -0.029 0.002 -0.017 0.002 -0.023 0.005 -0.022 0.002 -0.023 0.005 -0.03v-0.017q0.004 -0.022 0.007 -0.043l0.002 -0.024 0.005 -0.031 0.002 -0.016c0.002 -0.015 0.005 -0.029 0.007 -0.044l0.002 -0.025 0.005 -0.029 0.002 -0.019 0.005 -0.017c0 -0.015 0.005 -0.029 0.007 -0.044l0.002 -0.015 0.002 -0.019 0.002 -0.019 0.002 -0.016q0.003 -0.022 0.007 -0.045l0.002 -0.015 0.005 -0.019 0.002 -0.019 0.002 -0.014c0.005 -0.022 0.007 -0.044 0.012 -0.067l0.002 -0.013 0.002 -0.019 0.002 -0.013c0.005 -0.03 0.012 -0.059 0.016 -0.089v0c0.43 -2.361 1.431 -4.523 2.852 -6.338q0.004 -0.003 0.007 -0.007C17.452 2.184 21.591 0.002 26.236 0.002c4.646 0 8.784 2.183 11.446 5.577q0.003 0.004 0.007 0.007c1.421 1.816 2.422 3.978 2.852 6.338v0c0.005 0.03 0.012 0.059 0.016 0.089l0.002 0.013 0.002 0.019 0.002 0.013c0.005 0.022 0.007 0.044 0.012 0.067l0.002 0.014 0.002 0.019 0.005 0.019 0.002 0.015q0.003 0.022 0.007 0.045l0.002 0.016 0.002 0.019 0.005 0.019 0.002 0.015c0.002 0.015 0.002 0.029 0.005 0.044l0.005 0.025 0.005 0.029 0.002 0.019 0.002 0.017q0.003 0.022 0.007 0.044l0.002 0.016 0.005 0.038 0.002 0.017q0.003 0.022 0.007 0.043l0.002 0.024 0.005 0.031 0.002 0.019 0.002 0.018 0.002 0.023 0.002 0.023 0.002 0.023 0.005 0.028 0.002 0.018 0.002 0.025 0.002 0.02 0.002 0.023 0.005 0.03 0.002 0.017 0.002 0.022 0.002 0.022 0.002 0.023 0.002 0.023 0.002 0.027 0.002 0.019 0.002 0.023 0.002 0.023 0.002 0.023 0.002 0.029 0.002 0.018v0.022l0.002 0.023 0.002 0.023 0.002 0.023 0.002 0.025 0.002 0.021 0.002 0.023v0.023l0.002 0.023 0.002 0.027 0.002 0.019 0.002 0.023v0.023l0.002 0.023 0.002 0.028v0.019l0.002 0.022 0.002 0.023v0.023l0.002 0.023 0.002 0.025v0.022l0.002 0.023v0.023l0.002 0.023v0.027l0.002 0.019v0.023l0.002 0.023v0.023l0.002 0.029v0.019l0.002 0.022v0.047l0.002 0.023v0.025l0.002 0.022v0.07l0.002 0.027v0.066l0.002 0.023v0.094l0.002 0.024v0.375l-0.002 0.029v0.088l-0.002 0.023v0.07l-0.002 0.023v0.07l-0.002 0.023v0.023l-0.002 0.023v0.047l-0.002 0.023v0.023l-0.002 0.023v0.023l-0.002 0.024v0.022l-0.002 0.023v0.023l-0.002 0.023v0.027l-0.002 0.02 -0.002 0.023v0.023l-0.002 0.023v0.028l-0.002 0.019 -0.002 0.022v0.023l-0.002 0.023 -0.002 0.029v0.018l-0.002 0.022 -0.002 0.023 -0.005 0.046v0.024l-0.002 0.023 -0.002 0.022 -0.002 0.023 -0.002 0.023 -0.002 0.027 -0.002 0.019v0.023l-0.002 0.023 -0.002 0.023 -0.005 0.028v0.018l-0.002 0.025 -0.002 0.02 -0.002 0.023 -0.005 0.029 -0.002 0.017c0 0.014 -0.002 0.029 -0.002 0.043l-0.002 0.016 -0.002 0.019 -0.002 0.019 -0.002 0.016c-0.002 0.015 -0.002 0.029 -0.005 0.044l-0.002 0.016 -0.002 0.019 -0.002 0.019 -0.002 0.015c-0.002 0.015 -0.002 0.029 -0.005 0.044l-0.005 0.025 -0.002 0.03 -0.002 0.014c-0.002 0.022 -0.007 0.044 -0.009 0.066l-0.002 0.015 -0.002 0.019 -0.002 0.013c-0.002 0.03 -0.007 0.059 -0.012 0.089l-0.002 0.012 -0.002 0.012c-0.005 0.037 -0.012 0.075 -0.016 0.112v0.001c-0.391 2.498 -1.417 4.785 -2.908 6.692 -0.002 0.002 -0.005 0.004 -0.007 0.007 -2.58 3.292 -6.546 5.445 -11.015 5.576v0c-0.016 0 -0.03 0.001 -0.046 0.001l-0.005 0c-0.014 0 -0.028 0.001 -0.039 0.001l-0.021 0.001 -0.019 0 -0.023 0 -0.023 0 -0.023 0.001 -0.026 0 -0.021 0 -0.026 0 -0.021 0 -0.026 0 -0.023 0h-0.026l-0.023 0Zm-0.307 -6.642c-2.08 0.011 -4.045 0.131 -5.802 0.338 0.465 1.009 1.014 1.905 1.631 2.659 1.182 1.445 2.613 2.358 4.171 2.47Zm1.163 0.005v5.395c1.358 -0.255 2.606 -1.119 3.655 -2.403 0.616 -0.754 1.166 -1.65 1.631 -2.659 -1.61 -0.19 -3.397 -0.306 -5.286 -0.333m6.484 0.493c-0.537 1.24 -1.189 2.333 -1.928 3.236 -0.289 0.353 -0.591 0.678 -0.905 0.971 2.126 -0.759 4.006 -2.041 5.483 -3.692 -0.789 -0.197 -1.677 -0.37 -2.65 -0.515m-14.647 0c-0.972 0.145 -1.861 0.318 -2.65 0.515 1.477 1.651 3.357 2.933 5.483 3.692 -0.314 -0.294 -0.616 -0.618 -0.905 -0.971 -0.74 -0.903 -1.391 -1.996 -1.929 -3.236m-1.626 -7.815h-4.415l0.002 0.021v0.023l0.002 0.022v0.021l0.002 0.02v0.022l0.002 0.023v0.02l0.002 0.02v0.021l0.002 0.024v0.02l0.002 0.02v0.021l0.002 0.023v0.021l0.002 0.02 0.002 0.021v0.023l0.002 0.021 0.002 0.02v0.021l0.002 0.022 0.002 0.021 0.002 0.02v0.021l0.002 0.021 0.002 0.022c0.002 0.028 0.005 0.056 0.007 0.083v0.001c0.181 1.921 0.768 3.725 1.675 5.323l0.012 0.019 0.009 0.017 0.007 0.015 0.009 0.015 0.009 0.014a13.221 13.221 0 0 0 0.819 1.255c0.875 -0.243 1.891 -0.457 3.02 -0.634 -0.705 -1.982 -1.133 -4.266 -1.191 -6.706m22.303 0.192 0.002 -0.025 0.002 -0.02v-0.02l0.002 -0.024v-0.042l0.002 -0.02v-0.023l0.002 -0.018h-4.415c-0.058 2.441 -0.486 4.725 -1.191 6.706 1.128 0.177 2.145 0.391 3.02 0.634a13.272 13.272 0 0 0 0.819 -1.255l0.009 -0.014 0.009 -0.015 0.007 -0.015 0.012 -0.019 0.009 -0.017c0.907 -1.599 1.494 -3.402 1.675 -5.323v-0.001q0.003 -0.041 0.007 -0.083l0.002 -0.022 0.002 -0.021v-0.022l0.002 -0.022 0.002 -0.02 0.002 -0.021v-0.022l0.002 -0.022 0.002 -0.021v-0.02l0.002 -0.023 0.002 -0.022v-0.02l0.002 -0.02v-0.023l0.002 -0.022v-0.02l0.002 -0.02ZM25.913 21.277V15.123H18.45c0.061 2.393 0.491 4.627 1.2 6.541 1.88 -0.236 4.006 -0.376 6.263 -0.388M34.023 15.123H27.076v6.158c2.066 0.029 4.011 0.164 5.746 0.383 0.71 -1.915 1.14 -4.148 1.2 -6.541m-1.203 -7.711c-1.733 0.218 -3.68 0.354 -5.744 0.382v6.165H34.023c-0.06 -2.395 -0.491 -4.631 -1.203 -6.548m5.076 0.573c-0.267 -0.476 -0.565 -0.934 -0.886 -1.371 -0.875 0.243 -1.889 0.456 -3.017 0.633 0.705 1.983 1.135 4.269 1.193 6.713h4.415l-0.002 -0.022v-0.022l-0.002 -0.023v-0.02l-0.002 -0.02v-0.021l-0.002 -0.024v-0.02l-0.002 -0.02v-0.021l-0.002 -0.024v-0.021l-0.002 -0.02v-0.02l-0.002 -0.023v-0.021l-0.002 -0.02 -0.002 -0.02v-0.023l-0.002 -0.021 -0.002 -0.02v-0.021l-0.002 -0.022 -0.002 -0.022 -0.002 -0.02v-0.021c-0.002 -0.007 -0.002 -0.014 -0.002 -0.021l-0.002 -0.022 -0.002 -0.02 -0.002 -0.021v-0.021l-0.002 -0.022 -0.002 -0.021 -0.002 -0.021c0 -0.007 -0.002 -0.014 -0.002 -0.021l-0.002 -0.021c-0.184 -1.84 -0.742 -3.571 -1.596 -5.116l-0.012 -0.019 -0.009 -0.017 -0.009 -0.016 -0.007 -0.015 -0.009 -0.015Zm-18.243 -0.573c-0.712 1.916 -1.142 4.152 -1.203 6.548h7.463V7.8c-2.257 -0.012 -4.383 -0.151 -6.26 -0.387m-1.173 -0.165c-1.128 -0.177 -2.142 -0.39 -3.017 -0.633 -0.321 0.437 -0.619 0.895 -0.886 1.371l-0.009 0.018 -0.012 0.017 -0.002 0.007 -0.009 0.017 -0.012 0.018 -0.009 0.016c-0.854 1.545 -1.412 3.276 -1.596 5.116l-0.002 0.021c0 0.007 -0.002 0.014 -0.002 0.021l-0.002 0.021 -0.002 0.021 -0.002 0.021v0.021l-0.002 0.022 -0.002 0.021 -0.002 0.02c0 0.007 0 0.014 -0.002 0.021v0.022l-0.002 0.021 -0.002 0.02 -0.002 0.021v0.023l-0.002 0.021 -0.002 0.02v0.021l-0.002 0.023 -0.002 0.021v0.02l-0.002 0.02v0.023l-0.002 0.022v0.02l-0.002 0.02 -0.002 0.024v0.022l-0.002 0.02v0.02l-0.002 0.024v0.042l-0.002 0.02v0.024l-0.002 0.018h4.415c0.058 -2.443 0.489 -4.729 1.193 -6.713M25.913 1.176c-1.559 0.111 -2.989 1.025 -4.171 2.47 -0.616 0.752 -1.163 1.646 -1.626 2.652 1.752 0.207 3.717 0.327 5.797 0.338Zm1.163 0.067V6.632c1.889 -0.027 3.673 -0.143 5.281 -0.333 -0.463 -1.007 -1.01 -1.901 -1.626 -2.653 -1.049 -1.284 -2.296 -2.148 -3.655 -2.403M21.746 1.938c-2.124 0.758 -4.001 2.038 -5.479 3.686 0.789 0.197 1.677 0.37 2.647 0.515 0.537 -1.237 1.189 -2.328 1.926 -3.23 0.288 -0.353 0.591 -0.678 0.905 -0.971m8.98 0c0.314 0.294 0.616 0.618 0.905 0.971 0.737 0.902 1.389 1.992 1.926 3.23 0.97 -0.145 1.859 -0.318 2.647 -0.515 -1.475 -1.648 -3.355 -2.928 -5.479 -3.686m0 0" fill-opacity="1" fill-rule="evenodd"/></g></svg>