<svg id="Layer_5" enable-background="new 0 0 64 64" height="51" viewBox="0 0 6.375 6.375" width="51" xmlns="http://www.w3.org/2000/svg"><g><g><g><path d="M4.482 3.686v0.398l-0.475 0.08c-0.082 0.013 -0.164 0.02 -0.247 0.02 -0.097 0 -0.192 -0.009 -0.285 -0.028a1.494 1.494 0 0 1 -0.638 -0.29c-0.104 -0.081 -0.196 -0.174 -0.275 -0.28h1.457A0.398 0.398 0 0 0 4.283 3.686z" fill="#fcd770"/></g><g><path d="M0.996 5.379v0.398H0.199V0.199h0.797v3.387z" fill="#b27946"/></g><g><path d="M0.996 0.199h4.582v0.398H0.996z" fill="#b27946"/></g><g><path d="M5.578 0.598v0.742C5.379 1.128 5.096 0.996 4.781 0.996H0.996V0.598z" fill="#cf9e76"/></g><g><path d="m1.603 2.789 0.025 0.068L1.793 3.188h-0.797v-0.398z" fill="#cf9e76"/></g><g><path d="M3.784 2.937 3.885 2.988v0.199H2.348c-0.016 -0.045 -0.03 -0.092 -0.042 -0.139L2.291 2.988l0.05 -0.199H3.686v-0.011c0 0.068 0.038 0.129 0.099 0.159" fill="#cf9e76"/></g><g><path d="M3.885 3.287c0 0.12 0.053 0.226 0.135 0.299H2.563c-0.091 -0.12 -0.163 -0.253 -0.215 -0.398H3.885z" fill="#cf9e76"/></g><g><path d="M1.912 3.586H0.996v-0.398h0.797c0.026 0.139 0.067 0.272 0.12 0.398" fill="#cf9e76"/></g><g><path d="M3.984 5.379v0.398H0.996v-0.398h1.992z" fill="#cf9e76"/></g><g><path d="M2.988 4.642V5.379H1.992V3.753a1.953 1.953 0 0 0 0.996 0.889" fill="#ff826e"/></g><g><path d="M3.984 4.781v0.598H2.988v-0.737a1.952 1.952 0 0 0 0.725 0.139z" fill="#fcd770"/></g><g><path d="M0.996 5.379V3.586h0.916c0.024 0.057 0.051 0.113 0.08 0.166V5.379z" fill="#e6e9ed"/></g><g><path d="M3.686 2.191v0.598h-0.697V0.996h1.494c-0.295 0 -0.553 0.16 -0.689 0.398A0.782 0.782 0 0 0 3.686 1.793z" fill="#ff826e"/></g><g><path d="M2.988 0.996v1.793h-0.647l0.042 -0.167c0.005 -0.021 0.008 -0.043 0.008 -0.065 0 -0.073 -0.03 -0.139 -0.078 -0.188 -0.049 -0.048 -0.116 -0.078 -0.188 -0.078H1.992V0.996z" fill="#e6e9ed"/></g><g><path d="M1.916 2.391a0.323 0.323 0 0 0 -0.314 0.398H0.996V0.996h0.996v1.395z" fill="#fcd770"/></g><g><path d="m3.845 2.57 -0.088 0.066a0.179 0.179 0 0 0 -0.072 0.142V1.793c0 -0.145 0.039 -0.282 0.108 -0.398 0.136 -0.238 0.394 -0.398 0.689 -0.398h0.299c0.315 0 0.598 0.131 0.797 0.344 0.185 0.196 0.299 0.461 0.299 0.752v1.29c0 0.13 0.052 0.256 0.144 0.349l0.01 0.01a0.493 0.493 0 0 1 0.085 0.584c-0.038 0.07 -0.092 0.128 -0.157 0.173a1.036 1.036 0 0 0 -0.728 -0.399L5.08 4.084v-0.598l0.243 -0.182c0.098 -0.074 0.155 -0.188 0.155 -0.311 0 -0.089 -0.03 -0.172 -0.083 -0.239a0.388 0.388 0 0 0 -0.212 -0.138L5.08 2.59a0.966 0.966 0 0 0 -0.282 -0.68l-0.233 -0.233a0.282 0.282 0 0 0 -0.398 0c-0.051 0.051 -0.083 0.122 -0.083 0.199V2.092c0 0.188 -0.089 0.366 -0.239 0.478" fill="#656d78"/></g><g><path d="M5.578 5.578v0.598H3.984V4.781h-0.271c-0.144 0 -0.285 -0.016 -0.421 -0.046 0.016 -0.205 0.08 -0.403 0.183 -0.579v-0.001c0.093 0.019 0.188 0.028 0.285 0.028 0.083 0 0.165 -0.007 0.247 -0.02L4.482 4.084l0.011 0.021C4.547 4.214 4.659 4.283 4.781 4.283s0.234 -0.069 0.288 -0.178L5.08 4.084l0.15 0.014c0.298 0.027 0.558 0.178 0.728 0.399A1.036 1.036 0 0 1 6.176 5.133V5.578z" fill="#5cd6b3"/></g><g><path d="M5.578 5.578h0.598v0.598h-0.598z" fill="#f0d0b4"/></g><g><path d="M5.08 3.486v0.598l-0.011 0.021C5.015 4.214 4.904 4.283 4.781 4.283s-0.234 -0.069 -0.288 -0.178L4.482 4.084v-0.398h-0.199a0.398 0.398 0 0 1 -0.263 -0.1c-0.083 -0.073 -0.135 -0.179 -0.135 -0.299v-0.299l-0.101 -0.051c-0.061 -0.03 -0.099 -0.092 -0.099 -0.159 0 -0.056 0.027 -0.109 0.072 -0.142l0.088 -0.066A0.598 0.598 0 0 0 4.084 2.092v-0.216c0 -0.078 0.032 -0.148 0.083 -0.199a0.282 0.282 0 0 1 0.398 0l0.233 0.233A0.966 0.966 0 0 1 5.08 2.59l0.104 0.026c0.087 0.022 0.16 0.072 0.212 0.138 0.053 0.067 0.083 0.15 0.083 0.239 0 0.123 -0.058 0.237 -0.155 0.311z" fill="#f0d0b4"/></g><g><path d="M2.348 3.188c0.052 0.145 0.125 0.279 0.215 0.398 0.079 0.106 0.171 0.199 0.275 0.28a1.494 1.494 0 0 0 0.638 0.29v0.001a1.345 1.345 0 0 0 -0.183 0.579A1.953 1.953 0 0 1 1.992 3.753v-0.001c-0.029 -0.054 -0.056 -0.11 -0.08 -0.166 -0.053 -0.127 -0.094 -0.259 -0.12 -0.398l-0.165 -0.331 -0.025 -0.068a0.323 0.323 0 0 1 0.314 -0.398H1.992v-0.1h0.132c0.073 0 0.139 0.03 0.188 0.078 0.048 0.049 0.078 0.116 0.078 0.188 0 0.022 -0.003 0.044 -0.008 0.065L2.341 2.789l-0.05 0.199 0.015 0.06c0.012 0.048 0.026 0.095 0.042 0.139" fill="#f0d0b4"/></g></g><g><path d="M6.275 4.089a0.59 0.59 0 0 0 -0.174 -0.419l-0.01 -0.01A0.39 0.39 0 0 1 5.977 3.382V2.092c0 -0.302 -0.113 -0.577 -0.299 -0.788V0.1H0.1v5.777h3.785v0.398h2.391V5.132c0 -0.228 -0.066 -0.44 -0.181 -0.618A0.592 0.592 0 0 0 6.275 4.089m-0.324 -0.288 0.01 0.01a0.393 0.393 0 0 1 0.011 0.545 1.136 1.136 0 0 0 -0.732 -0.357L5.18 3.993V3.536l0.203 -0.152A0.491 0.491 0 0 0 5.578 2.993a0.488 0.488 0 0 0 -0.37 -0.474l-0.031 -0.008a1.053 1.053 0 0 0 -0.308 -0.672l-0.233 -0.233A0.379 0.379 0 0 0 4.366 1.494 0.382 0.382 0 0 0 3.984 1.875V2.092a0.501 0.501 0 0 1 -0.199 0.398v-0.697c0 -0.384 0.313 -0.697 0.697 -0.697h0.299c0.549 0 0.996 0.447 0.996 0.996v1.29c0 0.158 0.062 0.307 0.174 0.419M4.98 3.437v0.624c-0.038 0.076 -0.114 0.123 -0.199 0.123s-0.161 -0.047 -0.199 -0.123V3.785h0.199v-0.199h-0.498c-0.165 0 -0.299 -0.134 -0.299 -0.299v-0.36l-0.156 -0.078a0.079 0.079 0 0 1 -0.043 -0.07c0 -0.025 0.012 -0.048 0.031 -0.063l0.088 -0.066A0.7 0.7 0 0 0 4.184 2.092v-0.216a0.182 0.182 0 0 1 0.311 -0.129l0.233 0.233A0.857 0.857 0 0 1 4.98 2.59v0.078l0.179 0.045a0.289 0.289 0 0 1 0.219 0.281c0 0.091 -0.043 0.177 -0.116 0.231zM3.885 5.279h-0.797v-0.498a2.042 2.042 0 0 0 0.625 0.099H3.885zm1.594 -4.156A1.187 1.187 0 0 0 4.781 0.896H1.096V0.697h4.383zM2.614 3.486a1.395 1.395 0 0 1 -0.116 -0.199H3.785c0 0.071 0.015 0.138 0.042 0.199zM2.291 2.092v0.142A0.359 0.359 0 0 0 2.125 2.191H2.092V1.096h0.797v1.594h-0.42l0.011 -0.044q0.011 -0.044 0.011 -0.089A0.364 0.364 0 0 0 2.374 2.291H2.689v-0.199zm-0.398 0.202A0.42 0.42 0 0 0 1.497 2.689H1.096V1.096h0.797v1.096zM1.096 3.287h0.618q0.024 0.102 0.056 0.199H1.096zm0 -0.199v-0.199h0.437c0.002 0.004 0.003 0.009 0.006 0.013L1.632 3.088zm1.326 0c-0.006 -0.021 -0.014 -0.043 -0.019 -0.064L2.394 2.988l0.025 -0.1h1.193a0.274 0.274 0 0 0 0.128 0.138l0.046 0.023V3.088zm1.316 -1.793H3.287v0.199h0.351a0.896 0.896 0 0 0 -0.046 0.199H3.287v0.199h0.299v0.199h-0.299v0.199h0.299v0.398h-0.498V1.096h0.832a0.896 0.896 0 0 0 -0.183 0.199M1.096 3.686h0.754q0.021 0.045 0.043 0.088V5.279h-0.797zm0.996 0.399a2.059 2.059 0 0 0 0.797 0.622V5.279h-0.797zm-0.201 -0.915 -0.174 -0.357A0.222 0.222 0 0 1 1.893 2.493V2.789h0.199v-0.398h0.033a0.167 0.167 0 0 1 0.161 0.207L2.188 2.988l0.021 0.084a1.596 1.596 0 0 0 1.12 1.151 1.464 1.464 0 0 0 -0.12 0.388c-0.663 -0.188 -1.186 -0.737 -1.318 -1.442M2.783 3.686h1.204c0.083 0.062 0.185 0.1 0.296 0.1h0.1v0.214l-0.392 0.065A1.397 1.397 0 0 1 2.783 3.686M5.479 0.498H1.096V0.299h4.383zM0.299 0.299h0.598v5.379H0.299zm0.797 5.379v-0.199h2.789v0.199zm2.618 -0.996a1.853 1.853 0 0 1 -0.31 -0.027 1.265 1.265 0 0 1 0.128 -0.389c0.075 0.011 0.152 0.018 0.23 0.018 0.088 0 0.176 -0.007 0.263 -0.022l0.406 -0.068A0.418 0.418 0 0 0 4.781 4.383c0.145 0 0.277 -0.074 0.354 -0.194l0.086 0.008A0.935 0.935 0 0 1 6.076 5.132V5.479h-0.398v-0.598h-0.199v1.195H4.084V4.682zM5.678 6.076v-0.398h0.398v0.398z"/><path d="M1.295 1.693h0.398v0.199h-0.398z"/><path d="M1.295 2.092h0.398v0.199h-0.398z"/><path d="M1.295 1.295h0.398v0.199h-0.398z"/><path d="M1.295 4.283h0.398v0.199h-0.398z"/><path d="M1.295 4.682h0.398v0.199h-0.398z"/><path d="M1.295 3.885h0.398v0.199h-0.398z"/><path d="M2.291 1.693h0.398v0.199h-0.398z"/><path d="M2.291 1.295h0.398v0.199h-0.398z"/><path d="M2.291 4.682h0.398v0.199h-0.398z"/></g></g></svg>