<svg xmlns="http://www.w3.org/2000/svg" xmlns:xlink="http://www.w3.org/1999/xlink" width="70" zoomAndPan="magnify" viewBox="0 0 52.5 29.517" height="39.356" preserveAspectRatio="xMidYMid meet" version="1.0"><defs><clipPath id="7229083ad0"><path d="M12.684 0.007H35.256v29.502H12.684Zm0 0" clip-rule="nonzero"/></clipPath></defs><path fill="#000000" d="M19.163 17.929h-2.318c-0.557 0 -1.012 0.455 -1.012 1.011v2.317c0 0.556 0.455 1.011 1.012 1.011h2.318c0.557 0 1.012 -0.455 1.012 -1.011v-2.317c0 -0.56 -0.455 -1.011 -1.012 -1.011m0.337 3.328c0 0.185 -0.152 0.337 -0.337 0.337h-2.318c-0.186 0 -0.337 -0.152 -0.337 -0.337v-2.317c0 -0.185 0.152 -0.337 0.337 -0.337h2.318c0.186 0 0.337 0.152 0.337 0.337Zm0 0" fill-opacity="1" fill-rule="nonzero"/><path fill="#000000" d="M32.024 8.732H22.169c-0.278 0 -0.506 0.228 -0.506 0.506 0 0.278 0.228 0.505 0.506 0.505h9.855c0.278 0 0.506 -0.227 0.506 -0.505 0 -0.278 -0.228 -0.506 -0.506 -0.506m0 0" fill-opacity="1" fill-rule="nonzero"/><path fill="#000000" d="M32.53 14.895c0 -0.278 -0.228 -0.505 -0.506 -0.505H22.169c-0.278 0 -0.506 0.227 -0.506 0.505s0.228 0.505 0.506 0.505h9.855c0.278 0 0.506 -0.227 0.506 -0.505m0 0" fill-opacity="1" fill-rule="nonzero"/><path fill="#000000" d="M21.376 10.173c-0.156 -0.105 -0.363 -0.063 -0.468 0.093l-1.222 1.824c-0.152 -0.093 -0.329 -0.143 -0.523 -0.143h-2.318c-0.194 0 -0.38 0.055 -0.536 0.152l-0.034 -0.046c-0.105 -0.156 -0.316 -0.194 -0.468 -0.088 -0.156 0.105 -0.194 0.316 -0.088 0.468l0.156 0.232a0.989 0.989 0 0 0 -0.046 0.299v2.317c0 0.556 0.455 1.011 1.011 1.011h2.318c0.557 0 1.012 -0.455 1.012 -1.011v-2.317c0 -0.11 -0.017 -0.215 -0.051 -0.312l1.345 -2.005c0.105 -0.16 0.063 -0.371 -0.088 -0.472m-4.531 2.447h2.318c0.051 0 0.101 0.013 0.143 0.034l-1.07 1.601c-0.063 0.093 -0.143 0.143 -0.228 0.143 -0.084 0 -0.164 -0.051 -0.228 -0.139l-1.088 -1.597c0.042 -0.03 0.093 -0.042 0.152 -0.042m2.655 2.654c0 0.185 -0.152 0.337 -0.337 0.337h-2.318c-0.186 0 -0.337 -0.152 -0.337 -0.337v-1.689l0.712 1.049c0.19 0.278 0.472 0.434 0.784 0.434h0.004c0.312 0 0.599 -0.16 0.784 -0.442l0.704 -1.053v1.702Zm0 0" fill-opacity="1" fill-rule="nonzero"/><path fill="#000000" d="M21.376 4.317c-0.156 -0.105 -0.363 -0.063 -0.468 0.093l-1.168 1.736c-0.164 -0.114 -0.363 -0.185 -0.582 -0.185h-2.318c-0.223 0 -0.43 0.072 -0.594 0.194 -0.11 -0.122 -0.299 -0.147 -0.438 -0.05 -0.156 0.105 -0.194 0.316 -0.088 0.468l0.135 0.194c-0.013 0.067 -0.021 0.135 -0.021 0.206v2.317c0 0.556 0.455 1.011 1.012 1.011h2.318c0.557 0 1.012 -0.455 1.012 -1.011v-2.317c0 -0.076 -0.008 -0.152 -0.025 -0.223l1.319 -1.968c0.101 -0.152 0.059 -0.362 -0.093 -0.463m-2.213 2.321c0.076 0 0.148 0.025 0.207 0.072l-1.134 1.689c-0.063 0.093 -0.143 0.143 -0.228 0.143 -0.084 0 -0.164 -0.05 -0.228 -0.139l-1.146 -1.685c0.059 -0.046 0.131 -0.076 0.211 -0.076h2.318Zm0.337 2.654c0 0.185 -0.152 0.337 -0.337 0.337h-2.318c-0.186 0 -0.337 -0.152 -0.337 -0.337v-1.563l0.712 1.049c0.19 0.278 0.472 0.434 0.784 0.434h0.004c0.312 0 0.599 -0.16 0.784 -0.442l0.704 -1.053v1.576Zm0 0" fill-opacity="1" fill-rule="nonzero"/><path fill="#000000" d="m38.629 9.318 -0.75 -0.362c-0.826 -0.4 -1.829 -0.055 -2.23 0.771l-0.83 1.71 -5.126 10.532a2.362 2.362 0 0 0 -0.24 0.923l-0.19 3.674c-0.008 0.198 0.101 0.388 0.278 0.476a0.492 0.492 0 0 0 0.219 0.05c0.118 0 0.236 -0.042 0.329 -0.122l2.774 -2.418c0.244 -0.211 0.438 -0.468 0.582 -0.758l5.126 -10.54 0.831 -1.706c0.405 -0.83 0.059 -1.828 -0.771 -2.229m-2.078 0.843c0.16 -0.333 0.565 -0.472 0.894 -0.308l0.75 0.362c0.333 0.16 0.472 0.565 0.308 0.893l-0.611 1.26 -1.956 -0.948Zm-4.346 13.641 -1.884 1.643 0.131 -2.498a1.327 1.327 0 0 1 0.139 -0.539l0.008 -0.017 1.956 0.948 -0.008 0.017c-0.084 0.173 -0.198 0.32 -0.341 0.447m0.658 -1.1 -0.257 -0.127 -1.695 -0.826 4.455 -9.159L37.322 13.539Zm0 0" fill-opacity="1" fill-rule="nonzero"/><path fill="#000000" d="M22.169 20.06c-0.278 0 -0.506 0.227 -0.506 0.505s0.228 0.506 0.506 0.506h6.778c0.278 0 0.506 -0.228 0.506 -0.506s-0.228 -0.505 -0.506 -0.505Zm0 0" fill-opacity="1" fill-rule="nonzero"/><g clip-path="url(#7229083ad0)"><path fill="#000000" d="M34.713 22.828c-0.274 0 -0.497 0.223 -0.497 0.497v3.737c0 0.796 -0.645 1.445 -1.446 1.445H15.125c-0.797 0 -1.446 -0.645 -1.446 -1.445V2.455c0 -0.796 0.645 -1.445 1.446 -1.445h17.645c0.797 0 1.446 0.645 1.446 1.445v6.825c0 0.274 0.223 0.497 0.497 0.497 0.274 0 0.497 -0.223 0.497 -0.497V2.455C35.211 1.107 34.119 0.016 32.77 0.016H15.125c-1.349 0 -2.441 1.091 -2.441 2.439v24.607c0 1.348 1.092 2.439 2.441 2.439h17.645c1.349 0 2.441 -1.091 2.441 -2.439v-3.737c0 -0.274 -0.223 -0.497 -0.497 -0.497m0 0" fill-opacity="1" fill-rule="nonzero"/></g></svg>