<svg xmlns="http://www.w3.org/2000/svg" xmlns:xlink="http://www.w3.org/1999/xlink" width="70" zoomAndPan="magnify" viewBox="0 0 52.5 29.517" height="39.356" preserveAspectRatio="xMidYMid meet" version="1.0"><defs><clipPath id="9b8f4d310a"><path d="M26.039 26.729H32.438v2.775H26.039Zm0 0" clip-rule="nonzero"/></clipPath><clipPath id="2cc962ca99"><path d="M16.281 0.014h25.892V25.622H16.281Zm0 0" clip-rule="nonzero"/></clipPath></defs><g clip-path="url(#9b8f4d310a)"><path fill="#ffb30f" d="M29.228 29.504c1.456 0 2.694 -0.93 3.154 -2.228 0.092 -0.261 -0.098 -0.536 -0.375 -0.536H26.449c-0.277 0 -0.468 0.275 -0.375 0.536 0.46 1.298 1.698 2.228 3.154 2.228" fill-opacity="1" fill-rule="nonzero"/></g><g clip-path="url(#2cc962ca99)"><path fill="#ffc50f" d="m41.859 22.804 -0.845 -1.459a10.282 10.282 0 0 1 -1.384 -5.152v-3.45c0 -4.969 -3.486 -9.122 -8.145 -10.153v-0.319C31.485 1.025 30.474 0.014 29.228 0.014c-1.247 0 -2.258 1.01 -2.258 2.257v0.319c-4.659 1.032 -8.145 5.184 -8.145 10.153v3.45c0 1.809 -0.477 3.586 -1.384 5.152l-0.845 1.459c-0.815 1.195 0.041 2.814 1.487 2.814H40.371c1.446 0 2.302 -1.619 1.487 -2.814" fill-opacity="1" fill-rule="nonzero"/></g><path fill="#ff1723" d="M41.463 5.813c0 2.715 -2.201 4.917 -4.917 4.917 -2.716 0 -4.918 -2.202 -4.918 -4.917 0 -2.715 2.202 -4.917 4.918 -4.917 2.716 0 4.917 2.201 4.917 4.917" fill-opacity="1" fill-rule="nonzero"/><path fill="#ffffff" d="M37.304 3.179v5.268h-1.315v-2.824q0 -0.612 -0.029 -0.735 -0.029 -0.124 -0.161 -0.187 -0.132 -0.063 -0.587 -0.063h-0.13V4.022q0.953 -0.205 1.448 -0.843z" fill-opacity="1" fill-rule="nonzero"/></svg>