<svg xmlns="http://www.w3.org/2000/svg" viewBox="0 0 6.25 6.25" width="50" height="50"><path d="M4.883 2.441a1.758 1.758 0 1 0 -2.706 1.48A0.56 0.56 0 0 1 2.441 4.391V4.785a0.293 0.293 0 0 0 0.293 0.293h0.781a0.293 0.293 0 0 0 0.293 -0.293v-0.387a0.575 0.575 0 0 1 0.271 -0.481A1.756 1.756 0 0 0 4.883 2.441" fill="#e39d10"/><path d="M2.637 5.664a0.293 0.293 0 0 0 0.293 0.293h0.391a0.293 0.293 0 0 0 0.293 -0.293v-0.586H2.637z" fill="#ebebeb"/><path d="m5.488 1.408 0.307 -0.23 -0.352 -0.469 -0.307 0.23a0.195 0.195 0 0 1 -0.31 -0.184l0.054 -0.38L4.3 0.293l-0.054 0.38a0.195 0.195 0 0 1 -0.35 0.09l-0.23 -0.307 -0.469 0.352 0.23 0.307a0.195 0.195 0 0 1 -0.184 0.31l-0.38 -0.054 -0.083 0.58 0.38 0.054a0.195 0.195 0 0 1 0.09 0.35l-0.307 0.23 0.352 0.469 0.307 -0.23a0.195 0.195 0 0 1 0.311 0.184l-0.055 0.38 0.58 0.083 0.055 -0.38a0.195 0.195 0 0 1 0.35 -0.09l0.23 0.307 0.469 -0.352 -0.23 -0.307a0.195 0.195 0 0 1 0.184 -0.311l0.38 0.054 0.083 -0.58L5.577 1.758a0.195 0.195 0 0 1 -0.09 -0.35M4.369 2.565a0.684 0.684 0 1 1 0.684 -0.684 0.684 0.684 0 0 1 -0.684 0.684" fill="#10bde0"/><path d="M2.177 3.922a1.758 1.758 0 0 1 -0.241 -0.186A0.487 0.487 0 1 1 1.465 3.125c0.015 0 0.029 0.003 0.044 0.004A1.758 1.758 0 0 1 1.368 2.441h-0.124l-0.067 0.321a0.098 0.098 0 0 1 -0.151 0.06L0.756 2.637l-0.293 0.293 0.186 0.27a0.098 0.098 0 0 1 -0.06 0.151L0.267 3.418v0.391l0.321 0.067a0.098 0.098 0 0 1 0.06 0.151L0.463 4.297l0.293 0.293 0.27 -0.186a0.098 0.098 0 0 1 0.151 0.06l0.067 0.321h0.391l0.067 -0.321a0.098 0.098 0 0 1 0.151 -0.06L2.123 4.59l0.307 -0.307a0.568 0.568 0 0 0 -0.253 -0.362" fill="#c9dfff"/><path d="m5.971 1.715 -0.38 -0.054a0.098 0.098 0 0 1 -0.045 -0.175l0.307 -0.23a0.098 0.098 0 0 0 0.02 -0.137l-0.352 -0.469a0.098 0.098 0 0 0 -0.137 -0.02l-0.307 0.23A0.098 0.098 0 0 1 4.922 0.77l0.054 -0.38a0.098 0.098 0 0 0 -0.083 -0.111l-0.58 -0.083a0.098 0.098 0 0 0 -0.111 0.083l-0.054 0.38a0.098 0.098 0 0 1 -0.175 0.045l-0.23 -0.307a0.098 0.098 0 0 0 -0.137 -0.02l-0.293 0.22a1.895 1.895 0 0 0 -0.399 0 1.855 1.855 0 0 0 -1.636 1.664c-0.003 0.028 -0.004 0.055 -0.005 0.083h-0.029a0.098 0.098 0 0 0 -0.096 0.078l-0.067 0.321L0.811 2.556a0.098 0.098 0 0 0 -0.125 0.011l-0.293 0.293a0.098 0.098 0 0 0 -0.011 0.124l0.186 0.27 -0.321 0.067a0.098 0.098 0 0 0 -0.077 0.096v0.391a0.098 0.098 0 0 0 0.078 0.096l0.321 0.067 -0.186 0.27a0.098 0.098 0 0 0 0.011 0.124l0.293 0.293a0.098 0.098 0 0 0 0.125 0.011l0.27 -0.186 0.067 0.321a0.098 0.098 0 0 0 0.096 0.078h0.391a0.098 0.098 0 0 0 0.096 -0.078l0.067 -0.321 0.27 0.186a0.098 0.098 0 0 0 0.124 -0.011L2.344 4.507V4.785a0.39 0.39 0 0 0 0.195 0.336V5.664a0.391 0.391 0 0 0 0.391 0.391h0.391a0.391 0.391 0 0 0 0.391 -0.391v-0.543A0.39 0.39 0 0 0 3.906 4.785v-0.387a0.479 0.479 0 0 1 0.226 -0.399 1.855 1.855 0 0 0 0.23 -0.176l-0.13 -0.146a1.66 1.66 0 0 1 -0.206 0.157A0.673 0.673 0 0 0 3.711 4.399V4.785a0.195 0.195 0 0 1 -0.195 0.195h-0.781a0.195 0.195 0 0 1 -0.195 -0.195v-0.395a0.657 0.657 0 0 0 -0.31 -0.551 1.655 1.655 0 0 1 0.875 -3.057 0.098 0.098 0 0 0 -0.004 0.011 0.098 0.098 0 0 0 0.019 0.072l0.23 0.307a0.096 0.096 0 0 1 0.006 0.108 0.097 0.097 0 0 1 -0.098 0.047l-0.38 -0.054a0.098 0.098 0 0 0 -0.111 0.083l-0.083 0.58a0.098 0.098 0 0 0 0.083 0.111l0.38 0.054a0.098 0.098 0 0 1 0.045 0.175l-0.307 0.23a0.098 0.098 0 0 0 -0.02 0.137l0.352 0.469a0.098 0.098 0 0 0 0.137 0.02l0.307 -0.23a0.098 0.098 0 0 1 0.155 0.092l-0.054 0.38a0.098 0.098 0 0 0 0.083 0.111l0.58 0.083a0.098 0.098 0 0 0 0.014 0.001 0.098 0.098 0 0 0 0.097 -0.084l0.054 -0.38a0.098 0.098 0 0 1 0.175 -0.045l0.23 0.307a0.098 0.098 0 0 0 0.137 0.02l0.469 -0.352a0.098 0.098 0 0 0 0.02 -0.137l-0.23 -0.307a0.096 0.096 0 0 1 -0.006 -0.108 0.095 0.095 0 0 1 0.098 -0.047l0.38 0.054a0.098 0.098 0 0 0 0.111 -0.083l0.083 -0.58a0.098 0.098 0 0 0 -0.083 -0.111zM1.443 3.223a1.855 1.855 0 0 0 0.363 0.522A0.39 0.39 0 1 1 1.439 3.223zM3.32 5.859h-0.391a0.195 0.195 0 0 1 -0.195 -0.195v-0.098h0.781v0.098a0.195 0.195 0 0 1 -0.195 0.195m0.195 -0.684v0.195h-0.781v-0.195zm-1.195 -0.922L2.111 4.463l-0.203 -0.14a0.195 0.195 0 0 0 -0.302 0.121L1.555 4.688h-0.232l-0.051 -0.243a0.195 0.195 0 0 0 -0.302 -0.121L0.767 4.463l-0.178 -0.178 0.14 -0.203a0.195 0.195 0 0 0 -0.121 -0.302l-0.243 -0.051v-0.232l0.243 -0.051A0.195 0.195 0 0 0 0.729 3.145l-0.14 -0.203L0.767 2.764l0.203 0.14a0.195 0.195 0 0 0 0.302 -0.121l0.017 -0.081a1.855 1.855 0 0 0 0.077 0.331 0.586 0.586 0 1 0 0.591 0.85A1.855 1.855 0 0 0 2.124 4.004a0.477 0.477 0 0 1 0.197 0.25M5.791 2.282l-0.283 -0.04a0.293 0.293 0 0 0 -0.276 0.466l0.172 0.229 -0.313 0.234 -0.172 -0.229a0.293 0.293 0 0 0 -0.524 0.134L4.355 3.359l-0.387 -0.055 0.04 -0.283a0.293 0.293 0 0 0 -0.466 -0.276l-0.229 0.172 -0.234 -0.313 0.229 -0.172a0.293 0.293 0 0 0 -0.134 -0.524l-0.283 -0.04 0.055 -0.387 0.283 0.04a0.293 0.293 0 0 0 0.276 -0.466l-0.172 -0.229 0.313 -0.234 0.172 0.229a0.293 0.293 0 0 0 0.524 -0.134l0.04 -0.283 0.387 0.055 -0.04 0.283a0.293 0.293 0 0 0 0.466 0.276l0.229 -0.172 0.234 0.313 -0.229 0.172a0.293 0.293 0 0 0 0.134 0.524l0.283 0.04z"/><path d="M4.369 1.1a0.781 0.781 0 1 0 0.781 0.781 0.782 0.782 0 0 0 -0.781 -0.781m0 1.367a0.586 0.586 0 1 1 0.586 -0.586 0.587 0.587 0 0 1 -0.586 0.586"/><path d="M3.027 4.492h0.195v0.293h-0.195z"/><path d="M2.698 3.533A1.172 1.172 0 0 1 2.5 1.45l-0.104 -0.165A1.367 1.367 0 0 0 2.627 3.715 0.623 0.623 0 0 1 3.027 4.297h0.195a0.817 0.817 0 0 0 -0.525 -0.764"/><path d="M4.98 3.809h0.684v0.195h-0.684z"/><path d="m4.82 4.47 0.125 -0.15 0.586 0.488 -0.125 0.15z"/><path d="M4.395 4.59h0.195v0.684h-0.195z"/><path d="m0.269 1.858 0.781 -0.195 0.047 0.189 -0.781 0.195z"/><path d="M0.432 0.861 0.545 0.702l0.684 0.488 -0.114 0.159z"/><path d="m1.268 0.219 0.189 -0.048 0.2 0.781 -0.189 0.048z"/></svg>