<svg xmlns="http://www.w3.org/2000/svg" xmlns:xlink="http://www.w3.org/1999/xlink" width="70" zoomAndPan="magnify" viewBox="0 0 52.5 29.517" height="39.356" preserveAspectRatio="xMidYMid meet" version="1.0"><defs><clipPath id="12b149d55a"><path d="M15.168 17.423h11.991v12.087H15.168Zm0 0" clip-rule="nonzero"/></clipPath></defs><path fill="#020b0a" d="M29.897 14.021c3.005 -3.037 3.005 -7.953 0 -10.977 -3.006 -3.037 -7.87 -3.037 -10.862 0 -2.755 2.771 -2.979 7.127 -0.699 10.164l-8.529 8.618c-0.461 0.466 -0.461 1.226 0 1.692 0.461 0.466 1.213 0.466 1.674 0l8.555 -8.645c2.992 2.145 7.171 1.865 9.86 -0.853M18.007 8.533c0 -3.61 2.887 -6.527 6.459 -6.527 3.559 0 6.459 2.917 6.459 6.527 0 3.61 -2.9 6.528 -6.459 6.528 -3.572 0 -6.459 -2.917 -6.459 -6.528m0 0" fill-opacity="1" fill-rule="nonzero"/><path fill="#020b0a" d="M29.554 11.623c-0.501 -0.839 -1.199 -1.545 -2.017 -2.051 -0.685 0.959 -1.806 1.585 -3.071 1.585 -1.265 0 -2.386 -0.626 -3.071 -1.585 -0.831 0.506 -1.529 1.212 -2.03 2.051 1.041 1.745 2.939 2.917 5.101 2.917 2.162 0 4.047 -1.172 5.088 -2.917m0 0" fill-opacity="1" fill-rule="nonzero"/><path fill="#020b0a" d="M24.466 10.757c1.872 0 3.375 -1.519 3.375 -3.41 0 -1.892 -1.503 -3.424 -3.375 -3.424 -1.872 0 -3.388 1.532 -3.388 3.424 0 1.891 1.516 3.41 3.388 3.41m0 0" fill-opacity="1" fill-rule="nonzero"/><g clip-path="url(#12b149d55a)"><path fill="#020b0a" d="M21.171 17.445c-3.295 0 -5.971 2.704 -5.971 6.034 0 3.33 2.676 6.034 5.971 6.034 3.309 0 5.984 -2.704 5.984 -6.034 0 -3.33 -2.676 -6.034 -5.984 -6.034m0 1.705c1.753 0 3.177 1.439 3.177 3.211 0 1.772 -1.424 3.21 -3.177 3.21S17.994 24.132 17.994 22.36c0 -1.772 1.424 -3.211 3.177 -3.211m0 9.964c-2.03 0 -3.796 -1.092 -4.772 -2.731 0.461 -0.786 1.107 -1.438 1.872 -1.918 0.646 0.919 1.714 1.505 2.9 1.505 1.2 0 2.254 -0.586 2.913 -1.505 0.764 0.48 1.41 1.132 1.872 1.918 -0.975 1.639 -2.755 2.731 -4.785 2.731m0 0" fill-opacity="1" fill-rule="nonzero"/></g><path fill="#020b0a" d="M38.175 7.094c-2.715 0 -4.917 2.225 -4.917 4.982 0 2.744 2.201 4.969 4.917 4.969s4.93 -2.225 4.93 -4.969c0 -2.757 -2.215 -4.982 -4.93 -4.982m0 1.465c1.424 0 2.584 1.172 2.584 2.611 0 1.439 -1.16 2.598 -2.584 2.598s-2.57 -1.159 -2.57 -2.598 1.147 -2.611 2.57 -2.611m0 8.086c-1.648 0 -3.085 -0.893 -3.875 -2.225 0.356 -0.599 0.857 -1.119 1.463 -1.505 0.541 0.759 1.424 1.252 2.412 1.252 1.002 0 1.885 -0.493 2.426 -1.252 0.593 0.386 1.094 0.906 1.463 1.505 -0.791 1.332 -2.241 2.225 -3.889 2.225m0 0" fill-opacity="1" fill-rule="nonzero"/><path fill="#020b0a" d="M32.547 16.259c-2.333 0 -4.218 1.905 -4.218 4.249s1.885 4.25 4.218 4.25c2.32 0 4.205 -1.905 4.205 -4.25s-1.885 -4.249 -4.205 -4.249m0 1.292c1.199 0 2.175 0.986 2.175 2.198 0 1.212 -0.975 2.198 -2.175 2.198 -1.2 0 -2.175 -0.986 -2.175 -2.198 0 -1.212 0.975 -2.198 2.175 -2.198m0 6.807c-1.384 0 -2.61 -0.746 -3.269 -1.865 0.29 -0.493 0.699 -0.919 1.173 -1.239 0.475 0.653 1.226 1.092 2.096 1.092 0.857 0 1.621 -0.44 2.083 -1.092 0.488 0.32 0.883 0.746 1.186 1.239 -0.672 1.119 -1.885 1.865 -3.269 1.865m0 0" fill-opacity="1" fill-rule="nonzero"/></svg>