<svg version="1.0" id="Layer_1" xmlns="http://www.w3.org/2000/svg" xmlns:xlink="http://www.w3.org/1999/xlink" width="50px" height="50px" viewBox="0 0 4 4" enable-background="new 0 0 64 64" xml:space="preserve"><g><path fill="#F9EBB2" d="M2.313 3.334a1.25 1.25 0 0 1 -0.125 0.025V3.75a0.125 0.125 0 0 1 -0.125 0.125h-0.125a0.125 0.125 0 0 1 -0.125 -0.125v-0.39a1.313 1.313 0 0 1 -0.125 -0.025c-0.539 -0.139 -0.938 -0.627 -0.938 -1.209a0.063 0.063 0 1 1 0.125 0C0.875 2.746 1.379 3.25 2 3.25s1.125 -0.504 1.125 -1.125a0.063 0.063 0 0 1 0.125 0c0 0.582 -0.399 1.07 -0.938 1.209"/><path fill="#45AAB8" d="M1.25 1.938h0.313a0.063 0.063 0 1 0 0 -0.125h-0.313v-0.25h0.313a0.063 0.063 0 1 0 0 -0.125h-0.313v-0.25h0.313a0.063 0.063 0 1 0 0 -0.125h-0.313v-0.188c0 -0.414 0.336 -0.75 0.75 -0.75s0.75 0.336 0.75 0.75v0.188h-0.313a0.063 0.063 0 1 0 0 0.125h0.313v0.25h-0.313a0.063 0.063 0 1 0 0 0.125h0.313v0.25h-0.313a0.063 0.063 0 1 0 0 0.125h0.313v0.188c0 0.414 -0.336 0.75 -0.75 0.75s-0.75 -0.336 -0.75 -0.75z"/><g><path fill="#394240" d="M2 3c0.483 0 0.875 -0.392 0.875 -0.875v-1.25c0 -0.483 -0.392 -0.875 -0.875 -0.875s-0.875 0.392 -0.875 0.875v1.25c0 0.483 0.392 0.875 0.875 0.875m-0.75 -1.063h0.313a0.063 0.063 0 1 0 0 -0.125h-0.313v-0.25h0.313a0.063 0.063 0 1 0 0 -0.125h-0.313v-0.25h0.313a0.063 0.063 0 1 0 0 -0.125h-0.313v-0.188c0 -0.414 0.336 -0.75 0.75 -0.75s0.75 0.336 0.75 0.75v0.188h-0.313a0.063 0.063 0 1 0 0 0.125h0.313v0.25h-0.313a0.063 0.063 0 1 0 0 0.125h0.313v0.25h-0.313a0.063 0.063 0 1 0 0 0.125h0.313v0.188c0 0.414 -0.336 0.75 -0.75 0.75s-0.75 -0.336 -0.75 -0.75z"/><path fill="#394240" d="M3.188 1.938a0.188 0.188 0 0 0 -0.188 0.187C3 2.677 2.552 3.125 2 3.125s-1 -0.448 -1 -1a0.188 0.188 0 0 0 -0.375 0c0 0.652 0.454 1.197 1.063 1.339V3.75a0.25 0.25 0 0 0 0.25 0.25h0.125a0.25 0.25 0 0 0 0.25 -0.25v-0.286c0.609 -0.142 1.063 -0.687 1.063 -1.339a0.188 0.188 0 0 0 -0.188 -0.187M2.313 3.334a1.25 1.25 0 0 1 -0.125 0.025V3.75a0.125 0.125 0 0 1 -0.125 0.125h-0.125a0.125 0.125 0 0 1 -0.125 -0.125v-0.39a1.313 1.313 0 0 1 -0.125 -0.025c-0.539 -0.139 -0.938 -0.627 -0.938 -1.209a0.063 0.063 0 1 1 0.125 0C0.875 2.746 1.379 3.25 2 3.25s1.125 -0.504 1.125 -1.125a0.063 0.063 0 0 1 0.125 0c0 0.582 -0.399 1.07 -0.938 1.209"/></g></g></svg>