<svg id="Capa_1" enable-background="new 0 0 512 512" height="50" viewBox="0 0 50 50" width="50" xmlns="http://www.w3.org/2000/svg"><g><g><g><g><path d="M45.148 36.221a6.551 6.551 0 0 1 -3.533 -1.034L38.906 33.451a9.18 9.18 0 0 0 -7.49 -1.092l-13.12 3.774c-1.08 0.311 -1.807 1.25 -1.901 2.304L5.194 31.814c-1.396 -0.826 -3.197 -0.357 -4.014 1.044 -0.797 1.366 -0.363 3.119 0.98 3.955l17.79 11.083a8.749 8.749 0 0 0 6.974 1.002l10.433 -2.906a14.707 14.707 0 0 1 3.945 -0.539H49.219v-9.231h-4.07z" fill="#ffd6bd"/><path d="m37.357 44.234 -10.433 2.906a8.75 8.75 0 0 1 -6.974 -1.002L2.16 35.055a2.914 2.914 0 0 1 -1.242 -1.604c-0.394 1.246 0.088 2.642 1.242 3.361l17.79 11.083a8.749 8.749 0 0 0 6.974 1.002l10.433 -2.906a14.707 14.707 0 0 1 3.945 -0.539H49.219v-1.758h-7.917a14.707 14.707 0 0 0 -3.945 0.539" fill="#f9c6aa"/><g><path d="m16.395 38.438 0.001 -0.008 -5.808 -8.001c-0.92 -1.267 -2.692 -1.548 -3.959 -0.629 -0.728 0.528 -1.129 1.338 -1.166 2.171z" fill="#edbca4"/></g><path d="m16.395 38.43 -2.226 -3.067 -8.221 -4.862a2.842 2.842 0 0 0 -0.486 1.47l10.932 6.466z" fill="#eaab92"/></g><path d="M16.535 37.794a2.629 2.629 0 0 0 -0.036 1.648c0.409 1.344 1.797 2.133 3.161 1.796l10.246 -2.529c0 -0.894 -0.839 -1.551 -1.707 -1.337l-8.539 2.108c-1.326 0.327 -2.675 -0.41 -3.125 -1.686" fill="#f9c6aa"/></g><g><path d="m8.464 15.365 15.895 -4.595a2.311 2.311 0 0 1 1.283 0l15.895 4.595c0.742 0.214 0.742 1.265 0 1.479l-15.895 4.595a2.311 2.311 0 0 1 -1.283 0l-15.895 -4.595c-0.742 -0.214 -0.742 -1.265 0 -1.479" fill="#407093"/><path d="M24.359 21.439 14.499 18.589v7.633a2.085 2.085 0 0 0 0.891 1.709c1.219 0.853 3.896 2.071 9.248 2.071 5.351 0 8.029 -1.218 9.249 -2.072a2.086 2.086 0 0 0 0.891 -1.709v-7.423l-9.136 2.641a2.309 2.309 0 0 1 -1.282 0" fill="#407093"/><path d="M25.641 21.439a2.309 2.309 0 0 1 -1.282 0L14.499 18.589v1.758l9.86 2.85a2.309 2.309 0 0 0 1.282 0l9.136 -2.641v-1.758z" fill="#365e7d"/><path d="M24.638 25.844c-8.237 0 -10.138 -2.886 -10.138 -2.886v3.263a2.085 2.085 0 0 0 0.891 1.709c1.219 0.853 3.896 2.071 9.248 2.071 5.352 0 8.029 -1.218 9.249 -2.072a2.086 2.086 0 0 0 0.891 -1.709v-3.263s-1.903 2.886 -10.14 2.886" fill="#ffe08c"/><path d="M33.886 26.172c-1.219 0.853 -3.897 2.072 -9.249 2.072 -5.351 0 -8.029 -1.218 -9.248 -2.071a2.086 2.086 0 0 1 -0.891 -1.709v1.758a2.085 2.085 0 0 0 0.891 1.709c1.219 0.853 3.896 2.071 9.248 2.071 5.352 0 8.029 -1.218 9.249 -2.072a2.086 2.086 0 0 0 0.891 -1.709v-1.758A2.086 2.086 0 0 1 33.886 26.172" fill="#f9d375"/></g><g><path cx="256" cy="89.454" fill="#ffe08c" r="81.454" d="M32.954 8.736A7.954 7.954 0 0 1 25 16.69A7.954 7.954 0 0 1 17.046 8.736A7.954 7.954 0 0 1 32.954 8.736z"/></g><path d="M25 14.932c-4.096 0 -7.467 -3.096 -7.905 -7.076a8.008 8.008 0 0 0 -0.049 0.879c0 4.393 3.561 7.954 7.954 7.954s7.954 -3.561 7.954 -7.954c0 -0.297 -0.018 -0.59 -0.049 -0.879 -0.438 3.979 -3.809 7.076 -7.905 7.076" fill="#f9d375"/></g><g><path d="M49.266 35.511H45.188a5.815 5.815 0 0 1 -3.144 -0.921l-0.243 -0.156a0.733 0.733 0 0 0 -1.014 0.222 0.734 0.734 0 0 0 0.222 1.014l0.243 0.156a7.281 7.281 0 0 0 3.935 1.152h3.344v7.782h-7.198a15.469 15.469 0 0 0 -4.149 0.567l-10.452 2.912c-2.162 0.602 -4.496 0.267 -6.402 -0.92L9.463 40.547a0.734 0.734 0 0 0 -1.011 0.235 0.734 0.734 0 0 0 0.235 1.011l10.869 6.772C21.074 49.511 22.823 50 24.585 50c0.852 0 1.708 -0.114 2.542 -0.347l10.452 -2.912a14.004 14.004 0 0 1 3.756 -0.513h7.932a0.734 0.734 0 0 0 0.734 -0.734v-9.25a0.734 0.734 0 0 0 -0.734 -0.734"/><path d="M6.971 38.995 2.508 36.214c-1.015 -0.633 -1.338 -1.937 -0.736 -2.97 0.576 -1.036 2.007 -1.409 3.014 -0.784l10.854 6.42c0.015 0.27 0.062 0.54 0.143 0.806 0.517 1.732 2.344 2.731 4.045 2.298l10.265 -2.534a0.734 0.734 0 0 0 0.537 -0.888c-0.097 -0.393 -0.495 -0.634 -0.888 -0.537l-10.265 2.534c-0.988 0.243 -1.993 -0.328 -2.289 -1.301 -0.324 -0.988 0.296 -2.13 1.301 -2.396l13.144 -3.782a8.464 8.464 0 0 1 6.905 1.007 0.734 0.734 0 0 0 0.792 -1.236 9.932 9.932 0 0 0 -8.103 -1.182L18.084 35.451c-0.807 0.232 -1.483 0.743 -1.926 1.448l-5.001 -6.89c-1.096 -1.578 -3.46 -1.953 -4.991 -0.792a3.555 3.555 0 0 0 -1.263 1.682c-1.601 -0.605 -3.559 0.102 -4.399 1.604 -1.005 1.724 -0.466 3.9 1.227 4.955l4.463 2.781c0.339 0.213 0.795 0.112 1.011 -0.235a0.734 0.734 0 0 0 -0.235 -1.011m0.057 -8.59c0.902 -0.684 2.295 -0.463 2.941 0.467l3.75 5.166 -7.496 -4.434a2.092 2.092 0 0 1 0.806 -1.198"/><path d="m8.233 17.534 5.516 1.595v7.096a2.827 2.827 0 0 0 1.205 2.313c1.439 1.007 4.287 2.208 9.686 2.208s8.247 -1.201 9.687 -2.208a2.826 2.826 0 0 0 1.206 -2.313v-6.886l3.786 -1.095v6.461a0.734 0.734 0 1 0 1.468 0v-6.885l0.988 -0.286c0.65 -0.188 1.087 -0.769 1.087 -1.446s-0.437 -1.258 -1.087 -1.446l-8.761 -2.533c0.446 -1.046 0.693 -2.197 0.693 -3.404 0 -4.799 -3.904 -8.704 -8.703 -8.704 -1.744 0 -3.427 0.514 -4.866 1.487 -0.336 0.227 -0.424 0.683 -0.197 1.019s0.683 0.424 1.019 0.197c1.196 -0.808 2.595 -1.235 4.045 -1.235 3.99 0 7.235 3.246 7.235 7.236s-3.246 7.236 -7.235 7.236 -7.235 -3.246 -7.235 -7.236c0 -1.509 0.46 -2.955 1.33 -4.182a0.734 0.734 0 1 0 -1.197 -0.849c-1.047 1.476 -1.6 3.216 -1.6 5.031 0 1.207 0.247 2.358 0.693 3.404l-8.761 2.533c-0.65 0.188 -1.087 0.769 -1.087 1.446s0.437 1.258 1.087 1.446m25.832 8.691c0 0.442 -0.217 0.857 -0.579 1.111 -1.037 0.726 -3.565 1.943 -8.845 1.943s-7.808 -1.217 -8.844 -1.943a1.357 1.357 0 0 1 -0.579 -1.111v-1.678c0.264 0.168 0.573 0.343 0.933 0.516 2.101 1.007 4.957 1.518 8.49 1.518 5.154 0 7.977 -1.123 9.425 -2.044zm0 -3.539c-0.217 0.224 -0.735 0.675 -1.724 1.126 -1.302 0.593 -3.695 1.301 -7.701 1.301 -6.565 0 -8.89 -1.885 -9.423 -2.428v-3.132l8.94 2.585a3.043 3.043 0 0 0 1.693 0l8.215 -2.375zM8.619 16.06a0.068 0.068 0 0 1 0.021 -0.009l9.059 -2.619c1.553 2.391 4.246 3.976 7.304 3.976 3.057 0 5.751 -1.585 7.304 -3.976l9.059 2.619c0.016 0.004 0.021 0.009 0.021 0.009 0.008 0.01 0.008 0.045 0 0.055a0.068 0.068 0 0 1 -0.021 0.009l-15.924 4.604a1.575 1.575 0 0 1 -0.878 0l-15.924 -4.604c-0.016 -0.004 -0.021 -0.009 -0.021 -0.009 -0.008 -0.01 -0.008 -0.045 0 -0.055"/><path d="M23.516 11.105a0.734 0.734 0 0 0 -0.803 1.228c0.611 0.4 1.06 0.559 1.613 0.616v0.369a0.734 0.734 0 1 0 1.468 0v-0.44c1.122 -0.304 1.841 -1.271 2.001 -2.225 0.209 -1.246 -0.467 -2.372 -1.682 -2.801 -0.105 -0.037 -0.212 -0.076 -0.319 -0.115v-2.021c0.162 0.072 0.261 0.149 0.283 0.167a0.732 0.732 0 0 0 0.499 0.196 0.736 0.736 0 0 0 0.736 -0.736 0.734 0.734 0 0 0 -0.304 -0.595c-0.251 -0.211 -0.674 -0.452 -1.214 -0.566v-0.327a0.734 0.734 0 1 0 -1.468 0v0.377c-0.028 0.008 -0.056 0.015 -0.085 0.024 -0.822 0.248 -1.436 0.949 -1.602 1.83 -0.153 0.81 0.112 1.595 0.689 2.048 0.261 0.205 0.578 0.393 0.997 0.587v2.75c-0.266 -0.048 -0.482 -0.151 -0.81 -0.366m2.277 -1.796c0.61 0.304 0.594 0.861 0.554 1.101 -0.054 0.322 -0.242 0.66 -0.554 0.874zM24.234 6.978c-0.143 -0.112 -0.203 -0.356 -0.153 -0.622 0.03 -0.162 0.109 -0.343 0.244 -0.485v1.175q-0.048 -0.033 -0.091 -0.067"/></g></g></svg>