<svg xmlns="http://www.w3.org/2000/svg" xmlns:xlink="http://www.w3.org/1999/xlink" width="150" zoomAndPan="magnify" viewBox="0 0 112.5 63.25" height="84.334" preserveAspectRatio="xMidYMid meet" version="1.0"><defs><clipPath id="dff193f50f"><path d="M19.213 40.19H42.277v23.045H19.213Zm0 0" clip-rule="nonzero"/></clipPath></defs><g clip-path="url(#dff193f50f)"><path fill="#040606" d="M37.745 41.165c-1.175 -1.17 -3.065 -1.17 -4.17 0l-13.485 13.485c-1.17 1.175 -1.17 3.06 0 4.17l3.585 3.58c0.585 0.59 1.3 0.85 2.085 0.85 0.78 0 1.565 -0.325 2.085 -0.85l13.485 -13.479c1.17 -1.175 1.17 -3.065 0 -4.17z" fill-opacity="1" fill-rule="nonzero"/></g><path fill="#040606" d="M70.51 36.741c-3.325 3.32 -7.685 5.145 -12.375 5.145s-9.055 -1.825 -12.38 -5.145c-6.84 -6.84 -6.84 -17.915 0 -24.69 6.84 -6.84 17.98 -6.84 24.755 -0.065 6.84 6.84 6.84 17.915 0 24.749Zm3.255 -27.944c-8.595 -8.665 -22.605 -8.665 -31.199 0 -7.685 7.684 -8.6 19.929 -2.215 28.659l-0.715 0.715c-0.655 0.65 -0.655 1.76 0 2.41l2.345 2.345c0.65 0.65 1.76 0.65 2.41 0l0.715 -0.715c3.845 2.864 8.465 4.235 13.03 4.235 5.665 0 11.395 -2.15 15.629 -6.45 8.6 -8.665 8.6 -22.605 0 -31.199" fill-opacity="1" fill-rule="nonzero"/></svg>