<svg xmlns:xlink="http://www.w3.org/1999/xlink" width="50px" height="50px" viewBox="0 0 64 64" class="icon" version="1.1" xmlns="http://www.w3.org/2000/svg"><path d="M32 64C14.356 64 0 49.644 0 32S14.356 0 32 0s32 14.356 32 32 -14.356 32 -32 32m0 -58.669C17.294 5.331 5.331 17.294 5.331 32S17.294 58.669 32 58.669 58.669 46.706 58.669 32 46.706 5.331 32 5.331" fill="#3688FF"/><path d="M27.175 43.013c-0.463 0 -0.919 -0.119 -1.331 -0.356 -0.825 -0.475 -1.331 -1.356 -1.331 -2.313V24c0 -0.95 0.506 -1.831 1.331 -2.313 0.825 -0.475 1.844 -0.475 2.669 0l14.156 8.175c0.825 0.475 1.331 1.356 1.331 2.313 0 0.95 -0.506 1.831 -1.331 2.313L28.506 42.656c-0.412 0.244 -0.869 0.356 -1.331 0.356m2.669 -14.394v7.112l6.156 -3.556z" fill="#5F6379"/></svg>