<svg xmlns="http://www.w3.org/2000/svg" xmlns:xlink="http://www.w3.org/1999/xlink" width="70" zoomAndPan="magnify" viewBox="0 0 52.5 29.517" height="39.356" preserveAspectRatio="xMidYMid meet" version="1.0"><defs><clipPath id="d7407dcac5"><path d="M14.564 0.051H36.281v29.414H14.564Zm0 0" clip-rule="nonzero"/></clipPath></defs><g clip-path="url(#d7407dcac5)"><path fill="#000000" d="M21.107 0.052c-0.151 0 -0.293 0.065 -0.392 0.177L14.675 7.169a0.515 0.515 0 0 0 -0.127 0.342V28.93c0 0.283 0.231 0.515 0.516 0.515l20.677 0.018c0.286 0 0.518 -0.232 0.518 -0.518v-8.13c0.008 -0.291 -0.226 -0.531 -0.518 -0.531 -0.291 0 -0.526 0.24 -0.52 0.531v7.613l-19.636 -0.017V8.029H21.838c0.286 0 0.518 -0.232 0.518 -0.517V2.763c0.006 -0.291 -0.234 -0.529 -0.526 -0.525 -0.285 0.004 -0.514 0.239 -0.51 0.525v4.23h-5.119l5.14 -5.906h13.881v8.51c-0.006 0.291 0.228 0.531 0.52 0.531s0.526 -0.24 0.518 -0.531V0.571c0 -0.286 -0.232 -0.518 -0.518 -0.518Zm0 0" fill-opacity="1" fill-rule="evenodd"/></g><path fill="#000000" d="M20.584 9.469c-0.29 -0.003 -0.526 0.228 -0.526 0.518 0 0.289 0.236 0.521 0.526 0.517h9.641c0.287 0.004 0.526 -0.228 0.526 -0.517 0 -0.289 -0.238 -0.521 -0.526 -0.518Zm0 0" fill-opacity="1" fill-rule="nonzero"/><path fill="#000000" d="M18.535 12.216c-0.29 -0.004 -0.526 0.228 -0.526 0.518 0 0.289 0.236 0.521 0.526 0.517h2.205c0.289 0.004 0.526 -0.228 0.526 -0.517 0 -0.289 -0.236 -0.522 -0.526 -0.518Zm0 0" fill-opacity="1" fill-rule="nonzero"/><path fill="#000000" d="M22.832 12.216c-0.289 -0.004 -0.526 0.228 -0.526 0.518 0 0.289 0.236 0.521 0.526 0.517h9.437c0.29 0.004 0.526 -0.228 0.526 -0.517a0.517 0.517 0 0 0 -0.526 -0.518Zm0 0" fill-opacity="1" fill-rule="nonzero"/><path fill="#000000" d="M18.535 14.962c-0.29 -0.004 -0.526 0.228 -0.526 0.517 0 0.289 0.236 0.522 0.526 0.518h10.869c0.289 0.004 0.526 -0.228 0.526 -0.518 0 -0.289 -0.236 -0.521 -0.526 -0.517Zm0 0" fill-opacity="1" fill-rule="nonzero"/><path fill="#000000" d="m30.474 19.247 1.318 1.317 -0.866 1.625 -1.788 0.444 1.514 -1.513c0.341 -0.329 0.095 -0.906 -0.379 -0.89 -0.136 0.004 -0.263 0.059 -0.356 0.157l-1.509 1.511 0.442 -1.783Zm8.305 -8.422 1.418 1.42c-2.188 3.02 -4.264 5.313 -7.567 7.693l-1.528 -1.53c2.376 -3.312 4.631 -5.44 7.676 -7.582m1.961 -1.167c0.166 -0.002 0.323 0.055 0.487 0.175 0.223 0.165 0.303 0.517 -0.03 0.999 -0.131 0.19 -0.258 0.368 -0.39 0.554l-1.154 -1.156c0.185 -0.126 0.36 -0.249 0.552 -0.375 0.194 -0.129 0.369 -0.194 0.534 -0.198m0.157 -1.022c-0.411 -0.027 -0.855 0.083 -1.265 0.354 -4.041 2.669 -6.825 5.164 -9.78 9.421L28.158 19.304c-0.129 0.07 -0.222 0.192 -0.258 0.335l-0.947 3.817c-0.095 0.377 0.248 0.722 0.625 0.629l3.822 -0.948a0.51 0.51 0 0 0 0.333 -0.261l0.895 -1.692c4.264 -2.955 6.676 -5.791 9.422 -9.764 0.558 -0.807 0.465 -1.769 -0.088 -2.32 -0.276 -0.276 -0.655 -0.438 -1.066 -0.464m0 0" fill-opacity="1" fill-rule="nonzero"/><path fill="#000000" d="M20.713 19.893c-0.457 0.303 -0.927 0.782 -1.395 1.355 -0.937 1.15 -1.839 2.608 -2.013 3.807 -0.128 0.872 0.327 1.513 0.79 1.77 0.462 0.257 0.923 0.253 0.923 0.253 0.692 0.013 0.71 -1.022 0.019 -1.035 0 0 -0.246 -0.015 -0.44 -0.124 -0.196 -0.108 -0.344 -0.181 -0.268 -0.716 0.11 -0.75 0.937 -2.249 1.793 -3.298 0.279 -0.341 0.556 -0.649 0.808 -0.866 0.239 -0.204 0.439 -0.244 0.487 0.122 0.021 0.173 0.008 0.381 -0.025 0.628 -0.076 0.588 -0.244 1.277 -0.419 1.939 -0.175 0.662 -0.358 1.296 -0.468 1.812 -0.055 0.259 -0.099 0.487 -0.103 0.708 -0.002 0.111 0.004 0.219 0.04 0.349 0.038 0.128 0.122 0.295 0.297 0.403 0.253 0.158 0.583 0.19 0.853 0.114 0.271 -0.076 0.494 -0.226 0.712 -0.417 0.272 -0.235 0.559 -0.661 0.84 -1.03 -0.002 0.308 0.004 0.59 -0.002 0.881 -0.004 0.185 0.089 0.356 0.246 0.451 0.228 0.143 0.516 0.204 0.785 0.166 0.268 -0.04 0.512 -0.158 0.742 -0.322 0.461 -0.327 0.903 -0.845 1.392 -1.576 0.385 -0.573 -0.476 -1.149 -0.861 -0.576 -0.392 0.584 -0.754 0.98 -1.011 1.216 -0.229 0.207 -0.253 0.084 -0.25 -0.082 0.006 -0.311 0.019 -0.623 -0.011 -0.902 -0.042 -0.415 -0.189 -0.685 -0.474 -0.83 -0.379 -0.192 -0.699 0.084 -0.905 0.363 -0.431 0.581 -0.766 1.066 -1.051 1.346 -0.175 0.175 -0.259 0.101 -0.192 -0.199 0.097 -0.442 0.265 -1.005 0.423 -1.609 0.179 -0.676 0.357 -1.397 0.443 -2.071 0.088 -0.674 0.117 -1.304 -0.148 -1.854 -0.48 -0.606 -1.004 -0.497 -1.559 -0.178m0 0" fill-opacity="1" fill-rule="nonzero"/></svg>