<svg id="Layer_1" enable-background="new 0 0 512 512" viewBox="0 0 50 50" xmlns="http://www.w3.org/2000/svg" width="50" height="50"><g clip-rule="evenodd" fill-rule="evenodd"><g><g><path d="M35.365 49.122H7.579a1.353 1.353 0 0 1 -1.349 -1.349V18.867q0 -0.559 0.395 -0.954l6.205 -6.205q0.395 -0.395 0.954 -0.395h21.58c0.743 0 1.349 0.606 1.349 1.349v35.111a1.353 1.353 0 0 1 -1.349 1.349" fill="#72d561"/><path d="M35.365 49.122H7.579a1.353 1.353 0 0 1 -1.349 -1.349h27.785a1.353 1.353 0 0 0 1.349 -1.349V11.313c0.743 0 1.349 0.606 1.349 1.349v35.111a1.353 1.353 0 0 1 -1.349 1.349" fill="#3cbe52"/></g><g><path d="M32.325 46.081H4.539a1.353 1.353 0 0 1 -1.349 -1.349V15.826q0 -0.559 0.395 -0.954l6.205 -6.205q0.395 -0.395 0.954 -0.395h21.58c0.743 0 1.349 0.606 1.349 1.349v35.111a1.353 1.353 0 0 1 -1.349 1.349" fill="#ffda2d"/><path d="M32.325 46.081H4.539a1.353 1.353 0 0 1 -1.349 -1.349v-0.677h27.108a1.353 1.353 0 0 0 1.349 -1.349V8.273h0.677c0.743 0 1.349 0.606 1.349 1.349v35.111a1.353 1.353 0 0 1 -1.349 1.349" fill="#ffc700"/><path d="m7.701 10.757 2.089 -2.089q0.395 -0.395 0.954 -0.395h0.455v5.777c0 0.671 -0.547 1.219 -1.219 1.219H4.321c0.066 -0.143 0.176 -0.26 0.278 -0.395z" fill="#ffc700"/><path d="M8.166 36.471H12.941a0.431 0.431 0 0 1 0.427 0.427v4.775a0.431 0.431 0 0 1 -0.427 0.427H8.166a0.431 0.431 0 0 1 -0.427 -0.427v-4.775a0.431 0.431 0 0 1 0.427 -0.427m0 -24.219H12.941a0.431 0.431 0 0 1 0.427 0.427v4.775a0.431 0.431 0 0 1 -0.427 0.427H8.166a0.431 0.431 0 0 1 -0.427 -0.427v-4.775a0.431 0.431 0 0 1 0.427 -0.427m0 8.073H12.941a0.431 0.431 0 0 1 0.427 0.427v4.775a0.431 0.431 0 0 1 -0.427 0.427H8.166a0.431 0.431 0 0 1 -0.427 -0.427v-4.775a0.431 0.431 0 0 1 0.427 -0.427m0 8.073H12.941a0.431 0.431 0 0 1 0.427 0.427v4.775a0.431 0.431 0 0 1 -0.427 0.427H8.166a0.431 0.431 0 0 1 -0.427 -0.427v-4.775a0.431 0.431 0 0 1 0.427 -0.427" fill="#64b5f6"/><path d="M8.166 36.471H12.941a0.431 0.431 0 0 1 0.427 0.427v0.585H9.179a0.431 0.431 0 0 0 -0.427 0.427v4.19h-0.586a0.431 0.431 0 0 1 -0.427 -0.427v-4.775a0.431 0.431 0 0 1 0.427 -0.428m0 -24.219H12.941a0.431 0.431 0 0 1 0.427 0.427v0.585H9.179a0.431 0.431 0 0 0 -0.427 0.427v4.19h-0.586a0.431 0.431 0 0 1 -0.427 -0.427v-4.775a0.431 0.431 0 0 1 0.427 -0.427m0 8.073H12.941a0.431 0.431 0 0 1 0.427 0.427v0.585H9.179a0.431 0.431 0 0 0 -0.427 0.427v4.19h-0.586a0.431 0.431 0 0 1 -0.427 -0.427v-4.775a0.431 0.431 0 0 1 0.427 -0.427m0 8.073H12.941a0.431 0.431 0 0 1 0.427 0.427v0.585H9.179a0.431 0.431 0 0 0 -0.427 0.427v4.19h-0.586a0.431 0.431 0 0 1 -0.427 -0.427V28.824a0.431 0.431 0 0 1 0.427 -0.427" fill="#42a5f5"/><path d="M7.738 15.268h2.242c0.671 0 1.219 -0.547 1.219 -1.219v-1.797H8.166a0.431 0.431 0 0 0 -0.427 0.427z" fill="#42a5f5"/><path d="M7.738 15.268h1.014v-1.575a0.431 0.431 0 0 1 0.427 -0.427h2.02v-1.014H8.166a0.431 0.431 0 0 0 -0.427 0.427z" fill="#2d90f1"/><path d="M11.323 38.57a0.808 0.808 0 0 1 1.146 1.14l-1.365 1.377a0.808 0.808 0 0 1 -1.136 0.01l-0.762 -0.742a0.809 0.809 0 0 1 1.127 -1.159l0.188 0.183zm0 -8.073a0.808 0.808 0 1 1 1.146 1.14l-1.365 1.377a0.808 0.808 0 0 1 -1.136 0.01l-0.762 -0.742a0.809 0.809 0 0 1 1.127 -1.159l0.187 0.183zm0 -16.145a0.808 0.808 0 0 1 1.146 1.14l-1.365 1.377a0.808 0.808 0 0 1 -1.136 0.01l-0.762 -0.742a0.809 0.809 0 0 1 1.127 -1.159l0.187 0.183zm0 8.073a0.808 0.808 0 0 1 1.146 1.14l-1.365 1.377a0.808 0.808 0 0 1 -1.136 0.01l-0.762 -0.742a0.809 0.809 0 0 1 1.127 -1.159l0.187 0.183z" fill="#42a5f5"/><path d="M9.79 8.668 3.585 14.873q-0.18 0.18 -0.278 0.395h5.66c0.671 0 1.219 -0.547 1.219 -1.219V8.389q-0.215 0.098 -0.395 0.278" fill="#eff4f7"/></g><g><path d="m43.242 12.521 -3.808 6.595a0.667 0.667 0 0 1 -0.643 0.339l-7.636 -0.588c-1.776 -0.137 -3.248 -0.986 -4.255 -2.457l-4.327 -6.32a0.667 0.667 0 0 1 -0.027 -0.726l3.486 -6.038z" fill="#82a3ad"/><path d="m43.242 12.521 -3.808 6.595a0.667 0.667 0 0 1 -0.643 0.339l-7.636 -0.588c-1.776 -0.137 -3.248 -0.986 -4.255 -2.457l-0.719 -1.049c1.007 1.47 2.478 2.32 4.255 2.457l7.636 0.588a0.667 0.667 0 0 0 0.643 -0.339l3.514 -6.086z" fill="#688d97"/><path d="m22.528 0.879 15.229 1.174c0.141 0.011 0.34 0.142 0.443 0.292l8.548 12.482c0.103 0.15 0.072 0.264 -0.07 0.253l-15.229 -1.174c-0.141 -0.011 -0.34 -0.142 -0.443 -0.292L22.459 1.132c-0.103 -0.15 -0.072 -0.264 0.07 -0.253" fill="#b4d2d7"/><path d="m22.528 0.879 1.278 0.099 7.865 11.483c0.103 0.15 0.302 0.281 0.443 0.292l13.95 1.075 0.683 0.998c0.103 0.15 0.072 0.264 -0.07 0.253l-15.229 -1.174c-0.141 -0.011 -0.34 -0.142 -0.443 -0.292L22.459 1.132c-0.103 -0.15 -0.072 -0.264 0.07 -0.253" fill="#9bb9c3"/><path d="m42.333 20.784 0.633 2.055a0.324 0.324 0 0 1 -0.029 0.265l-1.532 2.655a0.333 0.333 0 0 1 -0.454 0.122l-2.729 -1.575a0.333 0.333 0 0 1 -0.122 -0.454l1.532 -2.655a0.324 0.324 0 0 1 0.214 -0.158l2.096 -0.478a0.333 0.333 0 0 1 0.392 0.226" fill="#ffda2d"/><path d="m42.333 20.784 0.633 2.055a0.324 0.324 0 0 1 -0.029 0.265l-1.532 2.655a0.333 0.333 0 0 1 -0.454 0.122l-0.576 -0.332a0.333 0.333 0 0 0 0.454 -0.122l1.532 -2.655a0.324 0.324 0 0 0 0.029 -0.265l-0.59 -1.917 0.141 -0.032a0.333 0.333 0 0 1 0.392 0.226" fill="#ffc700"/></g></g><path d="m44.125 15.666 -1.721 -0.132 -2.293 3.973c-0.265 0.459 -0.741 0.731 -1.264 0.731q-0.058 0 -0.116 -0.004l-1.236 -0.096v3.194l1.532 -2.653a0.784 0.784 0 0 1 0.502 -0.372l2.207 -0.504zm-1.963 7.216 -1.21 2.097 -1.953 -1.127 1.211 -2.097 1.499 -0.343zm-6.229 24.891v-27.755l-1.477 -0.115v24.829a2.133 2.133 0 0 1 -2.13 2.129H7.012v0.91c0 0.313 0.255 0.568 0.569 0.568h27.784c0.314 0 0.569 -0.255 0.569 -0.568M4.54 45.3a0.569 0.569 0 0 1 -0.569 -0.568V16.049h2.985v1.406c0 0.667 0.542 1.21 1.209 1.21H12.941c0.667 0 1.209 -0.543 1.209 -1.21v-4.775c0 -0.666 -0.542 -1.209 -1.209 -1.209h-1.975V9.054h10.859a1.451 1.451 0 0 0 0.103 1.478l1.41 2.059h-6.273a0.782 0.782 0 0 0 0 1.563h7.343l1.252 1.829h-8.595a0.781 0.781 0 0 0 -0.781 0.781c0 0.43 0.35 0.781 0.781 0.781h9.734c1.105 1.244 2.574 1.968 4.295 2.1l1.798 0.138v24.949a0.569 0.569 0 0 1 -0.569 0.568zm0.537 -30.814h3.89c0.24 0 0.436 -0.196 0.436 -0.437v-3.891zm3.442 2.617h4.069v-4.07h-1.622v0.892l0.095 -0.096a0.784 0.784 0 0 1 1.106 -0.005 0.78 0.78 0 0 1 0.005 1.105l-1.365 1.378a0.784 0.784 0 0 1 -0.556 0.231 0.784 0.784 0 0 1 -0.545 -0.223l-0.321 -0.312q-0.203 0.044 -0.419 0.045h-0.449zm14.733 -7.402 1.887 -3.27 5.222 7.625c0.199 0.289 0.594 0.596 1.028 0.629l9.287 0.715 -1.888 3.271 -7.575 -0.584c-1.532 -0.118 -2.802 -0.85 -3.67 -2.119zm0.586 -7.936 7.788 11.374 10.789 0.831 -8.236 -5.332a0.78 0.78 0 1 1 0.849 -1.312l10.125 6.553L37.581 2.824zm-1.368 -0.105 -0.002 -0.001zm25.003 13.766a0.882 0.882 0 0 1 -0.778 0.436q-0.038 0 -0.075 -0.003l-0.768 -0.06 -2.763 4.786 0.667 2.163a0.784 0.784 0 0 1 -0.07 0.62l-1.772 3.069a0.784 0.784 0 0 1 -0.677 0.391 0.784 0.784 0 0 1 -0.39 -0.105l-3.306 -1.908 -0.046 -0.03v22.988a2.133 2.133 0 0 1 -2.131 2.129H7.58a2.133 2.133 0 0 1 -2.131 -2.129V46.863h-0.909a2.133 2.133 0 0 1 -2.131 -2.129V15.827c0 -0.577 0.216 -1.099 0.625 -1.507l6.205 -6.204a2.088 2.088 0 0 1 1.506 -0.625h11.98l1.437 -2.49 -2.347 -3.426c-0.231 -0.338 -0.261 -0.726 -0.08 -1.04a0.892 0.892 0 0 1 0.854 -0.433l15.229 1.174c0.434 0.033 0.829 0.34 1.027 0.63l8.548 12.481c0.231 0.337 0.261 0.725 0.08 1.039M9.707 32.461l-0.762 -0.742a0.78 0.78 0 0 1 -0.014 -1.105 0.78 0.78 0 0 1 1.105 -0.014l0.206 0.201 0.82 -0.827a0.78 0.78 0 1 1 1.111 1.099L10.808 32.451a0.784 0.784 0 0 1 -0.556 0.231 0.784 0.784 0 0 1 -0.545 -0.222m19.419 -8.406a0.781 0.781 0 0 1 0 1.563H17.065a0.781 0.781 0 0 1 0 -1.563zm-12.061 -1.828a0.781 0.781 0 0 1 0 -1.563h8.026a0.781 0.781 0 0 1 0.781 0.781 0.781 0.781 0 0 1 -0.781 0.781zm0 8.073a0.781 0.781 0 0 1 -0.781 -0.781 0.781 0.781 0 0 1 0.781 -0.781h8.026c0.431 0 0.781 0.35 0.781 0.781a0.781 0.781 0 0 1 -0.781 0.781zm12.061 1.828a0.781 0.781 0 0 1 0 1.563H17.065a0.781 0.781 0 0 1 -0.781 -0.781c0 -0.43 0.35 -0.781 0.781 -0.781zM12.588 21.105v4.07H8.52v-4.07zm1.563 -0.352v4.775c0 0.666 -0.542 1.209 -1.209 1.209H8.167c-0.667 0 -1.209 -0.543 -1.209 -1.209v-4.775c0 -0.668 0.542 -1.21 1.209 -1.21h4.775c0.667 0 1.209 0.543 1.209 1.21m-4.443 3.635 -0.763 -0.742a0.78 0.78 0 1 1 1.091 -1.12l0.206 0.201 0.82 -0.827a0.783 0.783 0 0 1 1.111 1.101l-1.365 1.376a0.784 0.784 0 0 1 -0.556 0.231 0.784 0.784 0 0 1 -0.545 -0.222m2.881 4.79v4.069H8.52v-4.069zm1.563 -0.354v4.775c0 0.667 -0.542 1.209 -1.209 1.209H8.167c-0.667 0 -1.209 -0.542 -1.209 -1.209v-4.774c0 -0.667 0.542 -1.209 1.209 -1.209h4.775c0.667 0 1.209 0.542 1.209 1.209m-1.563 8.425v4.07H8.52v-4.07zm1.563 -0.352v4.775c0 0.666 -0.542 1.209 -1.209 1.209H8.167c-0.667 0 -1.209 -0.543 -1.209 -1.209v-4.775c0 -0.667 0.542 -1.21 1.209 -1.21h4.775c0.667 0 1.209 0.543 1.209 1.21m-4.443 3.635 -0.762 -0.742a0.78 0.78 0 1 1 1.091 -1.12l0.206 0.201 0.82 -0.827a0.784 0.784 0 0 1 1.106 -0.005 0.78 0.78 0 0 1 0.005 1.105l-1.365 1.377a0.784 0.784 0 0 1 -0.556 0.231 0.784 0.784 0 0 1 -0.545 -0.222m7.358 -2.163a0.781 0.781 0 0 1 -0.781 -0.781c0 -0.43 0.35 -0.781 0.781 -0.781h8.026a0.781 0.781 0 0 1 0 1.563zm12.842 2.611c0 0.431 -0.35 0.781 -0.781 0.781H17.066a0.782 0.782 0 0 1 0 -1.563h12.061a0.781 0.781 0 0 1 0.781 0.781"/></g></svg>