<svg xmlns="http://www.w3.org/2000/svg" xmlns:xlink="http://www.w3.org/1999/xlink" width="700" zoomAndPan="magnify" viewBox="0 0 525 295.169" height="393.558" preserveAspectRatio="xMidYMid meet" version="1.0"><defs><clipPath id="b9970e72da"><path d="M283.383 276.208h39.972v18.889h-39.972Zm0 0" clip-rule="nonzero"/></clipPath><clipPath id="fcd352a4ba"><path d="M134.439 160.907h156.117v8.2H134.439Zm0 0" clip-rule="nonzero"/></clipPath></defs><path fill="#000000" d="M373.152 27.316a10.063 10.063 0 0 1 -0.43 2.91 10.5 10.5 0 0 1 -0.753 1.816q-0.231 0.434 -0.507 0.843a9.625 9.625 0 0 1 -0.584 0.791q-0.312 0.38 -0.661 0.728a9.8 9.8 0 0 1 -1.519 1.244 9.8 9.8 0 0 1 -1.732 0.927q-0.455 0.189 -0.927 0.331a9.8 9.8 0 0 1 -2.909 0.432 9.8 9.8 0 0 1 -1.956 -0.192 9.625 9.625 0 0 1 -0.954 -0.24 9.625 9.625 0 0 1 -0.927 -0.331q-0.453 -0.189 -0.889 -0.42 -0.434 -0.233 -0.843 -0.507a9.8 9.8 0 0 1 -1.519 -1.244 9.625 9.625 0 0 1 -0.661 -0.728 9.975 9.975 0 0 1 -1.512 -2.524q-0.187 -0.453 -0.332 -0.926a9.975 9.975 0 0 1 -0.382 -3.892q0.047 -0.492 0.144 -0.973 0.096 -0.485 0.238 -0.955a10.237 10.237 0 0 1 0.753 -1.816 9.975 9.975 0 0 1 2.481 -3.022 9.625 9.625 0 0 1 0.791 -0.586 9.625 9.625 0 0 1 0.843 -0.504q0.436 -0.231 0.889 -0.42a9.625 9.625 0 0 1 0.927 -0.333q0.472 -0.142 0.954 -0.238a9.975 9.975 0 0 1 2.938 -0.144 9.975 9.975 0 0 1 3.741 1.136 9.975 9.975 0 0 1 3.024 2.481q0.311 0.381 0.584 0.789 0.276 0.41 0.507 0.843 0.231 0.436 0.42 0.889 0.189 0.457 0.333 0.927 0.142 0.472 0.238 0.955 0.095 0.48 0.143 0.973 0.049 0.488 0.049 0.982m0 0" fill-opacity="1" fill-rule="nonzero"/><path fill="#000000" d="M350.112 275.937s-3.645 -0.103 -3.472 5.198c0.172 5.303 0 13.123 0 13.123h3.472v-9.163l10.405 9.163h24.343c2.859 0 3.124 -4.214 0.283 -4.545 -2.119 -0.243 -4.638 -0.385 -7.627 -0.36Zm0 0" fill-opacity="1" fill-rule="nonzero"/><path fill="#cc5f4a" d="M350.112 275.937v-6.814l13.907 -4.064 -2.082 10.878 17.092 13.534h-7.864c-3.679 0 -7.219 -1.04 -9.938 -2.935 -3.678 -2.557 -8.624 -6.489 -11.116 -10.6m0 0" fill-opacity="1" fill-rule="nonzero"/><path fill="#ff3e4d" d="M371.374 109.223s12.546 23.214 5.658 88.379c-6.885 65.165 -8.955 73.542 -8.955 73.542l-22.677 -0.275 5.267 -161.647" fill-opacity="1" fill-rule="nonzero"/><g clip-path="url(#b9970e72da)"><path fill="#000000" d="M319.673 276.442s3.645 -0.103 3.474 5.198 0 13.123 0 13.123h-3.474v-9.161l-10.405 9.161h-23.278c-2.985 0 -3.171 -4.389 -0.2 -4.662a65.625 65.625 0 0 1 6.479 -0.242Zm0 0" fill-opacity="1" fill-rule="nonzero"/></g><path fill="#cc5f4a" d="m319.673 276.442 6.023 -21.912h-13.478l-4.372 21.912 -17.092 13.534h7.864c3.679 0 7.219 -1.043 9.942 -2.935 3.675 -2.559 8.621 -6.492 11.113 -10.6m0 0" fill-opacity="1" fill-rule="nonzero"/><path fill="#ff3e4d" d="M333.564 109.223s-3.883 13.324 -10.777 46.543c-7.488 36.094 -20.001 120.547 -20.001 120.547l24.118 -2.646L360.692 116.602l1.867 -12.75" fill-opacity="1" fill-rule="nonzero"/><path fill="#ff3e4d" d="M194.117 176.055v-7.838h38.474l0.963 8.936 -36.081 4.702Zm0 0" fill-opacity="1" fill-rule="nonzero"/><path fill="#000000" d="M252.691 201.261h-69.436a4.858 4.858 0 1 1 -0.002 -9.716h69.435a4.856 4.856 0 0 1 4.861 4.858 4.856 4.856 0 0 1 -4.858 4.858m0 0" fill-opacity="1" fill-rule="nonzero"/><path fill="#000000" d="M230.298 101.668q0 0.668 -0.13 1.326a6.737 6.737 0 0 1 -0.387 1.274 6.737 6.737 0 0 1 -1.472 2.2 6.737 6.737 0 0 1 -2.201 1.472 6.737 6.737 0 0 1 -1.272 0.387 6.737 6.737 0 0 1 -1.326 0.13q-0.667 0 -1.323 -0.13a6.737 6.737 0 0 1 -1.272 -0.387 6.737 6.737 0 0 1 -1.173 -0.627 6.825 6.825 0 0 1 -1.872 -1.872 7 7 0 0 1 -0.628 -1.173 7 7 0 0 1 -0.387 -1.272 6.825 6.825 0 0 1 0 -2.649q0.131 -0.656 0.387 -1.272 0.257 -0.618 0.628 -1.173a6.737 6.737 0 0 1 0.843 -1.029 7 7 0 0 1 1.029 -0.844q0.556 -0.373 1.173 -0.627a6.737 6.737 0 0 1 2.595 -0.516 6.737 6.737 0 0 1 2.599 0.516 6.737 6.737 0 0 1 2.2 1.472 6.737 6.737 0 0 1 0.845 1.029q0.371 0.555 0.626 1.173 0.257 0.614 0.387 1.272 0.131 0.656 0.13 1.323m0 0" fill-opacity="1" fill-rule="nonzero"/><path fill="#000000" d="M210.357 100.945q0 0.668 -0.13 1.323a6.825 6.825 0 0 1 -1.012 2.446 6.825 6.825 0 0 1 -1.874 1.873 6.808 6.808 0 0 1 -3.769 1.143q-0.668 0 -1.326 -0.13a6.737 6.737 0 0 1 -1.271 -0.387 6.737 6.737 0 0 1 -2.202 -1.472 6.737 6.737 0 0 1 -0.845 -1.029 6.737 6.737 0 0 1 -0.626 -1.173 6.737 6.737 0 0 1 -0.387 -1.272 6.825 6.825 0 0 1 0 -2.649q0.13 -0.654 0.387 -1.272 0.255 -0.616 0.626 -1.173a6.825 6.825 0 0 1 1.872 -1.871 6.737 6.737 0 0 1 1.174 -0.627 6.563 6.563 0 0 1 1.271 -0.387 6.737 6.737 0 0 1 2.649 0q0.658 0.129 1.272 0.387 0.618 0.255 1.173 0.627a7 7 0 0 1 1.029 0.843 7 7 0 0 1 0.845 1.029q0.371 0.557 0.626 1.173 0.255 0.619 0.387 1.272 0.129 0.656 0.13 1.326m0 0" fill-opacity="1" fill-rule="nonzero"/><path fill="#000000" d="m243.619 284.287 8.519 3.819c0.903 0.404 1.449 1.333 1.169 2.209 -0.22 0.695 -0.949 1.225 -2.842 1.257 -4.212 0.068 -22.852 -2.464 -22.852 -2.464v1.778l-8.649 -0.889s-0.606 -8.988 2.027 -10.301Zm0 0" fill-opacity="1" fill-rule="nonzero"/><path fill="#cc5f4a" d="m232.206 276.7 11.414 7.59s-1.468 3.432 -7.973 1.143c-6.505 -2.287 -14.653 -5.735 -14.653 -5.735l1.188 -3.969Zm0 0" fill-opacity="1" fill-rule="nonzero"/><path fill="#cc5f4a" d="m222.182 275.727 0.865 -27.547 11.314 -0.749 -2.054 32.266Zm0 0" fill-opacity="1" fill-rule="nonzero"/><path fill="#000000" d="m224.123 284.287 8.519 3.819c0.903 0.404 1.452 1.333 1.172 2.209 -0.222 0.695 -0.95 1.225 -2.845 1.257 -4.211 0.068 -22.85 -2.464 -22.85 -2.464v1.778l-8.652 -0.889s-0.605 -8.988 2.03 -10.301Zm0 0" fill-opacity="1" fill-rule="nonzero"/><path fill="#cc5f4a" d="m212.709 276.7 11.414 7.59s-1.467 3.432 -7.973 1.143c-6.505 -2.287 -14.651 -5.735 -14.651 -5.735l1.187 -3.969Zm0 0" fill-opacity="1" fill-rule="nonzero"/><path fill="#cc5f4a" d="m202.687 275.727 0.863 -27.547 11.316 -0.749 -2.054 32.266Zm0 0" fill-opacity="1" fill-rule="nonzero"/><path fill="#007785" d="M196.618 205.352c-1.216 -0.151 -1.936 -5.352 -2.074 -6.134a85.4 85.4 0 0 1 -1.358 -15.2c0.002 -1.066 0.346 -12.852 1.326 -12.852h43.151c6.496 0 11.302 8.886 9.842 18.191l-4.02 24.839 -17.5 -5.189 1.659 -13.69 -12.229 2.424 0.247 9.994 -19.045 -2.387m0 0" fill-opacity="1" fill-rule="nonzero"/><path fill="#007785" d="m193.303 191.174 6.928 83.57h16.415l2.257 -87.458Zm0 0" fill-opacity="1" fill-rule="nonzero"/><path fill="#007785" d="m224.931 190.929 -6.027 83.09 16.851 0.889 9.989 -78.442Zm0 0" fill-opacity="1" fill-rule="nonzero"/><path fill="#000000" d="M144.611 166.029h10.815v125.547h-10.815Zm0 0" fill-opacity="1" fill-rule="nonzero"/><path fill="#ffffff" d="M144.611 166.029h10.815v125.547h-10.815Zm0 0" fill-opacity="0.47" fill-rule="nonzero"/><path fill="#000000" d="M266.649 166.029h10.815v125.547h-10.815Zm0 0" fill-opacity="1" fill-rule="nonzero"/><path fill="#ffffff" d="M266.649 166.029h10.815v125.547h-10.815Zm0 0" fill-opacity="0.47" fill-rule="nonzero"/><path fill="#ff3e4d" d="m257.113 147.634 -6.975 -14.395a35.376 35.376 0 0 0 -21.103 -18.282l-3.629 -1.155 -23.742 0.549 -5.842 1.792a30.048 30.048 0 0 0 -17.082 13.482l-12.563 21.336a9.888 9.888 0 0 0 -1.054 7.492 10.08 10.08 0 0 0 9.978 7.572c13.23 -0.28 38.287 -0.863 38.658 -1.255 0.396 -0.415 25.272 -0.182 36.148 -0.06a7.893 7.893 0 0 0 7.191 -4.44 14.446 14.446 0 0 0 0.018 -12.637m-74.932 3.131 9.749 -12.208 1.794 14.681Zm50.803 3.369 2.552 -16.664 7.865 12.621Zm0 0" fill-opacity="1" fill-rule="nonzero"/><path fill="#000000" d="M230.295 80.5a15.925 15.925 0 0 1 -0.322 3.188 15.75 15.75 0 0 1 -0.397 1.556q-0.24 0.767 -0.555 1.509 -0.315 0.74 -0.703 1.449a16.625 16.625 0 0 1 -0.847 1.375 15.75 15.75 0 0 1 -0.978 1.286 16.625 16.625 0 0 1 -1.103 1.188 16.625 16.625 0 0 1 -1.22 1.076 16.625 16.625 0 0 1 -1.321 0.955 16.625 16.625 0 0 1 -1.41 0.824q-0.726 0.378 -1.487 0.684 -0.76 0.31 -1.547 0.541a16.625 16.625 0 0 1 -3.223 0.625 16.625 16.625 0 0 1 -1.641 0.08q-0.823 0 -1.641 -0.08a16.625 16.625 0 0 1 -3.223 -0.625 16.625 16.625 0 0 1 -1.547 -0.541 16.625 16.625 0 0 1 -1.486 -0.684 16.625 16.625 0 0 1 -1.411 -0.824 16.363 16.363 0 0 1 -2.538 -2.032 16.363 16.363 0 0 1 -2.084 -2.475 16.1 16.1 0 0 1 -1.55 -2.825 15.75 15.75 0 0 1 -0.553 -1.509q-0.241 -0.768 -0.401 -1.556a15.925 15.925 0 0 1 -0.324 -3.188 15.75 15.75 0 0 1 0.322 -3.187q0.161 -0.789 0.401 -1.556 0.236 -0.768 0.553 -1.512 0.315 -0.74 0.703 -1.449a16.625 16.625 0 0 1 0.847 -1.375 16.363 16.363 0 0 1 2.083 -2.476 16.363 16.363 0 0 1 2.538 -2.032 16.625 16.625 0 0 1 1.411 -0.824q0.724 -0.378 1.486 -0.684a16.625 16.625 0 0 1 1.547 -0.541 16.625 16.625 0 0 1 3.223 -0.625 16.625 16.625 0 0 1 1.641 -0.08q0.823 -0.002 1.641 0.08 0.821 0.079 1.628 0.234 0.807 0.157 1.594 0.39 0.787 0.231 1.547 0.541 0.76 0.306 1.487 0.684a16.8 16.8 0 0 1 3.95 2.856 16.625 16.625 0 0 1 1.103 1.188q0.522 0.62 0.978 1.286a16.1 16.1 0 0 1 1.55 2.825q0.315 0.742 0.555 1.51 0.238 0.766 0.397 1.556a15.75 15.75 0 0 1 0.324 3.187m0 0" fill-opacity="1" fill-rule="nonzero"/><path fill="#007785" d="M376.371 53.19s9.044 0.103 10.421 13.68c1.375 13.576 2.377 33.485 2.377 33.485l-11.883 1.015 -5.353 -34.524Zm0 0" fill-opacity="1" fill-rule="nonzero"/><path fill="#007785" d="M307.87 103.857a6.104 6.104 0 0 1 -2.982 -7.739l10.096 -25.359c1.556 -4.028 3.903 -5.813 7.364 -5.11 3.307 0.674 5.905 3.913 5.308 7.235l-11.45 27.818a6.104 6.104 0 0 1 -8.333 3.157m0 0" fill-opacity="1" fill-rule="nonzero"/><path fill="#007785" d="M330.575 52.001s-7.723 -0.597 -13.318 11.694c-5.654 12.418 -11.421 28.787 -11.421 28.787l8.922 10.329 18.806 -34.844Zm0 0" fill-opacity="1" fill-rule="nonzero"/><path fill="#cc5f4a" d="m266.277 83.741 -2.321 5.929 10.493 3.423a191.625 191.625 0 0 1 1.55 -7.396Zm0 0" fill-opacity="1" fill-rule="nonzero"/><path fill="#007785" d="m310.452 92.628 -34.454 -6.932a189 189 0 0 0 -1.551 7.396l30.896 10.087c4.12 1.971 9.186 2.312 10.181 -2.146a7.105 7.105 0 0 0 -5.072 -8.405m0 0" fill-opacity="1" fill-rule="nonzero"/><path fill="#cc5f4a" d="M268.707 86.342a8.776 8.776 0 0 0 -3.521 -3.334l-1.424 -0.737a13.737 13.737 0 0 0 -6.179 -1.542l-3.789 -0.04a1.456 1.456 0 0 0 -1.453 1.683 1.864 1.864 0 0 0 1.423 1.526l3.92 0.9 -13.263 4.036a1.129 1.129 0 0 0 -0.739 1.523l0.177 0.42a1.129 1.129 0 0 0 1.262 0.669l9.02 -2.394 -9.979 4.183a1.127 1.127 0 0 0 -0.641 1.564l0.149 0.299a1.124 1.124 0 0 0 1.381 0.565l9.03 -3.201 -6.321 3.936a1.129 1.129 0 0 0 -0.264 1.738l0.098 0.107c0.334 0.364 0.865 0.469 1.312 0.257l6.858 -3.622 -3.097 2.674a1.127 1.127 0 0 0 0.018 1.909 1.12 1.12 0 0 0 1.109 0.04l17.167 -9.349Zm0 0" fill-opacity="1" fill-rule="nonzero"/><path fill="#007785" d="m377.895 53.394 -25.697 -9.286 -25.707 9.384a2.572 2.572 0 0 0 -1.568 3.238c2.863 8.468 8.612 40.065 7.842 53.357l19.988 0.313 19.182 0.023c0.746 -13.275 4.744 -45.323 7.541 -53.805a2.567 2.567 0 0 0 -1.579 -3.224m0 0" fill-opacity="1" fill-rule="nonzero"/><path fill="#cc5f4a" d="M330.575 52.001s4.428 7.345 21.161 7.345 21.857 -7.506 21.857 -7.506l-21.395 -7.732Zm0 0" fill-opacity="1" fill-rule="nonzero"/><path fill="#000000" d="M373.315 77.598a0.317 0.317 0 0 1 -0.306 -0.401l2.846 -10.351a0.318 0.318 0 0 1 0.612 0.168l-2.846 10.351a0.324 0.324 0 0 1 -0.306 0.233m0 0" fill-opacity="1" fill-rule="nonzero"/><path fill="#000000" d="M330.325 74.287a0.324 0.324 0 0 1 -0.304 -0.227l-1.948 -6.443a0.324 0.324 0 0 1 0.214 -0.396 0.318 0.318 0 0 1 0.395 0.214l1.944 6.443a0.318 0.318 0 0 1 -0.213 0.396 0.438 0.438 0 0 1 -0.089 0.012m0 0" fill-opacity="1" fill-rule="nonzero"/><path fill="#000000" d="M365.486 16.345c0 8.314 -7.698 15.066 -16.243 15.066 -8.542 0 -15.467 -6.739 -15.467 -15.055s6.926 -15.058 15.466 -15.058c8.543 0 16.243 6.732 16.243 15.047m0 0" fill-opacity="1" fill-rule="nonzero"/><path fill="#cc5f4a" d="m344.612 34.598 0.378 15.351 13.535 -1.998 -2.39 -23.224Zm0 0" fill-opacity="1" fill-rule="nonzero"/><path fill="#000000" d="M344.794 42.007s7.135 0.135 7.801 -8.281l-7.928 3.495Zm0 0" fill-opacity="0.38" fill-rule="nonzero"/><path fill="#cc5f4a" d="M336.219 9.002c-1.095 0.927 -1.794 2.226 -2.074 3.629 -0.83 4.158 -2.464 12.205 -0.992 16.616 1.914 5.74 6.573 9.368 14.102 7.936 0 0 9.11 -1.489 10.88 -12.625 2.895 -18.219 -12.528 -23.49 -21.915 -15.558m0 0" fill-opacity="1" fill-rule="nonzero"/><path fill="#000000" d="M335.731 21.898a0.992 0.992 0 1 1 -1.922 -0.504 0.992 0.992 0 0 1 1.922 0.504m0 0" fill-opacity="1" fill-rule="nonzero"/><path fill="#000000" d="M344.132 22.066a0.992 0.992 0 1 1 -1.922 -0.504 0.992 0.992 0 0 1 1.922 0.504m0 0" fill-opacity="1" fill-rule="nonzero"/><path fill="#000000" d="M338.026 26.779a0.263 0.263 0 0 1 -0.079 -0.01l-1.592 -0.429a0.28 0.28 0 0 1 -0.191 -0.156 0.306 0.306 0 0 1 -0.01 -0.249l0.985 -2.368a0.299 0.299 0 1 1 0.553 0.229l-0.852 2.053 1.263 0.34a0.294 0.294 0 0 1 0.21 0.367 0.294 0.294 0 0 1 -0.289 0.222m0 0" fill-opacity="1" fill-rule="nonzero"/><path fill="#000000" d="M340.952 17.552a1.155 1.155 0 0 0 1.192 1.229c1.031 -0.037 2.538 0.01 3.948 0.413a1.004 1.004 0 0 0 1.244 -0.641c0.163 -0.499 -0.108 -0.982 -0.564 -1.235 -0.933 -0.522 -2.406 -1.281 -4.82 -0.838 -0.541 0.101 -0.963 0.525 -0.999 1.073m0 0" fill-opacity="1" fill-rule="nonzero"/><path fill="#000000" d="M336.751 17.559c-0.068 0.662 -0.522 1.216 -0.978 1.195 -0.69 -0.035 -1.713 0.01 -2.721 0.401 -0.376 0.147 -0.705 -0.119 -0.747 -0.625a1.4 1.4 0 0 1 0.558 -1.201c0.704 -0.508 1.808 -1.248 3.371 -0.815 0.35 0.098 0.574 0.508 0.518 1.046m0 0" fill-opacity="1" fill-rule="nonzero"/><path fill="#ffffff" d="m337.017 28.856 5.583 -0.644s0.352 2.286 -2.413 2.602 -3.169 -1.957 -3.169 -1.957m0 0" fill-opacity="1" fill-rule="nonzero"/><path fill="#000000" d="M355.497 24.783s-6.674 -4.356 -3.245 -12.661c0 0 9.228 2.744 7.707 3.91 -1.519 1.166 -4.462 8.752 -4.462 8.752m0 0" fill-opacity="1" fill-rule="nonzero"/><path fill="#000000" d="M354.172 14.62s-8.039 0.525 -22.683 0.024c0 0 0.81 -11.926 15.071 -13.178 13.218 -1.159 17.311 10.552 14.18 20.673l-5.744 1.508Zm0 0" fill-opacity="1" fill-rule="nonzero"/><path fill="#cc5f4a" d="M363.132 24.782q0 0.488 -0.095 0.966a5.25 5.25 0 0 1 -0.283 0.929 4.725 4.725 0 0 1 -0.459 0.857 4.725 4.725 0 0 1 -0.614 0.753q-0.346 0.343 -0.751 0.614a4.9 4.9 0 0 1 -0.857 0.459 5.25 5.25 0 0 1 -0.931 0.282 4.9 4.9 0 0 1 -1.934 0 5.25 5.25 0 0 1 -0.928 -0.282 4.725 4.725 0 0 1 -0.857 -0.459 5.25 5.25 0 0 1 -0.751 -0.614 4.953 4.953 0 0 1 -1.355 -2.538 4.9 4.9 0 0 1 0 -1.934 4.725 4.725 0 0 1 0.282 -0.929q0.187 -0.451 0.457 -0.857a5.25 5.25 0 0 1 0.616 -0.751q0.346 -0.346 0.751 -0.616a5.075 5.075 0 0 1 1.785 -0.74 4.9 4.9 0 0 1 0.968 -0.094q0.49 -0.002 0.968 0.094a5.25 5.25 0 0 1 0.931 0.282q0.448 0.187 0.857 0.459a4.9 4.9 0 0 1 1.365 1.368q0.273 0.406 0.459 0.857a5.25 5.25 0 0 1 0.282 0.929q0.096 0.48 0.096 0.966m0 0" fill-opacity="1" fill-rule="nonzero"/><path fill="#000000" d="M355.807 26.574a0.28 0.28 0 0 1 -0.275 -0.348c0.318 -1.314 0.947 -2.254 1.872 -2.79 1.424 -0.829 3.01 -0.387 3.077 -0.368a0.28 0.28 0 0 1 0.194 0.348 0.28 0.28 0 0 1 -0.346 0.192c-0.014 -0.004 -1.435 -0.392 -2.646 0.317 -0.782 0.458 -1.323 1.277 -1.603 2.434a0.28 0.28 0 0 1 -0.271 0.215m0 0" fill-opacity="1" fill-rule="nonzero"/><path fill="#ffffff" d="M355.015 52.181a5.74 5.74 0 0 0 -3.521 -2.45c-1.596 -0.362 -3.267 -0.04 -4.877 0.28l-6.162 1.23c-1.402 0.28 -2.825 0.569 -4.085 1.23s-2.361 1.769 -2.649 3.139c-0.656 -1.214 -2.02 -1.937 -3.402 -2.181s-2.809 -0.077 -4.205 0.089l-5.075 0.609c-1.216 0.145 -2.669 0.466 -3.08 1.599 0.257 0.177 0.597 0.271 0.856 0.451 1.337 0.917 2.698 1.845 4.244 2.37 1.586 0.537 3.297 0.625 4.979 0.602 4.034 -0.052 8.039 -0.703 12.005 -1.453 5.273 -0.997 11.06 -1.906 14.975 -5.518m0 0" fill-opacity="1" fill-rule="nonzero"/><path fill="#ff3e4d" d="m316.533 54.724 15.013 1.773 4.386 -0.703 20.944 -7.536 4.844 30.238 -20.907 7.751 -4.716 0.756 -14.7 -1.934Zm0 0" fill-opacity="1" fill-rule="nonzero"/><path fill="#cc5f4a" d="m316.533 54.724 15.013 1.773 4.386 -0.703 20.944 -7.536 4.844 30.238 -20.907 7.751 -4.716 0.756 -14.7 -1.934Zm0 0" fill-opacity="0.56" fill-rule="nonzero"/><path fill="#ff3e4d" d="m331.544 56.497 4.384 -0.703 4.881 30.454 -4.386 0.702Zm0 0" fill-opacity="1" fill-rule="nonzero"/><path fill="#007785" d="m389.674 106.283 -0.507 -5.927 -27.827 -12.371c-1.754 2.539 -3.427 5.246 -5.246 7.844l20.087 17.339c5.551 4.792 14.115 0.42 13.492 -6.886m0 0" fill-opacity="1" fill-rule="nonzero"/><path fill="#cc5f4a" d="m352.529 84.065 -4.651 4.671 8.218 7.094c1.818 -2.599 3.495 -5.304 5.246 -7.845Zm0 0" fill-opacity="1" fill-rule="nonzero"/><path fill="#cc5f4a" d="m350.437 69.302 4.093 6.668 1.528 -0.78a1.426 1.426 0 0 1 1.668 0.266 1.304 1.304 0 0 1 0.136 1.668l-5.094 7.164 -4.889 4.448c-3.558 -3.516 -3.675 -5.954 -3.126 -7.402 -0.067 -0.161 -0.14 -0.318 -0.2 -0.48l-2.082 -5.628a1.076 1.076 0 0 1 0.438 -1.445c0.376 -0.214 0.996 -0.32 1.648 0.746l-0.653 -1.067a1.12 1.12 0 0 1 0.479 -1.514c0.49 -0.28 1.179 -0.023 1.659 0.598l-0.397 -0.822a1.155 1.155 0 0 1 0.609 -1.608c0.57 -0.236 1.234 0.019 1.547 0.532l0.719 1.179 -0.46 -1.425c-0.289 -0.653 0.033 -1.421 0.745 -1.685 0.611 -0.228 1.302 0.051 1.634 0.591m0 0" fill-opacity="1" fill-rule="nonzero"/><path fill="#000000" d="M350.565 75.768a0.14 0.14 0 0 1 -0.124 -0.072l-2.389 -4.167a0.143 0.143 0 1 1 0.248 -0.142l2.389 4.167a0.14 0.14 0 0 1 -0.052 0.196 0.14 0.14 0 0 1 -0.073 0.018m0 0" fill-opacity="1" fill-rule="nonzero"/><path fill="#000000" d="M348.085 76.675a0.14 0.14 0 0 1 -0.121 -0.074l-1.957 -3.825a0.14 0.14 0 0 1 0.06 -0.185 0.14 0.14 0 0 1 0.182 0.06l1.957 3.825a0.14 0.14 0 0 1 -0.06 0.185 0.175 0.175 0 0 1 -0.061 0.014m0 0" fill-opacity="1" fill-rule="nonzero"/><path fill="#000000" d="M345.964 77.551a0.14 0.14 0 0 1 -0.122 -0.077l-1.582 -3.246a0.135 0.135 0 1 1 0.242 -0.121l1.584 3.246a0.136 0.136 0 0 1 -0.122 0.196m0 0" fill-opacity="1" fill-rule="nonzero"/><path fill="#cc5f4a" d="M227.015 88.413s2.544 -1.978 4.401 0.371c2.826 3.565 -2.118 10.022 -6.416 6.697Zm0 0" fill-opacity="1" fill-rule="nonzero"/><path fill="#000000" d="M226.629 93.555a0.201 0.201 0 0 1 -0.178 -0.292c1.598 -3.111 3.133 -2.67 3.199 -2.649a0.2 0.2 0 0 1 -0.117 0.382c-0.028 -0.005 -1.307 -0.31 -2.725 2.45a0.21 0.21 0 0 1 -0.178 0.108m0 0" fill-opacity="1" fill-rule="nonzero"/><path fill="#cc5f4a" d="M200.13 88.643s-2.931 -2.205 -4.79 0.14c-2.824 3.565 2.118 10.022 6.416 6.697Zm0 0" fill-opacity="1" fill-rule="nonzero"/><path fill="#000000" d="M200.13 93.555a0.21 0.21 0 0 1 -0.179 -0.108c-1.423 -2.779 -2.711 -2.453 -2.725 -2.45a0.205 0.205 0 0 1 -0.248 -0.135 0.201 0.201 0 0 1 0.13 -0.248c0.066 -0.019 1.601 -0.462 3.199 2.649a0.201 0.201 0 0 1 -0.178 0.292m0 0" fill-opacity="1" fill-rule="nonzero"/><path fill="#cc5f4a" d="m209.269 102.742 -1.096 11.552h10.861l-1.587 -11.679Zm0 0" fill-opacity="1" fill-rule="nonzero"/><path fill="#000000" d="M209.151 103.932c0.359 0.207 9.366 6.568 9.366 6.568l-1.071 -7.884Zm0 0" fill-opacity="0.38" fill-rule="nonzero"/><path fill="#cc5f4a" d="M199.717 80.484s-1.715 24.498 13.19 24.498c16.118 0 14.429 -24.498 14.429 -24.498s-0.093 -11.034 -13.933 -11.034c-12.688 0 -13.687 11.034 -13.687 11.034m0 0" fill-opacity="1" fill-rule="nonzero"/><path fill="#000000" d="M208.569 89.061a1.178 1.178 0 0 1 -2.355 0 1.178 1.178 0 0 1 2.355 0m0 0" fill-opacity="1" fill-rule="nonzero"/><path fill="#000000" d="M220.327 89.061a1.178 1.178 0 0 1 -2.355 0 1.178 1.178 0 0 1 2.354 0m0 0" fill-opacity="1" fill-rule="nonzero"/><path fill="#000000" d="M213.521 94.16h-0.002l-1.393 -0.025a0.21 0.21 0 0 1 -0.201 -0.207v-1.908a0.207 0.207 0 1 1 0.413 0v1.704l1.188 0.021a0.207 0.207 0 0 1 -0.004 0.415m0 0" fill-opacity="1" fill-rule="nonzero"/><path fill="#000000" d="M215.946 82.821s-0.364 1.337 1.715 1.368c1.579 0.023 3.503 0.432 4.414 0.627 0.516 0.11 1.071 -0.093 1.318 -0.472a0.7 0.7 0 0 0 -0.124 -0.927c-0.56 -0.516 -2.636 -1.701 -4.555 -1.747 -2.468 -0.06 -2.767 1.153 -2.767 1.153m0 0" fill-opacity="1" fill-rule="nonzero"/><path fill="#000000" d="M209.597 82.855s0.367 1.339 -1.715 1.368c-1.578 0.023 -3.503 0.432 -4.413 0.626 -0.518 0.11 -1.073 -0.089 -1.318 -0.472a0.7 0.7 0 0 1 0.122 -0.927c0.56 -0.516 2.636 -1.699 4.557 -1.747 2.467 -0.06 2.765 1.153 2.765 1.153m0 0" fill-opacity="1" fill-rule="nonzero"/><path fill="#ffffff" d="M215.821 96.471s-0.154 2.098 -2.951 2.098c-2.789 0 -2.949 -2.098 -2.949 -2.098 3.211 -1.486 5.899 0 5.899 0m0 0" fill-opacity="0.43" fill-rule="nonzero"/><path fill="#000000" d="M212.803 97.27c-2.117 0 -3.568 -0.821 -3.659 -0.872a0.21 0.21 0 0 1 -0.074 -0.284 0.201 0.201 0 0 1 0.283 -0.074c0.031 0.018 3.213 1.806 6.962 -0.009a0.21 0.21 0 0 1 0.277 0.096 0.21 0.21 0 0 1 -0.096 0.276 8.4 8.4 0 0 1 -3.692 0.866m0 0" fill-opacity="1" fill-rule="nonzero"/><path fill="#cc5f4a" d="m201.663 114.35 12.464 -2.613 11.28 2.063s-2.287 4.512 -11.716 4.415c-9.429 -0.094 -12.029 -3.867 -12.029 -3.867m0 0" fill-opacity="1" fill-rule="nonzero"/><path fill="#000000" d="M198.282 79.768s10.364 -2.786 11.49 -11.847c0 0 -11.028 -2.153 -11.49 11.847m0 0" fill-opacity="1" fill-rule="nonzero"/><path fill="#000000" d="M207.3 67.8s2.432 12.15 21.847 11.506c0 0 -1.258 -10.847 -10.969 -12.617 -9.711 -1.766 -10.878 1.111 -10.878 1.111m0 0" fill-opacity="1" fill-rule="nonzero"/><path fill="#cc5f4a" d="m209.351 147.385 -7.336 0.983 -0.605 -1.621c-0.219 -0.588 -0.788 -1.034 -1.388 -1.089 -0.62 -0.053 -1.113 0.325 -1.188 0.912l-0.968 8.174 0.656 6.372c4.886 0.53 6.568 -0.864 7.114 -2.156 0.154 -0.046 0.31 -0.088 0.46 -0.142l5.192 -1.859c0.535 -0.108 0.809 -0.637 0.623 -1.206 -0.135 -0.413 -0.514 -0.941 -1.687 -0.782l1.173 -0.158c0.565 -0.116 0.849 -0.683 0.641 -1.281 -0.177 -0.536 -0.847 -0.898 -1.601 -0.882l0.829 -0.2c0.616 -0.124 0.907 -0.774 0.606 -1.435 -0.261 -0.571 -0.91 -0.913 -1.473 -0.836l-1.295 0.173 1.265 -0.521c0.637 -0.18 0.903 -0.889 0.558 -1.584 -0.297 -0.599 -0.978 -0.945 -1.577 -0.865m0 0" fill-opacity="1" fill-rule="nonzero"/><path fill="#000000" d="M192.195 138.765a0.21 0.21 0 0 1 -0.2 -0.147l-2.769 -8.887a0.208 0.208 0 1 1 0.397 -0.124l2.768 8.886a0.21 0.21 0 0 1 -0.198 0.271m0 0" fill-opacity="1" fill-rule="nonzero"/><path fill="#000000" d="M235.536 137.678a0.263 0.263 0 0 1 -0.06 -0.009 0.21 0.21 0 0 1 -0.14 -0.261l2.07 -6.799a0.208 0.208 0 0 1 0.397 0.122l-2.068 6.799a0.21 0.21 0 0 1 -0.2 0.145m0 0" fill-opacity="1" fill-rule="nonzero"/><path fill="#000000" d="M213.444 158.952a0.208 0.208 0 0 1 -0.056 -0.41l16.212 -4.61a0.21 0.21 0 0 1 0.257 0.144 0.21 0.21 0 0 1 -0.144 0.257l-16.212 4.61a0.263 0.263 0 0 1 -0.058 0.009m0 0" fill-opacity="1" fill-rule="nonzero"/><path fill="#ff3e4d" d="M229.541 100.048a3.64 3.64 0 0 1 -2.17 -0.718 3.64 3.64 0 0 1 -1.426 -3.6 0.231 0.231 0 1 1 0.452 0.082 3.176 3.176 0 0 0 1.249 3.148 3.176 3.176 0 0 0 2.38 0.595 3.194 3.194 0 0 0 2.102 -1.264 3.176 3.176 0 0 0 0.595 -2.38 3.194 3.194 0 0 0 -1.264 -2.104 0.228 0.228 0 0 1 -0.047 -0.32 0.228 0.228 0 0 1 0.32 -0.047 3.64 3.64 0 0 1 1.445 2.404 3.64 3.64 0 0 1 -0.676 2.72 3.64 3.64 0 0 1 -2.957 1.486m0 0" fill-opacity="1" fill-rule="nonzero"/><path fill="#ff3e4d" d="M197.159 100.308a3.666 3.666 0 0 1 -3.633 -3.196 3.657 3.657 0 0 1 1.612 -3.523 0.229 0.229 0 0 1 0.252 0.382 3.194 3.194 0 0 0 -1.41 3.083 3.211 3.211 0 0 0 3.589 2.77 3.194 3.194 0 0 0 2.128 -1.22 3.176 3.176 0 0 0 0.642 -2.368 0.224 0.224 0 0 1 0.199 -0.256 0.224 0.224 0 0 1 0.256 0.199 3.64 3.64 0 0 1 -0.735 2.706 3.64 3.64 0 0 1 -2.432 1.396 4.375 4.375 0 0 1 -0.469 0.028m0 0" fill-opacity="1" fill-rule="nonzero"/><g clip-path="url(#fcd352a4ba)"><path fill="#000000" d="M134.439 161.228H290.299v7.851H134.439Zm0 0" fill-opacity="1" fill-rule="nonzero"/><path fill="#ffffff" d="M134.439 161.228H290.299v7.851H134.439Zm0 0" fill-opacity="0.47" fill-rule="nonzero"/></g><path fill="#007785" d="m218.437 197.274 -0.14 -6.911a12.407 12.407 0 0 0 -11.737 -12.136l-0.257 -0.014" fill-opacity="1" fill-rule="nonzero"/><path fill="#000000" d="m218.265 197.276 -0.143 -6.907c-0.13 -6.37 -5.213 -11.627 -11.574 -11.968l-0.261 -0.016 0.018 -0.34 0.261 0.014c6.536 0.352 11.764 5.757 11.898 12.303l0.14 6.911Zm0 0" fill-opacity="1" fill-rule="nonzero"/><path fill="#007785" d="m224.569 195.93 1.699 -14.077" fill-opacity="1" fill-rule="nonzero"/><path fill="#000000" d="m224.738 195.949 -0.339 -0.04 1.699 -14.079 0.339 0.042Zm0 0" fill-opacity="1" fill-rule="nonzero"/><path fill="#000000" d="M373.492 93.586a0.263 0.263 0 0 1 -0.082 -0.016l-12.15 -5.402a0.201 0.201 0 0 1 -0.101 -0.264 0.196 0.196 0 0 1 0.264 -0.1l12.15 5.401a0.2 0.2 0 0 1 -0.082 0.382m0 0" fill-opacity="1" fill-rule="nonzero"/><path fill="#000000" d="M371.985 109.744a0.193 0.193 0 0 1 -0.13 -0.051l-15.89 -13.713a0.2 0.2 0 1 1 0.262 -0.303l15.89 13.715a0.201 0.201 0 0 1 -0.131 0.352m0 0" fill-opacity="1" fill-rule="nonzero"/></svg>