<svg height="51" viewBox="0 0 9.563 9.563" width="51" xmlns="http://www.w3.org/2000/svg"><g id="male_teacher" data-name="male teacher"><path d="M2.915 0.1h6.547v6.026H2.915z" fill="#f4a261"/><path d="M2.915 0.1h2.483v6.026H2.915z" fill="#f47543"/><g fill="#302d3d"><path d="M3.101 6.026h0.253c-0.013 0.018 0 0 -0.156 0.199 -0.307 0 -0.312 0.008 -0.35 -0.026a0.15 0.15 0 0 0 0.155 -0.049z"/><path d="m2.968 5.258 0.046 -0.031v0.232A0.418 0.418 0 0 1 2.889 5.479a0.299 0.299 0 0 1 -0.076 -0.01v-0.212a0.131 0.131 0 0 0 0.155 0.002"/><path d="M3.014 4.482v0.199a1.693 1.693 0 0 1 -0.199 0v-0.199a1.026 1.026 0 0 0 0.199 0"/><path d="M3.014 3.86v0.207a0.667 0.667 0 0 1 -0.199 0.011v-0.199a0.438 0.438 0 0 0 0.199 -0.019"/><path d="M2.815 1.627h0.199v0.199h-0.199z"/><path d="M9.563 6.126a0.1 0.1 0 0 1 -0.1 0.1H4.87a1.893 1.893 0 0 0 -0.086 -0.199H9.463a0.1 0.1 0 0 1 0.1 0.1"/></g><path d="M3.341 0.498h6.121v4.724H3.341z" fill="#264653"/><path d="M4.431 0.996a0.211 0.211 0 0 0 -0.231 0.182v0.896a0.199 0.199 0 0 0 0.346 0.143l0.877 -0.878A0.199 0.199 0 0 0 5.279 0.996z" fill="#265a67"/><path d="M6.09 1.363 4.565 2.889a1.249 1.249 0 0 0 -0.366 0.884v0.77a0.211 0.211 0 0 0 0.231 0.183H7.172a1.25 1.25 0 0 0 0.885 -0.367L9.095 3.317A1.245 1.245 0 0 0 9.463 2.433V0.996H6.973a1.25 1.25 0 0 0 -0.883 0.367" fill="#265a67"/><path d="m9.23 3.954 -0.538 0.539a0.135 0.135 0 0 0 0.1 0.231h0.539A0.135 0.135 0 0 0 9.463 4.589v-0.539a0.135 0.135 0 0 0 -0.233 -0.096" fill="#265a67"/><path d="M3.241 3.948v-0.076a0.088 0.088 0 0 1 0 0.076" fill="#302d3d"/><path d="M3.241 2.496a0.1 0.1 0 0 1 0.1 -0.1h0.1v0.199h-0.1a0.1 0.1 0 0 1 -0.1 -0.1" fill="#302d3d"/><path d="M3.441 2.783V2.988a0.1 0.1 0 0 1 -0.17 -0.071v-0.066a0.1 0.1 0 0 1 0.17 -0.069" fill="#302d3d"/><path d="M3.441 4.36c0 0.723 0.006 0.677 0 0.677a0.34 0.34 0 0 1 -0.165 0.257 0.1 0.1 0 0 1 -0.03 -0.072v-0.786a1.096 1.096 0 0 0 0.195 -0.077" fill="#302d3d"/><path d="M3.686 5.123a1.494 1.494 0 0 1 -0.025 0.199h-0.202a1.355 1.355 0 0 0 0.03 -0.199z" fill="#302d3d"/><path d="M9.563 5.223a0.1 0.1 0 0 1 -0.1 0.1H7.017c-0.016 -0.048 -0.009 -0.027 -0.032 -0.091a0.151 0.151 0 0 0 -0.273 -0.03l-0.074 0.121H4.196a1.375 1.375 0 0 0 -0.365 -0.199H9.463a0.1 0.1 0 0 1 0.1 0.1" fill="#302d3d"/><path d="M9.463 5.223H4.166v0.381H9.463z" fill="#f4a261"/><path d="M8.117 5.413a0.19 0.19 0 0 0 -0.191 -0.19H6.008a0.19 0.19 0 0 0 -0.191 0.19 0.191 0.191 0 0 0 0.191 0.19h1.917a0.191 0.191 0 0 0 0.191 -0.19" fill="#f4d49d"/><path d="M9.463 5.603H4.166v0.523H9.463z" fill="#f4a261"/><path d="M8.707 5.603H3.669v0.523h5.038z" fill="#f47543"/><path d="M6.747 6.69 5.571 8.656a0.622 0.622 0 0 1 -0.848 0.217L4.781 9.463H2.531C0.838 8.566 1.288 8.819 0.598 8.422a0.99 0.99 0 0 1 -0.375 -1.334c0.199 -0.369 0.666 -1.217 0.954 -1.521A2.261 2.261 0 0 1 1.609 5.18a1.507 1.507 0 0 1 0.824 -0.246c0.896 0 0.989 -0.009 1.16 0.022 0.633 0.105 1.159 0.639 1.375 1.246a9.363 9.363 0 0 1 0.289 1.127l0.697 -1.203z" fill="#3a86ff"/><path d="m6.338 6.398 -0.91 1.494a0.21 0.21 0 0 1 -0.382 -0.05l-0.405 -1.352c-0.24 -0.797 -1.036 -1.267 -1.828 -1.267 -0.318 0 -0.474 -0.012 -0.711 0.056l-0.16 0.046a0.398 0.398 0 0 1 -0.398 -0.1 1.504 1.504 0 0 1 0.886 -0.289c0.896 0 0.989 -0.009 1.16 0.022 0.633 0.105 1.159 0.639 1.375 1.246a9.363 9.363 0 0 1 0.289 1.127l0.697 -1.203z" fill="#3abdff"/><path d="M4.781 9.463H2.531C0.838 8.566 1.288 8.819 0.598 8.422a0.99 0.99 0 0 1 -0.375 -1.334c0.199 -0.369 0.666 -1.217 0.954 -1.521l0.544 0.66a0.664 0.664 0 0 0 0.358 0.224l1.22 0.288a0.271 0.271 0 0 1 0.205 0.31L3.277 8.389A0.498 0.498 0 0 0 3.764 8.965h0.266a0.212 0.212 0 0 0 0.206 -0.262l-0.143 -0.598A0.191 0.191 0 0 1 4.265 7.869l0.299 0.996h0.16z" fill="#2654f0"/><path d="M0.917 9.099 2.531 9.463h0.211c0.082 -0.36 0.447 -1.986 0.533 -2.364l-1.816 -0.409c-0.231 1.028 -0.314 1.394 -0.542 2.41" fill="#ff4b6e"/><path d="M2.742 9.563a2.092 2.092 0 0 1 -0.233 0L0.896 9.197a0.1 0.1 0 0 1 -0.076 -0.12l0.1 -0.437 0.444 -1.972a0.1 0.1 0 0 1 0.119 -0.075l1.816 0.408a0.1 0.1 0 0 1 0.075 0.12l-0.534 2.364a0.1 0.1 0 0 1 -0.098 0.078m-0.08 -0.199 0.493 -2.191 -1.621 -0.363 -0.498 2.214C2.762 9.413 2.49 9.363 2.663 9.363" fill="#302d3d"/><path d="M0.917 9.099 2.531 9.463h0.211c0.082 -0.36 0.447 -1.986 0.533 -2.364l-1.816 -0.409c-0.231 1.028 -0.314 1.394 -0.542 2.41" fill="#fcba80"/><path fill="#ff8c87" height="10.68" rx="1.24" transform="rotate(-77.3 21.042 81.274)" width="16.79" x="12.64" y="75.97" d="M1.383 7.567H2.808A0.124 0.124 0 0 1 2.932 7.691V8.508A0.124 0.124 0 0 1 2.808 8.631H1.383A0.124 0.124 0 0 1 1.259 8.508V7.691A0.124 0.124 0 0 1 1.383 7.567z"/><path d="m1.015 8.666 -0.1 0.437L2.531 9.463h0.211c0.087 -0.383 0.038 -0.165 0.206 -0.915" fill="#fcba80"/><path d="M2.742 9.563a2.092 2.092 0 0 1 -0.233 0L0.896 9.197a0.1 0.1 0 0 1 -0.076 -0.12l0.1 -0.437a0.1 0.1 0 0 1 0.194 0.044l-0.077 0.34C2.762 9.413 2.49 9.363 2.663 9.363l0.189 -0.838a0.1 0.1 0 0 1 0.194 0.044l-0.206 0.915a0.1 0.1 0 0 1 -0.098 0.078" fill="#302d3d"/><path d="M3.593 4.957c0 0.65 -0.263 0.938 -0.511 1.256a0.247 0.247 0 0 1 -0.389 0C2.426 5.877 2.181 5.598 2.181 4.957a1.395 1.395 0 0 1 0.263 -0.022v0.066a0.238 0.238 0 0 0 0.106 0.199l0.212 0.144a0.235 0.235 0 0 0 0.268 0l0.207 -0.143a0.236 0.236 0 0 0 0.1 -0.199v-0.067a1.395 1.395 0 0 1 0.256 0.022" fill="#497db0"/><path d="M2.055 8.274c0.131 0.035 0.258 0.068 0.247 0.067a0.23 0.23 0 0 0 0.216 -0.108l0.016 -0.025a0.232 0.232 0 0 1 0.164 -0.108 0.065 0.065 0 0 1 0.075 0.07l-0.011 0.119a0.094 0.094 0 0 0 0.086 0.1l0.475 0.045a0.142 0.142 0 0 1 0.129 0.155l-0.011 0.117a0.498 0.498 0 0 1 -0.175 0.335 0.41 0.41 0 0 1 -0.329 0.135l-0.383 -0.036c-0.153 -0.014 -0.222 -0.1 -0.346 -0.225l-0.286 -0.1z" fill="#ffaaa0"/><path d="M3.329 4.522v0.49a0.229 0.229 0 0 1 -0.1 0.19l-0.199 0.138a0.239 0.239 0 0 1 -0.266 0l-0.209 -0.139a0.232 0.232 0 0 1 -0.105 -0.191v-0.498a1.45 1.45 0 0 0 0.879 0.01" fill="#ff7d82"/><path d="m0.598 8.422 1.249 0.719 0.251 -1.049 -0.979 -0.541z" fill="#3a86ff"/><path d="m7.179 2.576 0.316 0.071 -0.704 3.12 -0.316 -0.071z" fill="#f4a261"/><path d="M6.15 6.25c0.057 -0.283 0.074 -0.444 0.199 -0.647l0.279 -0.453a0.251 0.251 0 0 1 0.451 0.049l0.038 0.107A0.951 0.951 0 0 1 6.773 6.39l-0.215 0.155z" fill="#ffaaa0"/><path d="M1.052 9.13 1.001 9.463h1.53z" fill="#2654f0"/><path d="M1.614 1.793a1.171 1.171 0 0 1 1.104 -0.78h0.355a1.171 1.171 0 0 1 1.105 0.783c0.079 1.195 0.066 0.879 0.066 1.44a1.348 1.348 0 0 1 -2.695 0c0 -0.556 -0.013 -0.248 0.067 -1.443" fill="#ffaaa0"/><path d="M1.302 3.287h0.245v-0.498h-0.245a0.245 0.245 0 0 0 0 0.49z" fill="#ffaaa0"/><path d="M4.482 2.789h-0.241v0.498H4.482a0.245 0.245 0 1 0 0 -0.498" fill="#ffaaa0"/><path d="M1.513 1.726h0.355v0.705A0.361 0.361 0 0 1 1.508 2.789H1.225v-0.775a0.288 0.288 0 0 1 0.288 -0.288" fill="#353c60"/><path d="M4.564 2.796h-0.283a0.361 0.361 0 0 1 -0.361 -0.361v-0.709h0.356a0.288 0.288 0 0 1 0.288 0.288z" fill="#353c60"/><path d="M1.17 0.565H2.341a0.81 0.81 0 0 1 0.81 0.81v0.353H1.83a0.66 0.66 0 0 1 -0.66 -0.66v-0.498z" fill="#353c60"/><path d="M1.831 1.427a0.361 0.361 0 0 1 -0.362 -0.361v-0.06a0.144 0.144 0 0 1 0.144 -0.143h0.727a0.498 0.498 0 0 1 0.49 0.39A0.142 0.142 0 0 1 2.689 1.427z" fill="#355fa1"/><path d="M3.754 0.565a0.809 0.809 0 0 1 0.809 0.809 0.352 0.352 0 0 1 -0.353 0.353H3.15v-0.558a0.604 0.604 0 0 1 0.605 -0.604" fill="#353c60"/><path d="M6.068 1.048a0.1 0.1 0 0 0 -0.178 0l-0.481 0.961a0.1 0.1 0 0 0 0.045 0.133 0.1 0.1 0 0 0 0.133 -0.044l0.1 -0.199h0.581l0.1 0.199a0.1 0.1 0 0 0 0.178 -0.09zM5.788 1.693 5.977 1.315l0.193 0.379z" fill="#fff"/><path d="M8.323 1.573A0.34 0.34 0 0 0 8.083 0.996h-0.428a0.1 0.1 0 0 0 -0.1 0.1v0.961a0.1 0.1 0 0 0 0.1 0.1h0.428a0.341 0.341 0 0 0 0.24 -0.584M7.755 1.195h0.329a0.14 0.14 0 0 1 0 0.281h-0.329zm0 0.48h0.329a0.141 0.141 0 0 1 0 0.282h-0.329z" fill="#fff"/><path d="M6.203 3.918a0.382 0.382 0 1 1 -0.017 -0.468 0.1 0.1 0 0 0 0.152 -0.128 0.581 0.581 0 1 0 0.025 0.713 0.1 0.1 0 1 0 -0.16 -0.117" fill="#fff"/><path d="M8.2 3.156h-0.209a0.1 0.1 0 0 0 -0.1 0.1v0.878a0.1 0.1 0 0 0 0.1 0.1h0.209a0.539 0.539 0 1 0 0 -1.077m0 0.878h-0.11v-0.678h0.11a0.34 0.34 0 1 1 0 0.678" fill="#fff"/><path d="M9.563 0.498a0.1 0.1 0 0 0 -0.1 -0.1H3.341a0.1 0.1 0 0 0 -0.1 0.1v0.189a0.727 0.727 0 0 0 -0.132 0.199 0.896 0.896 0 0 0 -0.095 -0.126V0.199H9.463a0.1 0.1 0 0 0 0 -0.199H2.915a0.1 0.1 0 0 0 -0.1 0.1v0.498a0.896 0.896 0 0 0 -0.474 -0.132H1.17a0.1 0.1 0 0 0 -0.1 0.1v0.498a0.753 0.753 0 0 0 0.287 0.593 0.387 0.387 0 0 0 -0.232 0.355v0.727A0.345 0.345 0 0 0 1.302 3.387h0.152a1.442 1.442 0 0 0 0.891 1.195v0.26c-0.584 0.038 -0.922 0.306 -1.295 0.722 -0.179 0.199 -0.487 0.697 -0.914 1.481A1.096 1.096 0 0 0 0.548 8.508l0.355 0.199 -0.083 0.366A0.1 0.1 0 0 0 0.896 9.197l0.044 0.01 -0.037 0.241a0.1 0.1 0 0 0 0.1 0.115H4.781a0.1 0.1 0 0 0 0.1 -0.11l-0.04 -0.422a0.724 0.724 0 0 0 0.818 -0.323l1.172 -1.967a0.1 0.1 0 0 0 -0.027 -0.131l-0.081 -0.058A1.245 1.245 0 0 0 7.072 6.226h2.391a0.1 0.1 0 1 0 0 -0.199H7.188a0.966 0.966 0 0 0 0.078 -0.324H9.463a0.1 0.1 0 1 0 0 -0.199H7.263a0.877 0.877 0 0 0 -0.037 -0.181H9.463a0.1 0.1 0 0 0 0 -0.199H7.156a0.339 0.339 0 0 0 -0.09 -0.113l0.528 -2.339a0.1 0.1 0 0 0 -0.076 -0.12c-0.341 -0.077 -0.348 -0.088 -0.39 -0.058a0.093 0.093 0 0 0 -0.044 0.062L6.504 5.123H4.258a1.594 1.594 0 0 0 -0.818 -0.285h-0.012V4.582h0.012a1.436 1.436 0 0 0 0.896 -1.195H4.482a0.345 0.345 0 0 0 0.176 -0.64v-0.727a0.388 0.388 0 0 0 -0.149 -0.306 0.448 0.448 0 0 0 0.149 -0.335A0.905 0.905 0 0 0 4.224 0.598H9.463a0.1 0.1 0 0 0 0.1 -0.1m-8.292 0.569v-0.398H2.341a0.709 0.709 0 0 1 0.673 0.489c0.047 0.134 0.036 0.236 0.036 0.473h-0.574a0.561 0.561 0 0 1 -0.561 -0.56 0.1 0.1 0 0 0 -0.199 0 0.757 0.757 0 0 0 0.248 0.56h-0.158a0.56 0.56 0 0 1 -0.536 -0.564M1.447 3.188h-0.145a0.145 0.145 0 1 1 0 -0.291h0.145zm-0.123 -0.498v-0.675a0.189 0.189 0 0 1 0.186 -0.188h0.257v0.607a0.258 0.258 0 0 1 -0.112 0.213c-0.084 0.06 -0.157 0.044 -0.332 0.044m-0.207 6.674 0.017 -0.113 0.498 0.113zm-0.082 -0.34 0.047 -0.208c0.044 0.03 -0.172 -0.1 0.624 0.36zM2.663 9.363c-0.153 0 -0.012 0.024 -0.756 -0.143 0.038 -0.028 0.033 -0.039 0.089 -0.272l0.16 0.055 0.113 0.111c0.137 0.131 0.279 0.128 0.419 0.14zm-0.228 -1.183a0.128 0.128 0 0 1 -0.116 0.062l-0.145 -0.04 0.021 -0.087a0.1 0.1 0 0 0 -0.049 -0.111L1.363 7.57l0.172 -0.764L3.156 7.172l-0.254 1.129h-0.04l0.011 -0.118c0.016 -0.193 -0.257 -0.286 -0.438 -0.003m0.129 0.863c-0.109 -0.011 -0.145 -0.062 -0.286 -0.199 -0.022 -0.022 -0.021 -0.018 -0.236 -0.091l0.086 -0.358a1.136 1.136 0 0 0 0.165 0.043 0.33 0.33 0 0 0 0.31 -0.152 0.169 0.169 0 0 1 0.067 -0.074l-0.006 0.066a0.199 0.199 0 0 0 0.175 0.211l0.475 0.044a0.045 0.045 0 0 1 0.04 0.048c-0.013 0.138 -0.012 0.267 -0.151 0.383l-0.066 0.054a0.253 0.253 0 0 1 -0.19 0.059c-0.047 -0.002 -0.013 -0.001 -0.383 -0.034m4.693 -6.345 0.122 0.027 -0.498 2.208a0.349 0.349 0 0 0 -0.129 0.01zm-0.544 2.504a0.151 0.151 0 0 1 0.273 0.03c0.01 0.029 0.038 0.106 0.038 0.107a0.849 0.849 0 0 1 -0.057 0.688c-0.107 0.199 -0.234 0.273 -0.404 0.398l-0.299 -0.216c0.093 -0.474 0.048 -0.354 0.449 -1.007m-0.308 0.121 -0.112 0.181H4.682a2.092 2.092 0 0 0 -0.172 -0.181zM5.004 6.026a2.191 2.191 0 0 0 -0.176 -0.324H6.186a1.375 1.375 0 0 0 -0.093 0.324zm0.78 0.199 -0.484 0.83c-0.051 -0.229 -0.131 -0.567 -0.219 -0.83zM3.691 5.08c0.543 0.135 1.013 0.649 1.182 1.156a8.268 8.268 0 0 1 0.278 1.075l-0.108 0.185a0.1 0.1 0 0 0 0.037 0.135 0.1 0.1 0 0 0 0.136 -0.036c0.165 -0.285 0.028 -0.049 0.773 -1.326l0.626 0.447 -1.129 1.893a0.521 0.521 0 0 1 -0.949 -0.128l-0.239 -0.862a0.1 0.1 0 0 0 -0.123 -0.07 0.1 0.1 0 0 0 -0.07 0.12l0.238 0.863a0.721 0.721 0 0 0 0.285 0.398l0.042 0.432H2.867l0.021 -0.092h0.041a0.458 0.458 0 0 0 0.336 -0.1l0.065 -0.054a0.598 0.598 0 0 0 0.212 -0.398l0.011 -0.117a0.244 0.244 0 0 0 -0.22 -0.264l-0.229 -0.019 0.269 -1.195a0.1 0.1 0 0 0 -0.075 -0.12l-1.816 -0.408a0.1 0.1 0 0 0 -0.119 0.075L1.181 7.471l-0.015 -0.008a0.1 0.1 0 0 0 -0.1 0.174l0.913 0.504c-0.045 0.186 -0.1 0.404 -0.199 0.817 -0.766 -0.398 -0.498 -0.257 -1.141 -0.625a0.896 0.896 0 0 1 -0.338 -1.195C0.725 6.375 1.032 5.877 1.195 5.693 1.452 5.409 1.693 5.18 2.083 5.08a1.728 1.728 0 0 0 0.364 0.98L2.615 6.275a0.345 0.345 0 0 0 0.545 0c0.311 -0.398 0.493 -0.63 0.531 -1.195m-0.254 -0.041a0.598 0.598 0 0 1 0.057 0 1.494 1.494 0 0 1 -0.035 0.28c-0.078 0.361 -0.234 0.546 -0.455 0.829a0.15 0.15 0 0 1 -0.155 0.049c-0.063 -0.015 -0.07 -0.04 -0.244 -0.263a1.511 1.511 0 0 1 -0.322 -0.896h0.065A0.328 0.328 0 0 0 2.49 5.285l0.209 0.139A0.359 0.359 0 0 0 2.889 5.479a0.398 0.398 0 0 0 0.124 -0.022 1.255 1.255 0 0 0 0.257 -0.165 0.338 0.338 0 0 0 0.167 -0.254zm-0.896 -0.037v-0.354a1.594 1.594 0 0 0 0.685 0 3.188 3.188 0 0 1 0 0.382c-0.01 0.069 -0.042 0.078 -0.212 0.193 -0.147 0.1 -0.141 0.069 -0.408 -0.114a0.132 0.132 0 0 1 -0.061 -0.11zM4.142 3.287a1.248 1.248 0 0 1 -2.49 -0.045v-0.369a0.459 0.459 0 0 0 0.321 -0.437v-0.611h0.551a0.278 0.278 0 0 1 -0.26 0.178 0.1 0.1 0 0 0 0 0.199 0.48 0.48 0 0 0 0.468 -0.378h1.096v0.61a0.461 0.461 0 0 0 0.321 0.438zm0.1 -0.591a0.262 0.262 0 0 1 -0.217 -0.257v-0.614H4.283a0.188 0.188 0 0 1 0.185 0.188V2.689zm0.282 0.199A0.145 0.145 0 0 1 4.482 3.188h-0.14v-0.292zm-0.056 -1.522a0.253 0.253 0 0 1 -0.252 0.253h-0.966v-0.458a0.505 0.505 0 0 1 0.505 -0.504 0.709 0.709 0 0 1 0.709 0.709z" fill="#302d3d"/><path d="M2.448 2.397h-0.299a0.1 0.1 0 0 0 0 0.199h0.299a0.1 0.1 0 0 0 0 -0.199" fill="#302d3d"/><path d="M3.37 2.754a0.1 0.1 0 0 0 -0.1 0.1v0.066a0.1 0.1 0 1 0 0.199 0v-0.066a0.1 0.1 0 0 0 -0.1 -0.1" fill="#302d3d"/><path d="M2.391 2.754a0.1 0.1 0 0 0 -0.1 0.1v0.066a0.1 0.1 0 1 0 0.199 0v-0.066a0.1 0.1 0 0 0 -0.1 -0.1" fill="#302d3d"/><path d="M3.643 2.397h-0.299a0.1 0.1 0 0 0 0 0.199h0.299a0.1 0.1 0 0 0 0 -0.199" fill="#302d3d"/><path d="M3.236 3.859a0.1 0.1 0 0 0 -0.136 -0.036 0.448 0.448 0 0 1 -0.415 0.013 0.1 0.1 0 1 0 -0.089 0.178 0.638 0.638 0 0 0 0.604 -0.019 0.1 0.1 0 0 0 0.037 -0.136" fill="#302d3d"/></g></svg>