<svg xmlns="http://www.w3.org/2000/svg" xmlns:xlink="http://www.w3.org/1999/xlink" width="150" zoomAndPan="magnify" viewBox="0 0 112.5 63.25" height="84.334" preserveAspectRatio="xMidYMid meet" version="1.0"><defs><clipPath id="068d6e0008"><path d="M37.006 2.635h60.615v60.6H37.006Zm0 0" clip-rule="nonzero"/></clipPath></defs><g clip-path="url(#068d6e0008)"><path fill="#4fd1d9" d="M46.681 10.814a31.296 31.296 0 0 0 -0.795 0.77 31.296 31.296 0 0 0 -0.766 0.797 30.454 30.454 0 0 0 -1.443 1.677 29.649 29.649 0 0 0 -0.674 0.877q-0.329 0.445 -0.642 0.901a30.088 30.088 0 0 0 -1.722 2.835 30.417 30.417 0 0 0 -0.971 1.988 30.307 30.307 0 0 0 -0.823 2.053 30.417 30.417 0 0 0 -0.947 3.179 30.288 30.288 0 0 0 -0.436 2.168 30.527 30.527 0 0 0 -0.276 2.194 29.649 29.649 0 0 0 -0.077 1.104q-0.029 0.552 -0.037 1.105c-0.005 0.369 -0.004 0.737 0.004 1.106q0.012 0.553 0.044 1.105c0.021 0.368 0.049 0.736 0.084 1.103q0.052 0.551 0.125 1.099a30.417 30.417 0 0 0 0.164 1.094q0.093 0.545 0.205 1.087a29.868 29.868 0 0 0 0.528 2.148 30.417 30.417 0 0 0 0.683 2.104 31.625 31.625 0 0 0 0.399 1.032 30.857 30.857 0 0 0 0.436 1.016 31.296 31.296 0 0 0 0.473 1 30.417 30.417 0 0 0 1.634 2.886 29.319 29.319 0 0 0 0.614 0.92 30.857 30.857 0 0 0 0.647 0.897 30.307 30.307 0 0 0 0.68 0.873 29.1 29.1 0 0 0 0.711 0.847 30.527 30.527 0 0 0 0.742 0.821 31.296 31.296 0 0 0 0.771 0.793 31.296 31.296 0 0 0 0.8 0.764 30.527 30.527 0 0 0 1.68 1.438 30.307 30.307 0 0 0 3.653 2.49 29.978 29.978 0 0 0 0.967 0.537 29.978 29.978 0 0 0 1.99 0.966 29.978 29.978 0 0 0 2.055 0.818 30.361 30.361 0 0 0 2.109 0.666q0.533 0.147 1.072 0.274 0.539 0.128 1.081 0.235 0.542 0.108 1.089 0.196a30.417 30.417 0 0 0 3.299 0.346c0.492 0.024 0.989 0.036 1.487 0.036q0.92 0.001 1.838 -0.055a30.223 30.223 0 0 0 5.446 -0.833 30.527 30.527 0 0 0 1.77 -0.496 30.637 30.637 0 0 0 1.737 -0.603 30.289 30.289 0 0 0 4.947 -2.425 30.088 30.088 0 0 0 1.54 -1.004 29.868 29.868 0 0 0 1.477 -1.096 30.214 30.214 0 0 0 2.741 -2.45 30.314 30.314 0 0 0 2.423 -2.765 30.259 30.259 0 0 0 2.962 -4.645 30.417 30.417 0 0 0 1.484 -3.363 30.307 30.307 0 0 0 0.586 -1.743 29.978 29.978 0 0 0 0.479 -1.775 30.307 30.307 0 0 0 0.779 -5.454q0.046 -0.918 0.037 -1.838a29.868 29.868 0 0 0 -0.075 -1.838 30.157 30.157 0 0 0 -0.483 -3.643 30.417 30.417 0 0 0 -0.407 -1.793 30.21 30.21 0 0 0 -1.862 -5.185 30.088 30.088 0 0 0 -1.752 -3.231 30.417 30.417 0 0 0 -1.02 -1.53 29.978 29.978 0 0 0 -1.111 -1.465 30.088 30.088 0 0 0 -2.479 -2.714 30.198 30.198 0 0 0 -1.358 -1.239 30.307 30.307 0 0 0 -1.431 -1.154c-0.489 -0.371 -0.988 -0.725 -1.499 -1.065a29.868 29.868 0 0 0 -1.561 -0.972 30.088 30.088 0 0 0 -1.617 -0.875 30.294 30.294 0 0 0 -5.128 -2.016 30.307 30.307 0 0 0 -1.78 -0.46 30.314 30.314 0 0 0 -5.462 -0.721 30.198 30.198 0 0 0 -3.675 0.077 30.167 30.167 0 0 0 -3.639 0.522 30.088 30.088 0 0 0 -3.548 0.96 30.088 30.088 0 0 0 -1.724 0.64 30.527 30.527 0 0 0 -1.682 0.743 30.088 30.088 0 0 0 -3.212 1.786 30.203 30.203 0 0 0 -4.355 3.375m29.207 12.302 8.592 10.213H75.467v19.61H59.126V33.329h-9.013l8.591 -10.213 8.591 -10.21Zm0 0" fill-opacity="1" fill-rule="nonzero"/></g></svg>