<svg id="Capa_1" enable-background="new 0 0 512 512" height="50" viewBox="0 0 50 50" width="50" xmlns="http://www.w3.org/2000/svg"><g><path d="M3.03 17.273a0.755 0.755 0 0 0 -0.755 0.755v14.548a0.755 0.755 0 0 0 1.509 0v-14.548a0.754 0.754 0 0 0 -0.755 -0.755" fill="#dedde0"/><path d="M6.061 41.667h1.515V29.546H6.061C2.713 29.546 0 32.259 0 35.606c0 3.338 2.704 6.061 6.061 6.061" fill="#3b5a9b"/><path d="M40.909 41.667h-1.515V29.546h1.515c3.347 0 6.061 2.713 6.061 6.061 0 3.338 -2.704 6.061 -6.061 6.061" fill="#5972a5"/><path d="M42.425 35.606c0 7.928 -6.423 14.394 -14.394 14.394h-9.092C10.99 50 4.546 43.556 4.546 35.606c0 -10.431 8.451 -18.939 18.939 -18.939 4.173 0 8.038 1.352 11.173 3.646 4.704 3.441 7.767 9 7.767 15.293" fill="#7888af"/><path d="M34.658 20.313H33.201a1.511 1.511 0 0 0 -1.068 0.442l-3.799 3.8c-0.951 0.951 -2.577 0.277 -2.577 -1.068v-1.665c0 -0.834 -0.676 -1.509 -1.509 -1.509h-1.544a6.013 6.013 0 0 1 -3.509 -1.125c-0.809 -0.581 -1.949 -0.197 -2.282 0.742 -2.483 6.995 -3.867 19.114 8.26 30.07h-6.233C10.99 50 4.546 43.556 4.546 35.606c0 -10.431 8.451 -18.939 18.939 -18.939 4.173 0 8.038 1.352 11.173 3.646" fill="#5972a5"/><path d="M37.879 35.606c0 5.007 -4.056 9.091 -9.091 9.091H18.182c-5.022 0 -9.092 -4.07 -9.092 -9.091 0 -4.023 2.618 -7.449 6.259 -8.641 0.89 -0.292 1.842 -0.45 2.832 -0.45h10.606c5.021 0 9.091 4.07 9.091 9.091" fill="#f4f4f5"/><path d="M20.353 44.696h-2.17c-5.022 0 -9.092 -4.07 -9.092 -9.091 0 -4.023 2.618 -7.449 6.259 -8.641 -0.483 5.234 0.469 11.507 5.003 17.731" fill="#dedde0"/><path d="M50 5.246v7.69c0 2.897 -2.348 5.246 -5.246 5.246h-11.553a1.511 1.511 0 0 0 -1.068 0.442l-3.573 3.572c-0.475 0.476 -1.288 0.139 -1.288 -0.533V19.691c0 -0.834 -0.676 -1.509 -1.509 -1.509h-1.583c-3.313 0 -5.999 -2.686 -5.999 -6V5.246c0 -2.898 2.348 -5.246 5.245 -5.246H44.754C47.652 0 50 2.348 50 5.246" fill="#b4e9f1"/><path d="M34.557 18.182H33.201a1.511 1.511 0 0 0 -1.068 0.442l-3.573 3.572c-0.475 0.476 -1.288 0.139 -1.288 -0.533v-1.971c0 -0.834 -0.676 -1.509 -1.509 -1.509h-1.583c-3.313 0 -5.999 -2.686 -5.999 -6V5.246c0 -2.898 2.348 -5.246 5.245 -5.246h7.137c-1.421 2.665 -2.997 12.29 3.993 18.182" fill="#81d8e7"/><path cx="31.03" cy="193.939" fill="#5972a5" r="23.273" d="M5.303 18.939A2.273 2.273 0 0 1 3.03 21.212A2.273 2.273 0 0 1 0.758 18.939A2.273 2.273 0 0 1 5.303 18.939z"/><path cx="349.091" cy="93.091" fill="#7888af" r="23.273" d="M36.364 9.091A2.273 2.273 0 0 1 34.091 11.364A2.273 2.273 0 0 1 31.818 9.091A2.273 2.273 0 0 1 36.364 9.091z"/><path cx="442.182" cy="93.091" fill="#7888af" r="23.273" d="M45.455 9.091A2.273 2.273 0 0 1 43.182 11.364A2.273 2.273 0 0 1 40.909 9.091A2.273 2.273 0 0 1 45.455 9.091z"/><path cx="256" cy="93.091" fill="#5972a5" r="23.273" d="M27.273 9.091A2.273 2.273 0 0 1 25 11.364A2.273 2.273 0 0 1 22.727 9.091A2.273 2.273 0 0 1 27.273 9.091z"/><path d="M18.228 36.608c0.001 1.352 -1.375 2.449 -3.073 2.45s-3.075 -1.094 -3.075 -2.446 1.375 -2.449 3.073 -2.45 3.075 1.095 3.075 2.447" fill="#ffa1ac"/><path d="M28.742 36.603c0.001 1.352 1.378 2.447 3.075 2.446 1.698 -0.001 3.074 -1.098 3.073 -2.45s-1.378 -2.447 -3.075 -2.447 -3.074 1.098 -3.073 2.45" fill="#ffa1ac"/><g fill="#495560"><path d="M26.498 35.497c-0.001 -1.862 -1.35 -2.037 -3.014 -2.036s-3.013 0.176 -3.012 2.039 1.351 3.371 3.015 3.37c1.664 -0.001 3.013 -1.511 3.012 -3.373"/><path d="M15.48 34.7a0.754 0.754 0 0 1 -0.755 -0.754c-0.001 -1.226 0.991 -2.218 2.217 -2.219 1.222 -0.001 2.218 0.993 2.219 2.217a0.754 0.754 0 0 1 -0.754 0.755 0.754 0.754 0 0 1 -0.755 -0.754c0 -0.633 -0.768 -0.943 -1.21 -0.5a0.703 0.703 0 0 0 -0.207 0.501 0.755 0.755 0 0 1 -0.755 0.755"/><path d="M28.56 34.694a0.755 0.755 0 0 1 -0.755 -0.754c-0.001 -1.223 0.994 -2.218 2.217 -2.219 1.226 -0.001 2.218 0.991 2.219 2.217a0.755 0.755 0 1 1 -1.509 0.001 0.708 0.708 0 0 0 -0.709 -0.708c-0.39 0 -0.709 0.317 -0.709 0.709 0 0.415 -0.336 0.755 -0.755 0.755"/></g></g></svg>