<svg version="1.1" id="Layer_1" xmlns="http://www.w3.org/2000/svg" xmlns:xlink="http://www.w3.org/1999/xlink" viewBox="0 0 50 50" xml:space="preserve" width="50" height="50"><path style="fill:#F24141;" d="M49.124 11.461v27.119a4.431 4.431 0 0 1 -4.432 4.432H5.308a4.431 4.431 0 0 1 -4.432 -4.432V15.045a4.431 4.431 0 0 1 4.432 -4.432h5.598a12.255 12.255 0 0 0 6.387 -1.793 12.294 12.294 0 0 1 6.388 -1.792h21.01a4.431 4.431 0 0 1 4.432 4.432"/><path style="fill:#F97D7D;" d="M44.691 7.029h-1.908a4.431 4.431 0 0 1 4.432 4.432v27.119a4.431 4.431 0 0 1 -4.432 4.432h1.908a4.431 4.431 0 0 0 4.432 -4.432V11.461a4.431 4.431 0 0 0 -4.432 -4.432"/><g><path style="fill:#F2D546;" d="M49.124 35.622v2.958a4.431 4.431 0 0 1 -4.432 4.432H5.308a4.431 4.431 0 0 1 -4.432 -4.432v-2.958z"/><path style="fill:#F2D546;" cx="255.996" cy="274.164" r="128.561" d="M37.554 26.774A12.555 12.555 0 0 1 25 39.328a12.555 12.555 0 0 1 -12.555 -12.555 12.555 12.555 0 0 1 25.109 0"/></g><path style="fill:#495E77;" cx="255.996" cy="274.164" r="82.867" d="M33.092 26.774a8.092 8.092 0 0 1 -8.092 8.093 8.092 8.092 0 0 1 -8.093 -8.093 8.092 8.092 0 0 1 16.185 0"/><path style="fill:#62788E;" d="M25 18.681c-0.676 0 -1.333 0.084 -1.962 0.241a8.094 8.094 0 0 1 0 15.704 8.137 8.137 0 0 0 1.962 0.241 8.093 8.093 0 0 0 0 -16.186"/><path style="fill:#88E2DB;" d="M38.919 16.106h4.746c0.784 0 1.42 -0.635 1.42 -1.42v-2.261c0 -0.784 -0.635 -1.42 -1.42 -1.42h-4.746c-0.784 0 -1.42 0.635 -1.42 1.42v2.261c0 0.784 0.635 1.42 1.42 1.42"/><path style="fill:#B5F4EE;" d="M43.665 11.006h-2.104c0.784 0 1.42 0.635 1.42 1.42v2.261c0 0.784 -0.635 1.42 -1.42 1.42h2.104c0.784 0 1.42 -0.635 1.42 -1.42v-2.261c0 -0.784 -0.635 -1.42 -1.42 -1.42"/><g><path x="56.001" y="71.559" style="fill:#F2D546;" width="62.27" height="37.125" d="M5.469 6.988h6.081v3.625H5.469z"/><path style="fill:#F2D546;" cx="71.751" cy="307.543" r="28.122" d="M9.753 30.033a2.745 2.745 0 0 1 -2.746 2.746 2.745 2.745 0 0 1 -2.746 -2.746 2.746 2.746 0 0 1 5.492 0"/></g><path style="fill:#62788E;" cx="224.64" cy="245.836" r="18.4" d="M23.734 24.008a1.797 1.797 0 0 1 -1.797 1.796 1.797 1.797 0 0 1 -1.797 -1.796 1.797 1.797 0 0 1 3.594 0"/><path style="fill:#F9E178;" d="M49.124 35.622v2.958a4.431 4.431 0 0 1 -4.432 4.432H42.784a4.431 4.431 0 0 0 4.432 -4.432v-2.958z"/><path d="M25 35.743c4.946 0 8.97 -4.024 8.97 -8.97s-4.024 -8.969 -8.97 -8.969 -8.97 4.024 -8.97 8.97 4.024 8.97 8.97 8.97m0 -16.185c3.978 0 7.216 3.237 7.216 7.216s-3.236 7.216 -7.216 7.216 -7.216 -3.237 -7.216 -7.216 3.236 -7.217 7.216 -7.217"/><path d="M38.919 10.129a2.299 2.299 0 0 0 -2.296 2.296v2.261a2.299 2.299 0 0 0 2.296 2.296h4.746a2.299 2.299 0 0 0 2.296 -2.296v-2.261a2.299 2.299 0 0 0 -2.296 -2.296zm5.289 2.296v2.261a0.544 0.544 0 0 1 -0.543 0.543h-4.746a0.544 0.544 0 0 1 -0.543 -0.543v-2.261a0.544 0.544 0 0 1 0.543 -0.543h4.746a0.544 0.544 0 0 1 0.543 0.543"/><path d="M3.384 30.033c0 1.998 1.625 3.623 3.623 3.623s3.623 -1.625 3.623 -3.623 -1.625 -3.623 -3.623 -3.623 -3.623 1.625 -3.623 3.623m5.492 0c0 1.031 -0.838 1.87 -1.87 1.87s-1.87 -0.838 -1.87 -1.87 0.839 -1.87 1.87 -1.87 1.87 0.838 1.87 1.87"/><path d="M50 18.032a0.876 0.876 0 0 0 -0.876 -0.876 0.876 0.876 0 0 0 -0.876 0.876V34.745h-4.79a0.876 0.876 0 0 0 -0.876 0.876 0.876 0.876 0 0 0 0.876 0.876h4.79v2.081c0 1.961 -1.595 3.556 -3.556 3.556H5.309c-1.961 0 -3.556 -1.595 -3.556 -3.556v-2.081h13.991c2.411 2.296 5.672 3.707 9.256 3.707s6.845 -1.411 9.256 -3.707h6.221a0.876 0.876 0 0 0 0.876 -0.876 0.876 0.876 0 0 0 -0.876 -0.876h-4.674a13.363 13.363 0 0 0 2.628 -7.972c0 -7.406 -6.025 -13.431 -13.431 -13.431 -2.782 0 -5.452 0.843 -7.72 2.439a0.876 0.876 0 0 0 1.009 1.434 11.608 11.608 0 0 1 6.711 -2.12c6.439 0 11.677 5.238 11.677 11.678S31.439 38.453 25 38.453 13.322 33.215 13.322 26.775c0 -2.717 0.954 -5.363 2.684 -7.45a0.876 0.876 0 0 0 -0.115 -1.234 0.876 0.876 0 0 0 -1.234 0.115 13.431 13.431 0 0 0 -3.088 8.57c0 2.982 0.977 5.74 2.628 7.972H1.753V15.045c0 -1.961 1.595 -3.556 3.556 -3.556 0 0 6.391 -0.011 6.462 -0.029a13.137 13.137 0 0 0 5.979 -1.891 11.402 11.402 0 0 1 5.931 -1.664h21.01c1.961 0 3.556 1.595 3.556 3.556v3.649a0.876 0.876 0 0 0 0.876 0.876 0.876 0.876 0 0 0 0.876 -0.876V11.461a5.314 5.314 0 0 0 -5.309 -5.309h-21.01a13.137 13.137 0 0 0 -6.844 1.92 11.373 11.373 0 0 1 -4.412 1.562V6.988a0.876 0.876 0 0 0 -0.876 -0.876H5.469a0.876 0.876 0 0 0 -0.876 0.876v2.798A5.314 5.314 0 0 0 0 15.045v23.534a5.314 5.314 0 0 0 5.309 5.309h39.382A5.314 5.314 0 0 0 50 38.579zM6.345 7.865h4.328v1.872H6.345z"/></svg>