<svg width="50px" height="50px" viewBox="-0.142 0 4.147 4.147" xmlns="http://www.w3.org/2000/svg" xmlns:xlink="http://www.w3.org/1999/xlink"><defs><clipPath id="clip-path"><path clip-rule="evenodd" d="M3.341 3.251A1.923 1.923 0 0 1 1.931 3.864a1.938 1.938 0 0 1 -0.24 -0.015 2.125 2.125 0 0 1 -0.697 -0.228 1.938 1.938 0 0 1 -0.491 -0.389l0.08 -0.194 0.869 -0.388c0.039 0.233 0.488 0.511 0.488 0.511s0.451 -0.213 0.505 -0.513l0.799 0.393z" fill="none"/></clipPath><clipPath id="clip-path-2"><path clip-rule="evenodd" d="m0.882 2.906 0.426 -0.19 0.638 0.874 0.645 -0.871 0.372 0.177v1.252h-2.081z" fill="none"/></clipPath></defs><title/><g data-name="Layer 2" id="Layer_2"><g data-name="—ÎÓÈ 1" id="_ÎÓÈ_1"><path cx="30.8999" cy="30.8999" fill="#3dbc93" r="30.8999" d="M3.862 1.931A1.931 1.931 0 0 1 1.931 3.862A1.931 1.931 0 0 1 0 1.931A1.931 1.931 0 0 1 3.862 1.931z"/><path d="m1.453 2.417 0.994 0.008v0.807l-0.994 -0.008z" fill="#f9dca4" fill-rule="evenodd"/><path d="M2.448 2.424v0.224a0.5 0.5 0 0 1 -0.006 0.074 0.406 0.406 0 0 1 -0.025 0.088c-0.336 0.26 -0.871 0.047 -0.957 -0.398z" fill-rule="evenodd" opacity="0.11"/><path d="M1.946 0.527c1.33 0 0.812 2.204 0 2.204 -0.767 0 -1.33 -2.204 0 -2.204" fill="#ffe8be" fill-rule="evenodd"/><path d="M1.148 1.503c-0.192 0.084 -0.029 0.48 0.092 0.479a2 2 0 0 1 -0.092 -0.479z" fill="#f9dca4" fill-rule="evenodd"/><path d="M2.758 1.503c0.192 0.084 0.029 0.48 -0.092 0.479a2 2 0 0 0 0.092 -0.479" fill="#f9dca4" fill-rule="evenodd"/><path d="M2.758 1.511s0.497 -0.737 -0.165 -1.021a0.743 0.743 0 0 0 -0.804 -0.326C1.423 0.238 1.288 0.419 1.288 0.419s-0.346 0.313 -0.652 0.32a0.611 0.611 0 0 0 0.393 0.11c-0.042 0.105 -0.123 0.451 0.124 0.678 0.273 -0.179 0.501 -0.53 0.501 -0.53s0.061 0.204 0.013 0.304a1.181 1.181 0 0 0 0.495 -0.221c0.159 -0.127 0.243 -0.269 0.332 -0.27 0.203 -0.004 0.263 0.609 0.265 0.701z" fill="#ecbe6a" fill-rule="evenodd"/><path d="M3.341 3.251A1.923 1.923 0 0 1 1.931 3.864a1.938 1.938 0 0 1 -0.24 -0.015 2.125 2.125 0 0 1 -0.697 -0.228 1.938 1.938 0 0 1 -0.491 -0.389l0.08 -0.194 0.869 -0.388c0.039 0.233 0.488 0.511 0.488 0.511s0.451 -0.213 0.505 -0.513l0.799 0.393z" fill="#498bd9" fill-rule="evenodd"/><g clip-path="url(#clip-path)"><path d="m0.882 2.906 0.426 -0.19 0.638 0.874 0.645 -0.871 0.372 0.177v1.252h-2.081z" fill="#545f69" fill-rule="evenodd"/><g clip-path="url(#clip-path-2)"><path d="M2.362 2.68h0.046v1.336h-0.046zm-0.923 0h0.046v1.336h-0.046V2.68zm-0.186 0h0.046v1.336h-0.046zm-0.184 0h0.046v1.336h-0.046V2.68zm-0.186 0h0.046v1.336h-0.046zm1.294 0h0.046v1.336h-0.046zm-0.186 0h0.046v1.336h-0.046zm-0.184 0h0.046v1.336h-0.046zm-0.186 0h0.046v1.336h-0.046zm1.299 0h0.046v1.336h-0.046zm-0.186 0h0.046v1.336h-0.046zm-0.184 0h0.046v1.336h-0.046z" fill="#434955" fill-rule="evenodd"/></g></g><path d="m1.454 2.579 0.488 0.582 -0.394 0.222 -0.301 -0.662z" fill="#58b0e0" fill-rule="evenodd"/><path d="m2.447 2.591 -0.505 0.571 0.407 0.222 0.299 -0.67z" fill="#58b0e0" fill-rule="evenodd"/><path d="M1.352 1.447h0.401a0.099 0.099 0 0 1 0.07 0.029v0a0.099 0.099 0 0 1 0.029 0.07v0.181a0.099 0.099 0 0 1 -0.099 0.099h-0.401a0.099 0.099 0 0 1 -0.07 -0.029h0a0.099 0.099 0 0 1 -0.029 -0.07V1.546a0.099 0.099 0 0 1 0.029 -0.07l0 0a0.099 0.099 0 0 1 0.07 -0.029m0.401 0.053h-0.401a0.046 0.046 0 0 0 -0.032 0.013l0 0a0.046 0.046 0 0 0 -0.013 0.032v0.181a0.046 0.046 0 0 0 0.013 0.032 0.046 0.046 0 0 0 0.032 0.013h0.401a0.046 0.046 0 0 0 0.046 -0.046V1.546a0.046 0.046 0 0 0 -0.013 -0.032 0.046 0.046 0 0 0 -0.032 -0.013" fill="#464449" fill-rule="evenodd"/><path d="M2.159 1.447h0.401a0.099 0.099 0 0 1 0.07 0.029v0a0.099 0.099 0 0 1 0.029 0.07v0.181a0.099 0.099 0 0 1 -0.099 0.099h-0.401a0.099 0.099 0 0 1 -0.07 -0.029l0 0a0.099 0.099 0 0 1 -0.029 -0.07V1.546a0.099 0.099 0 0 1 0.029 -0.07l0 0a0.099 0.099 0 0 1 0.07 -0.029m0.401 0.053h-0.401a0.046 0.046 0 0 0 -0.032 0.013l0 0a0.046 0.046 0 0 0 -0.013 0.032v0.181a0.046 0.046 0 0 0 0.013 0.032l0 0a0.046 0.046 0 0 0 0.032 0.013h0.401a0.046 0.046 0 0 0 0.046 -0.046V1.546a0.046 0.046 0 0 0 -0.013 -0.032h0a0.046 0.046 0 0 0 -0.032 -0.013" fill="#464449" fill-rule="evenodd"/><path d="M1.838 1.532h0.24v0.055h-0.24z" fill="#464449"/></g></g></svg>